<mxfile host="65bd71144e">
    <diagram id="TD21M9ViDPQGpz08a-o0" name="Page-1">
        <mxGraphModel dx="757" dy="539" grid="1" gridSize="10" guides="1" tooltips="1" connect="1" arrows="1" fold="1" page="1" pageScale="1" pageWidth="827" pageHeight="1169" math="0" shadow="0">
            <root>
                <mxCell id="0"/>
                <mxCell id="1" parent="0"/>
                <mxCell id="2" value="&lt;b&gt;&lt;font style=&quot;font-size: 14px&quot; color=&quot;#000000&quot;&gt;Dossier&lt;/font&gt;&lt;/b&gt;" style="rounded=1;whiteSpace=wrap;html=1;fillColor=none;strokeWidth=2;strokeColor=#000000;" vertex="1" parent="1">
                    <mxGeometry x="10" y="120" width="150" height="60" as="geometry"/>
                </mxCell>
                <mxCell id="3" value="&lt;font style=&quot;font-size: 14px&quot; color=&quot;#000000&quot;&gt;&lt;b&gt;Index&lt;/b&gt;&lt;/font&gt;" style="rounded=1;whiteSpace=wrap;html=1;strokeColor=#000000;strokeWidth=2;fillColor=none;" vertex="1" parent="1">
                    <mxGeometry x="190" y="120" width="310" height="60" as="geometry"/>
                </mxCell>
                <mxCell id="4" value="&lt;font style=&quot;font-size: 14px&quot; color=&quot;#000000&quot;&gt;&lt;b&gt;RÃ©pertoire Git&lt;/b&gt;&lt;/font&gt;" style="rounded=1;whiteSpace=wrap;html=1;strokeColor=#000000;strokeWidth=2;fillColor=none;" vertex="1" parent="1">
                    <mxGeometry x="530" y="120" width="270" height="60" as="geometry"/>
                </mxCell>
                <mxCell id="5" value="&lt;pre id=&quot;tree-panel&quot; style=&quot;font-size: 13px&quot;&gt;&lt;font color=&quot;#000000&quot;&gt;&lt;span class=&quot;t-icon&quot;&gt;ðŸ“¦.&lt;/span&gt;git&lt;br&gt; â”£ &lt;span class=&quot;t-icon&quot;&gt;ðŸ“‚&lt;/span&gt;branches&lt;br&gt; â”£ &lt;span class=&quot;t-icon&quot;&gt;ðŸ“‚&lt;/span&gt;hooks&lt;br&gt; â”£ &lt;span class=&quot;t-icon&quot;&gt;ðŸ“‚&lt;/span&gt;info&lt;br&gt; â”£ &lt;span class=&quot;t-icon&quot;&gt;ðŸ“‚&lt;/span&gt;objects&lt;br&gt; â”ƒ â”£ &lt;span class=&quot;t-icon&quot;&gt;ðŸ“‚&lt;/span&gt;0d&lt;br&gt; â”ƒ â”ƒ&lt;span style=&quot;white-space: pre&quot;&gt;&#9;&lt;/span&gt; &lt;span class=&quot;t-icon&quot;&gt;ðŸ“œ&lt;/span&gt;778fdc600dcf2f618399&lt;br&gt; â”ƒ â”£ &lt;span class=&quot;t-icon&quot;&gt;ðŸ“‚&lt;/span&gt;30&lt;br&gt; â”ƒ â”ƒ â”— &lt;span class=&quot;t-icon&quot;&gt;ðŸ“œ&lt;/span&gt;1c1538e9b18d71be417d&lt;br&gt; â”ƒ â”£ &lt;span class=&quot;t-icon&quot;&gt;ðŸ“‚&lt;/span&gt;info&lt;br&gt; â”ƒ â”— &lt;span class=&quot;t-icon&quot;&gt;ðŸ“‚&lt;/span&gt;pack&lt;br&gt; â”£ &lt;span class=&quot;t-icon&quot;&gt;ðŸ“‚&lt;/span&gt;refs&lt;br&gt; â”ƒ â”£ &lt;span class=&quot;t-icon&quot;&gt;ðŸ“‚&lt;/span&gt;heads&lt;br&gt; â”ƒ â”— &lt;span class=&quot;t-icon&quot;&gt;ðŸ“‚&lt;/span&gt;tags&lt;br&gt; â”£ &lt;span class=&quot;t-icon&quot;&gt;ðŸ“œ&lt;/span&gt;HEAD&lt;br&gt; â”£ &lt;span class=&quot;t-icon&quot;&gt;ðŸ“œ&lt;/span&gt;config&lt;br&gt; â”£ &lt;span class=&quot;t-icon&quot;&gt;ðŸ“œ&lt;/span&gt;description&lt;br&gt; â”— &lt;span class=&quot;t-icon&quot;&gt;ðŸ“œ&lt;/span&gt;index&lt;/font&gt;&lt;/pre&gt;" style="text;html=1;strokeColor=none;fillColor=none;align=left;verticalAlign=middle;whiteSpace=wrap;rounded=0;" vertex="1" parent="1">
                    <mxGeometry x="550" y="190" width="270" height="300" as="geometry"/>
                </mxCell>
                <mxCell id="10" value="" style="shape=image;verticalLabelPosition=bottom;labelBackgroundColor=#ffffff;verticalAlign=top;aspect=fixed;imageAspect=0;image=data:image/png,iVBORw0KGgoAAAANSUhEUgAABkAAAAK8CAYAAAC3E3PWAAAAAXNSR0IArs4c6QAAIABJREFUeF7s3Qe0FfW1+PF9aQqi+AQBI4LwEBt5KiqKQY0lKiYQK0iiiQktYAmCdLj0rkAULlFBjaAoghB9ERv4VBTB9rKCBeQBIkpRVLCgSPmvffK/5Vzm3DMzZ8qew3fWcq2s3JnfzHz2nh9nZs/8fgXCggACCCCAAAIIIIAAAggggAACCCCAAAIIIIAAAgjkmUBBnp0Pp4MAAggggAACCCCAAAIIIIAAAggggAACCCCAAAIIiO8CyJFHHXWu7JXz94mcUSD7monIT0TkUBGphCsCCCCAAAIIIIAAAggggAACCCCAAAIIIIAAAggg4FFgr4h8LSKf7pOC1QUib0oleemzTZte8dhOanVPBZAjjzyy6b6Cyl0KRH4jBdLAzw7ZBgEEEEAAAQQQQAABBBBAAAEEEEAAAQQQQAABBBBwLbBPNu4TeaRg3577PvvsszVut3NVAKlbt269vZUqDS3YJ93dNsx6CCCAAAIIIIAAAggggAACCCCAAAIIIIAAAggggECQAvsKZHqlvXuHb926dUu2drMWQI6sV6+TSMGdIlIrW2P8HQEEEEAAAQQQQAABBBBAAAEEEEAAAQQQQAABBBAIWWC7yL7en23ZMrOi/VRYAKlTv34RX32EHCaaRwABBBBAAAEEEEAAAQQQQAABBBBAAAEEEEAAAc8C+jXI55s398i0YcYCSJ16Ry0skH2/9rxHNkAAAQQQQAABBBBAAAEEEEAAAQQQQAABBBBAAAEEIhDYJwV//3zLpiucduVYAKH4EUFU2AUCCCCAAAIIIIAAAggggAACCCCAAAIIIIAAAgjkLJCpCLJfAYRhr3K2pgEEEEAAAQQQQAABBBBAAAEEEEAAAQQQQAABBBCIUMBpOKy0Asj/n/B8RoTHxK4QQAABBBBAAAEEEEAAAQQQQAABBBBAAAEEEEAAgQAE9nUuOzF6SQGkbt269fYVVFolIrUC2AtNIIAAAggggAACCCCAAAIIIIAAAggggAACCCCAAAJRCmwv2Lf3+K1bt27RnZYUQBj6KsoYsC8EEEAAAQQQQAABBBBAAAEEEEAAAQQQQAABBBAIWqDsUFipAsiRRx7ZVCpV/jDoHdEeAggggAACCCCAAAIIIIAAAggggAACCCCAAAIIIBCpwN49x3322WdrUgWQOnXrjy8okL6RHgA7QwABBBBAAAEEEEAAAQQQQAABBBBAAAEEEEAAAQQCFti3TyZ8vnVzv39/AVK3/sdSIA0C3gfNIYAAAggggAACCCCAAAIIIIAAAggggAACCCCAAALRCuyTjZ9t3XxMwZFHHXWu7N33crR7Z28IIIAAAggggAACCCCAAAIIIIAAAggggAACCCCAQEgClQrOKziy3lGDRfaNDGkXNIsAAggggAACCCCAAAIIIIAAAggggAACCCCAAAIIRCxQMKSgTr2jFhbIvl9HvGd2hwACCCCAAAIIIIAAAggggAACCCCAAAIIIIAAAgiEIrBPCv5ecGS9+u+JyImh7IFGEUAAAQQQQAABBBBAAAEEEEAAAQQQQAABBBBAAIHoBd7XAshXIlIr+n2zRwQQQAABBBBAAAEEEEAAAQQQQAABBBBAAAEEEEAgFIHtWgDZIyKVQmmeRhFAAAEEEEAAAQQQQAABBBBAAAEEEEAAAQQQQACB6AX2agFkX/T7ZY8IIIAAAggggAACCCCAAAIIIIAAAggggAACCCCAQHgCFEDCs6VlBBBAAAEEEEAAAQQQQAABBBBAAAEEEEAAAQQQiEmAAkhM8OwWAQQQQAABBBBAAAEEEEAAAQQQQAABBBBAAAEEwhOgABKeLS0jgAACCCCAAAIIIIAAAggggAACCCCAAAIIIIBATAIUQGKCZ7cIIIAAAggggAACCCCAAAIIIIAAAggggAACCCAQngAFkPBsaRkBBBBAAAEEEEAAAQQQQAABBBBAAAEEEEAAAQRiEqAAEhM8u0UAAQQQQAABBBBAAAEEEEAAAQQQQAABBBBAAIHwBCiAhGdLywgggAACCCCAAAIIIIAAAggggAACCCCAAAIIIBCTAAWQmODZLQIIIIAAAggggAACCCCAAAIIIIAAAggggAACCIQnQAEkPFtaRgABBBBAAAEEEEAAAQQQQAABBBBAAAEEEEAAgZgEKIDEBM9uEUAAAQQQQAABBBBAAAEEEEAAAQQQQAABBBBAIDwBCiDh2dIyAggggAACCCCAAAIIIIAAAggggAACCCCAAAIIxCRAASQmeHaLAAIIIIAAAggggAACCCCAAAIIIIAAAggggAAC4QlQAAnPlpYRQAABBBBAAAEEEEAAAQQQQAABBBBAAAEEEEAgJgEKIDHBs1sEEEAAAQQQQAABBBBAAAEEEEAAAQQQQAABBBAIT4ACSHi2tIwAAggggAACCCCAAAIIIIAAAggggAACCCCAAAIxCVAAiQme3SKAAAIIIIAAAggggAACCCCAAAIIIIAAAggggEB4AhRAwrOlZQQQQAABBBBAAAEEEEAAAQQQQAABBBBAAAEEEIhJgAJITPDsFgEEEEAAAQQQQAABBBBAAAEEEEAAAQQQQAABBMIToAASni0tI4AAAggggAACCCCAAAIIIIAAAggggAACCCCAQEwCFEBigme3CCCAAAIIIIAAAggggAACCCCAAAIIIIAAAgggEJ4ABZDwbGkZAQQQQAABBBBAAAEEEEAAAQQQQAABBBBAAAEEYhKgABITPLtFAAEEEEAAAQQQQAABBBBAAAEEEEAAAQQQQACB8AQogIRnS8sIIIAAAggggAACCCCAAAIIIIAAAggggAACCCAQkwAFkJjg2S0CCCCAAAIIIIAAAggggAACCCCAAAIIIIAAAgiEJ0ABJDxbWkYAAQQQQAABBBBAAAEEEEAAAQQQQAABBBBAAIGYBCiAxATPbhFAAAEEEEAAAQQQQAABBBBAAAEEEEAAAQQQQCA8AQog4dnSMgIIIIAAAggggAACCCCAAAIIIIAAAggggAACCMQkQAEkJnh2iwACCCCAAAIIIIAAAggggAACCCCAAAIIIIAAAuEJUAAJz5aWEUAAAQQQQAABBBBAAAEEEEAAAQQQQAABBBBAICYBCiAxwbNbBBBAAAEEEEAAAQQQQAABBBBAAAEEEEAAAQQQCE+AAkh4trSMAAIIIIAAAggggAACCCCAAAIIIIAAAggggAACMQlQAIkJnt0igAACCCCAAAIIIIAAAggggAACCCCAAAIIIIBAeAIUQMKzpWUEEEAAAQQQQAABBBBAAAEEEEAAAQQQQAABBBCISYACSEzw7BYBBBBAAAEEEEAAAQQQQAABBBBAAAEEEEAAAQTCE6AAEp4tLSOAAAIIIIAAAggggAACCCCAAAIIIIAAAggggEBMAhRAYoJntwgggAACCCCAAAIIIIAAAggggAACCCCAAAIIIBCeAAWQ8GxpGQEEEEAAAQQQQAABBBBAAAEEEEAAAQQQQAABBGISoAASEzy7RQABBBBAAAEEEEAAAQQQQAABBBBAAAEEEEAAgfAEKICEZ0vLCCCAAAIIIIAAAggggAACCCCAAAIIIIAAAgggEJMABZCY4NktAggggAACCCCAAAIIIIAAAggggAACCCCAAAIIhCdAASQ8W1pGAAEEEEAAAQQQQAABBBBAAAEEEEAAAQQQQACBmAQogMQEz24RQAABBBBAAAEEEEAAAQQQQAABBBBAAAEEEEAgPAEKIOHZ0jICCCCAAAIIIIAAAggggAACCCCAAAIIIIAAAgjEJEABJCZ4dosAAggggAACCCCAAAIIIIAAAggggAACCCCAAALhCVAACc+WlhFAAAEEEEAAAQQQQAABBBBAAAEEEEAAAQQQQCAmAQogMcGzWwQQQAABBBBAAAEEEEAAAQQQQAABBBBAAAEEEAhPgAJIeLa0jAACCCCAAAIIIIAAAggggAACCCCAAAIIIIAAAjEJUACJCZ7dIoAAAggggAACCCCAAAIIIIAAAggggAACCCCAQHgCFEDCs6VlBBBAAAEEEEAAAQQQQAABBBBAAAEEEEAAAQQQiEmAAkhM8OwWAQQQQAABBBBAAAEEEEAAAQQQQAABBBBAAAEEwhOgABKeLS0jgAACCCCAAAIIIIAAAggggAACCCCAAAIIIIBATAIUQGKCZ7cIIIAAAggggAACCCCAAAIIIIAAAggggAACCCAQngAFkPBsaRkBBBBAAAEEEEAAAQQQQAABBBBAAAEEEEAAAQRiEqAAEhM8u0UAAQQQQAABBBBAAAEEEEAAAQQQQAABBBBAAIHwBCiAhGdLywgggAACCCCAAAIIIIAAAggggAACCCCAAAIIIBCTAAWQmODZLQIIIIAAAggggAACCCCAAAIIIIAAAggggAACCIQnQAEkPFtaRgABBBBAAAEEEEAAAQQQQAABBBBAAAEEEEAAgZgEKIDEBM9uEUAAAQQQQAABBBBAAAEEEEAAAQQQQAABBBBAIDwBCiDh2dIyAggggAACCCCAAAIIIIAAAggggAACCCCAAAIIxCRAASQmeHaLAAIIIIAAAggggAACCCCAAAIIIIAAAggggAAC4QlQAAnPlpYRQAABBBBAAAEEEEAAAQQQQAABBBBAAAEEEEAgJgEKIDHBs1sEEEAAAQQQQAABBBBAAAEEEEAAAQQQQAABBBAIT4ACSHi2tIwAAggggAACCCCAAAIIIIAAAggggAACCCCAAAIxCVAAiQme3SKAAAIIIIAAAggggAACCCCAAAIIIIAAAggggEB4AhRAwrOlZQQQQAABBBBAAAEEEEAAAQQQQAABBBBAAAEEEIhJgAJITPDsFgEEEEAAAQQQQAABBBBAAAEEEEAAAQQQQAABBMIToAASni0tI4AAAggggAACCCCAAAIIIIAAAggggAACCCCAQEwCFEBigme3CCCAAAIIIIAAAggggAACCCCAAAIIIIAAAgggEJ4ABZDwbGkZAQQQQAABBBBAAAEEEEAAAQQQQAABBBBAAAEEYhKgABITPLtFAAEEEEAAAQQQQAABBBBAAAEEEEAAAQQQQACB8AQogIRnS8sIIIAAAggggAACCCCAAAIIIIAAAggggAACCCAQkwAFkJjg2S0CCCCAAAIIIIAAAggggAACCCCAAAIIIIAAAgiEJ0ABJDxbWkYAAQQQQAABBBBAAAEEEEAAAQQQQAABBBBAAIGYBCiAxATPbhFAAAEEEEAAAQQQQAABBBBAAAEEEEAAAQQQQCA8AQog4dnSMgIIIIAAAggggAACCCCAAAIIIIAAAggggAACCMQkQAEkJnh2iwACCCCAAAIIIIAAAggggAACCCCAAAIIIIAAAuEJUAAJz5aWEUAAAQQQQAABBBBAAAEEEEAAAQQQQAABBBBAICYBCiAxwbNbBBBAAAEEEEAAAQQQQAABBBBAAAEEEEAAAQQQCE+AAkh4trSMAAIIIIAAAggggAACCCCAAAIIIIAAAggggAACMQlQAIkJnt0igAACCCCAAAIIIIAAAggggAACCCCAAAIIIIBAeAIUQMKzpWUEEEAAAQQQQAABBBBA4IARqFevrnTv3l1q16lTcs7PP/e8PPnkkweMASeKAAIIIIAAAvkt0LlzJznl1FNLTnLDhg0yccLE/D7phJ8dBZCEB5DDRwABBBBAAAEEEEAAAQQsCDQ6tpGMGjVKtBBSvMybN1/uvedeC4fHMSCAAAIIIIAAAjkLDB8xTFq1alXSzpo1a6RH95tybpcGwhOgAOLTtnnz5nJmyzOkWbNmUrPmoalWvv/+e1m79v/k9WXL5Z133vHZsvvNqlevLi3PaimnnHKKNG58rFSpUjW18bZt22TNhx/K888/L1u2bHXfYMLXtBCTww8/PNUJNv9pc2nQ4GipVKlySnXTp5/KBx98IEuWvChfffVVwqXdHb6V/NQb8XNbt5amxx0ntWvXTh387t0/yrp16+Wdt9+W115bJnv27HF3Uglfi/y0F0Ar+Wmh/7QSHQsxsdJ/WomJhfyk/yzNBiv5SUysXKHpx0EBxGZcLB1V5cqVU/dKLVqcJrVqHS6NGjUsuY/Ve6btO3bIurVrZc2a/5PVq1dbOnSOBQEEEEAAgZQABZDkJQIFEA8x0x9rHa7rIG3b/kqOOOIIKSgoyLj19u3bZfELi+Vvf3tIdu7c6WEv2VetX7++dOrcSVq2PFP0JjTTsm/fPvn444/lsUcfk+effyF7wwlcw0pMmjRpIt27/0lOOvkkqVr134Uop0UftK9atVpmPTRL3nrrrQSKZz9kK/l56WWXSseO18lRRx1V4bWq1+fSV5bKrFmzZfPmzdlPMIFrWM3Phg0bSq/eveTEE08oidG3334ro0aOztvrozh9LOSnlf7TyiVlISZW+k8LMbGSn1b7zzhiZCU/iUkc0Xe/zzALIF27dZVrrrna1cHofZC+nKb/bdq0Wd577z1ZsmSJrPlwjavt3ax0+umny+Ahg+SQQw5xs7qrdX788UeZcd9MWbBggav1yz+AybbRrl27RPfxxRdfyMcfb5Rlr70mL7/8SuD3q+WPQwuWV151hZx33nmifYn28W4WPd5PPvlEXnzxf+SZRc8cMC+SubFhHQQQQACB+AQogMRn73fPFEBcyp144olyW6+e0qhRowofppZvbuPHG2XqtGny9ltvu9xTxatddfVV8tvf/kYOPfTfX524WfSh+/LlK2TK5Cl59aPRQkz0x/sfO/1R2rVrKwcddJCbcKTW0RuPZ599TqZNnZZXXx9YyE+9qep9e2/5r//6qadr9YsvvpQZ990nL7yw2HUcra9oOT/PPbe19LipR8lXOcWW+V4AsZKfFvpPK9ePlZhY6D+txMRCflruP+OIk4X8JCZxRN77Pq0UQJyOXIsi+uBfH6bPfWxuzvdFSSyAOLnofcl7774n06f/VdauXes96BVsoS/rde3aRS686MIKX9xzs1M9Tr2nnjatKG9fWnLjwDoIIIAAAvELUACJPwZej4ACiAuxFqe3kF69bpO6dUvHsnWxWckqOuTRXX+5S5YufdXLZvute+ONv5err7na04P24kb0B/+qVaukcMjQnH/s53QSAW1sISZ6I97ztp5y8cUXuX6Lqezpa0xee+211Nvu+TAEk4X81C8KBg4aIPp2qJ9F3xJ88IEH5Ykn3L1152cfUW1jOT9v+N0Ncu2118jBBx+8H0c+F0Cs5KeF/jOq6yDbfqzExEL/mc0qqr9byE/L/WdUcSi7Hwv5SUziiLy/fVougJQ9o6+//loWLvy7PPLwI75/h+dLAaTY5YcffpDnnnteiqYV+TYpa6z3SDpqQfEQtP4yKn2r9evXS98+/fLifjYID9pAAAEEEIhHgAJIPO657JUCSBY9fTN0zJjR0uCYBvutqQ+wdficrVu3yu7du6VevXpSs2ZNx7fOdWidESNG+v7suk2bNtK9x58cHxjqw3P9Ef/ZZ5+l/q6FGqevEfR4ly17XUaOGBnIj9pcEi+Xba3E5MY/3CgdOrR3LH5oPmjha9u2L6RWrcNSQ6ZVq1Ztv9PW2D311H+nbjSSvFjIT304MvGOCaJjxTstelOn16oWOY488sjUV1ROn9/v2LEj9bVUrgXLuONpMT91+AMtGp51VsuMRcN8LYBYyU8r/Wfc14fu30pMLPSfFuKhx2AlPy32n3HFyEp+EpO4MsD7fpNSANEz03uj99//QCbdOUk2bNjg+WS1z/rVr36Zuvc66ic/SW2vv/uLv9TXYXGdfv/rfYL+LtVF7yX1fkGXb775Wj5a/5G89NLL8v7777s6Hq9DYGVrVE10mN4J4yfmVGTo0qWzXHHlFRUODZztWMr/Xe+bHntsbuplJRYEEEAAAQTiFKAAEqe+v31TAMni1n9Af7nggp+nFTWK59Z46G+z5OWXX05rQeeA6Nqli5x40on7FUJef/11GT5shOfiQ6YHAvrj+c0330yNE1v2R7s+1GnT5jL57fW/3e+NG/10+IH7H5B58+b7yxgDW1mIySmnniKDBg0UfaBbdtGbmcWLl6R+mJed7Fw//y6eP6b88GXffPONTJ40WV55ZakBXe+HYCU/Mz0c2bZtmzw8+2FZtOiZtGtP3/zu3KWTnHHGGVKlSpW0E9fxoQcOHJTTjZ93yeC2sJifOqSNzvehE11WtORrAcRKflroP4PL9NxashATK/1nbpLBbW0hPy32n8EJe2vJSn4SE29xi3vtqAsg+uLKq6++Krt2/Zh26jVq1JCGxxwj9erXk1q1alU4LOqnn26S8ePGuy46uDV2+kLE6xwf2fblVADRYaz+9a+Vjps2aHB0qmCjL+45FWd0I73X1WHCxo0dl233jn/v0aO7/Krtr/b7fV28shroyASvvvpa6l5Wiz7Fi94znXLKKdLqnLPlpJNOFj3e4heWdGhp/X2er3P2+cJmIwQQQACBWAQogMTCntNOKYBUwNeqVSu5vU/vtPk23LwVoz/SdGz7yy9vk/aWs755Pr3or7Jo0SJPQdMfke1+3U4qVapUsp0+aJ8/b748+ODfMralN646MV+zZs3S1knyj0crMXG62dBCxj1/vSc1t0emRR8CDxjYP/WWa9ll5cqV0uf2vp6LY54SKaSVLeSn0822nq7eAI4ZPbbCt/r0K57rb7g+7auppL9hZi0/L730EuncpXPqAUTZRfsx/XKtQYPSL+zysQBiJT+t9J8hdUWemrUSEwv9pye4EFe2kp/W+s8QybM2bSU/iUnWUJlaIeoCyJYtW2Xw4MFpD9HLg9SrV1euvPJK+fkFF8gRR/yHo1euX+s7NRpXAWTZsmUytHBYhXlR0QtzuuHO73bKlCl/kRdffNFTfulwzTpsntNoBPry3ooVb8hfp//VdRFDXza7ruN18vOf/1yeeeYZvv7wFA1WRgABBBAIS4ACSFiy4bVLAaQCW33D//yfn5+2xqZNm6SwcGiFP7J1g0xDa7z33vvSu1dv1w+69UH5uPFj5Sf//7Nqbbt47gj9miTb4vTW3N69e2Xu3Mfl/pn3Z9vc3N8txOS0005LzTNR9mGuPjBfuGCh3HPPvVnNnIaT0AfB04umy9NPeyuOZd1ZyCtYyU+diL59+2vTioTbt2+XOybeIcuXr8iq4PTW8aeffir9+w1wfYOWdScRrWApP7UfvOnmm0QLIDoMRNlFCx0P3P+gnH5GC9EHn8VLPhZArOSnhf4zossg624sxMRK/5kVK6IVLOSnpf4zIvaMu7GSn8Qk7kzwvn+LBZDis9CvC7p16yq/uOQXjkMzrVq1WoYMHhLYF8CWCyDFJlpg6Nuvj+ixFhQUpAVcv84YOGCQ6yTQIU5v73P7fi+8aAP6Zby+COi1oOJ656yIAAIIIIBAhAIUQCLEDmhXFEAyQDY9rqmMGDFc6tSpU7KGvrUye9ZseeSROa74zzvvPOnV+zbRT7CLl++++04m3Tl5v6GzMjXYvkP71Fs0ZYfo0SF9Ro4cJe+9+56r47j1z7fKL395edqP2rVr10nfPn1FPxtPymIlJk6eXifkGzN2dGropbKL15sMC3GzkJ+HHXaYTJg4QZo0aVxCokVCfUts8qQprpgy5ZZ+YTX3sbmu2rCykpX81Idnffr2kebNT97vhlqLUzPum5H6Wqpo+jRp2rRpCV++FUCs5KeV/tPCdWIlJhb6Twvx0GOwkp9W+k8LcbGSn8TEQjZ4OwbLBZDiM2nXrp384Y83yiGHHJJ2cl5eaHKjkoQCiJ5Hpq8i9Z5z2LDhsuqDVVlPt6J5tbQdnV/PzUtJWXfECggggAACCBgQoABiIAgeD4ECSAawjh07yg2/uz6t8ODmE+uyzekPwTsn3SknnXRi2oPZf/zjabnrL3e5CtX4CeNE334ru7j5rLns+k5vz3ktxLg62JBXshATfXCmMS07j4E+bH9i/hOuvv4oJtLh0br36J72efjnn3+e+rpI559IymIhP88//zzp1auXVK9RvYRNhyMbN3a8rFiR/euP4o2c3j5OWlHKUn7q5JdXXX3VfpOd6xATOqTC22+9naLP9wKIlfy00H9a6desxMRC/2klJhby01L/aSEuFvKTmFjIBO/HkIQCiJ5VpqGavL5oVpFQUgogeg5OxcZdu3al7m+eevKprImgQ4zp3Hrlv/j1O5RW1h2yAgIIIIAAAjEKUACJEd/nrimAZIBzGm/Ya+FBm9avN3Tc0rLzd+gD7ltuuTXrMFhONxB+J86bPGWSnHzyySVn6+ehvc8cC2wzCzFp2bKl9B/QT2rWrJnTw3Ydi3jc+HFy9NFHl7TjN7aBAXtsyEp+6lAG+qC97Gf7bq+xsqeswzTdfMvNaUUpr0VPj4SBr24pP7UAPKRwiLRqdXYqNtrnrFz5rkycMDFtWLF8L4BYyU8L/WfgCe+zQQsxsdJ/+iQMfDML+Wmp/wwc2GODVvKTmHgMnJHVk1IAUS6nIVC9fkVcEXuSCiBOLweoxeNzH5cZM2ZWmF1OL/3pBjrssr74d/dddxvJTg4DAQQQQACBYAQogATjGGUrFEActJ0eTuvwV7Memi1z5rgb/qq4WaebNx3+ZfjwEbLyXysrjLXTA1kvnyKXbdzpgc+7774rt/XsFWW++d6XlZg4FbQ++mhDal4Xr8OJOT3wWbJ4iYwbN963U5QbWsnP8sU9NdC5VPRTey+L0w27zs0y9e6pFU5s72UfYa9rLT91XOmRo0ZK06b/Ka+9+prcccedsnPnzjSGfC+AWMhPK/1n2Pnvtn0LMbHSf7o1C3M9K/lprf8M0zxb21byk5hki5TNvyepAOI0/J6qBvUCTJIKIM1/2lyGDi3cb/6OefPmy71Z5jh0GvZZHZM6n57NK4ujQgABBBCwJEABxFI03B0LBRAHJx0yakjh4LS3/HXIqLFjxnoeu9Tpxt7t58SdO3eSa9tfW27ujrVyU4+bs349Uv60nG7WlyYCAAAgAElEQVRmdSgandhu48aN7rIlxrWsxKRwaKG0bv2zNAkdz1YnTPS6ON3Yr169Wm6+6RavTcWyvoX8bNCggeh8KjrfRPGiX9LMnHl/algyr4vTl1Ju3nzzup+w1reYnw0bNpTjjjtOFi9e7Hja+VwAsZKfVvrPsPLeS7tWYmKh//TiFua6VvLTYv8ZpntFbVvJT2ISVwbktt8kFUD0TJ2GftIX34KYBy5JBZBM84C4KYD0799PLrzowrTE0a8/5s59XO6feX9uCcXWCCCAAAIIGBSgAGIwKFkOiQKIA1Dbdm1Fv5ioVq1ayV+3bt0qQwYXyrp16zxHeeq0u6VZs2Zp27n5MRnkjZ/TA4YkTTZsJSZOsVy4YKEUFU33nBdO5xTUG2eeD8bHBhbyM8gHZ0rgdE5+hr7zwRnIJknMz3wugFjJTyv9ZyBJnmMjVmJiof/MkTKwza3kZxL7z8CCUK4hK/lJTMKKcLjtJq0AkunrhSB+/yWpAHL8CcfLsGFDpXbt2p7uWZ3m6tEG/I5aEG520joCCCCAAALBCFAACcYxylYogDhoB/nJvTbvd2zroIbp0GMIcjznKBO0eF8WYhLkMB16Xk43RUkqSlnIzyCH6dCYdO3WVa655uq0FF+zZo306H5THGnvaZ9Jzc98LoBYyU8L/aenZA5xZSsxsdB/hsjsqWkL+ZnU/tMTtIeVLeQnMfEQMGOrJq0AkukBvt8hbsuGI0kFkLPOaikDBg6QGjVqlJyCmyGgnV4s0AaSNNSysUuIw0EAAQQQSIAABZAEBKncIVIAcYhZjx7d5YorrwjsIajTQ9VsQx3pZHLTiqZKkyZN0o7DzZcjmdKw/INGtxPbWUhrCzFp3LixjBw1QurWrVtCksvE5U43iG6HR4s7JlbyUyc/79Tpj1K1atUSkly+ornyyiulc5dOae0lZai4pOZnPhdArOSnhf4z7j6reP8WYmKl/7QSEwv5mdT+M4wYWslPYhJGdKNpM2kFEFXR+cq0AFB2cTtnY0WqSSqAOBWj3QwB7fTbWe8xdSjae7LMHRJNRrIXBBBAAAEEghegABK8adgtUgBxEHb6YsPvPA/avJ+3yjN9seF3bgM9jvIPGvX/y6WgEnZylm3fQkycbmLc3BhkckryVzlW8tPp2lq71t88ORonp5u4XAoqUV4jSc3PfC6AWMlPC/1nlNdCRfuyEBMr/aeVmFjIz6T2n2HE0Ep+EpMwohtNm0ksgDj92/DDDz/I1LunyrPPPucbLikFEC183jnpTjnppBPTznXt2nXSt09f2bFjR0YDJ7ukvNDlO7BsiAACCCBwwAtQAEleClAAcVkAyWUcWD8PVcN4OO53KC4LaR30sfuJSRhDViW1KGUlP/0UFyvK5zBiHNX1E8axR5GfB1oBJJch1fzG2EL/GdV1kG0/FvoMK/1nNquo/m4hP/1eWxUZRdF/hhEjK/lJTMKIbjRtJrEA4nRfoF955/LimWonpQDS46Ye0rbtr0QLIcWL20nMneYMStKQvtFcFewFAQQQQCDfBCiAJC+iFEAcYuZ00xp1ASSMH8xBP2SIMt0txMTp5ijXH/hJfUBiJT+dcjqOB8xRXguZ9pXU/MznAoiV/LTQf1q4RvQYLMTESv9pJSYW8jOp/WcYMbSSn8QkjOhG02YSCyBO80OpVq5fyodxPZWPYi73d1rw6Ny5k7T7dbu04V91H+vXr5e+ffrJV199VWHiOO0/KV9PR3NFsBcEEEAAgXwUoACSvKhSAKEAIkMLh5nPXB6Q2ApRGDd0fm7gLDzMtBKZpD4sogDiPoP8vhFtof90f5bhrmmhz7DSf4Yr7b51C/mZ1P7TvbL7Na3kJzFxHzNrayaxAOKU9/laANGiR/OfNpdzz20trVufK0cc8R/7pZAOeTVl8hRZuvTVrOnl1IdTAMnKxgoIIIAAAgkXoACSvABSAHFZAMnlDSArwy35ecBsJaWD/lLCT0z8bJPNL+jzyra/oP7u90FsRfv3k59+tqnoGMI4r6DMs7WT1Pw80AoguXxN6Dc/g+5nwsi1bPkd1N8t9Bl+4xh0/xmUaa7tWMjPMHI66PPK1dnt9lbyk5i4jZi99SiAlMYkjIJi+Yg7/bumc3DoEF7llypVqshBBx1UYdLo5O8z7pvheu4TCiD2rkGOCAEEEEAgfAEKIOEbB70HCiAuCyALFyyUoqLpvvz93MQFPfmjHnjQD358YfjcyOnHddQxcYrj1q1bZcjgQlm3bp2vM8unByS5TAjvNz+Dnjw3jAc/vhLDx0ZJzc8DrQCyfPkKGTJ4iI8IO48l7mYYPgv9p68TDmEjC30G/76nB9ZCfia1/wzhEnGcsyCOf9+JSRjRjaZNCiDxF0D8RHrfvn3y/nvvy1133S1r16513QQFENdUrIgAAgggkEcCFECSF0wKIC4LILm8tRtUAUTf5Jlx30xZsGCBr0zLtwJI1DFhOIZwb+j85KeF4Wx8XYwhbJTU/DzQCiBxzFFjYYihEFLeV5MW+oww3gj203/6AgxhIwv5mdT+M4RwhDJps5/8JCZhRDeaNpNYADnrrJYyYOAAqVGjRhpSLiMAaENh9Pflo+h0fXmJtBY+Nm3aJHPmPCrPPvOsl01T61IA8UzGBggggAACeSBAASR5QaQA4hCzqdPulmbNmqX9JeqH7aeddpoMKRwsNWvWLDmOA7kAYiEmbdu1lW7dukq1atVKYuLm7euKuoWkfgFiJT8LhxZK69Y/SyOO4wGzha4/qfmZzwUQK/lpof+0cI3oMViIiZX+00pMLORnUvvPMGJoJT+JSRjRjabNJBZAnApue/fulUfnPCoPPvg333BJKIBs/HijDBw4SDZv3uzrPJkE3RcbGyGAAAIIJFyAAkjyAkgBxCFmft5Uqyj0fr4Acbp5OJALIBZiEsbwSEktgFjJz67duso111xNASTDW4ZJKNDlcwHESn5a6D+t/DyyEBMr/aeVmFjIT/59L80GK/lJTKxcod6PI4kFkI4dO8oNv7tedI6M4iXX+y5tJ64CiA5h9a9/rdwveIcffricc04rqVq1asnftNDzj388LXffdbf3YGcYYlnnERk+fISsdDgGXzthIwQQQAABBIwJUAAxFhAXh0MBxGUBJJdx250euOgP05t63Cx79uxxDFOmG9CZM++XJ+Y/4SK0+68S9Djbvg7C50ZBj9vuJyZBj9seRox98nreLIxj95OffuLotViZ6zwvnnF9bpDU/DzQCiDZ+v4w8tNC/+kzrQPfzEKfYaX/DBzXZ4MW8jOp/adP8go3s5KfxCSM6EbTZhILID1v6ymXX94mDSjXl0i0sbgKIJlGLqhcubJMvGOCNG/ePO1ctWBxx8Q7RO93vS5O/67u/G6nTJo0SV566WWvzbE+AggggAACiRCgAJKIMKUdJAUQh5gF/YaoU3urV6+Wm2+6pcKMCfrrgPLt6Zivj899XGbMmGk+cy3EJOi3Ip3a27Vrl9xzz73y1JNPmY+Jhfz083WV1wfMOiTAwAGDZOPGjaZjktT8zOcCiJX8tNB/Wrl4rMTEQv9pJSYW8jOp/WdYMbSQn8QkrOiG324SCyCTp0ySk08+OQ0niBdgrBVA9ATPPbe13NbrtrRhlvX/f/utt2XQoMEZX87LlDlOX8/s3r1bZj00W+bMmRN+wrEHBBBAAAEEYhCgABIDeo67pADiAOj0Q+6jjzZI7169ZceOHZ7J/Q7vMH7CONGxmMsuTz+9SKZMnuL5GIK+kfR8ADluYCEmhx12mNw56U5p1Khhydnk8gM/jOEdcmT2tLmF/Dz//POkV69eUr1G9ZJj37ZtmwwbNlxWfbDK0/noykE/iPN8ADlskNT8zOcCiJX8tNB/5pDagW5qJSYW+s9AYXNozEJ+JrX/zIG9wk0t5CcxCSu64bebtAJI0+OayogRw6VOnTppOG5eVsumabEAosfcf0B/ueCCn0tBQUHJKfgd8svp31VtdOnSV2XE8BHZiPg7AggggAACiRSgAJK8sFEAcYjZpZdeIjffcrMcdNBBJX/N5S0gpwk+Fy5YKEVF0yvMmP79+8mFF12Yto7fobicJrX87rvvZOyYsb4+d4461a3ExOkNMTexdPJymuAzlzyLOiYW8rP5T5vL0KGFUqtWrZLTzyWvnSZI9nvNRR0P3V8S8zOfCyBW8tNK/xnHNVF+n1ZiYqH/tBAPPQYr+ZnE/jOsGFrJT2ISVoTDbTdpBZD2HdrLjTf+Pm3+DxXy+9JZWV2rBZCTTj5JhgwZLLVr105LBj8TojvFWxvN5eXBcDOU1hFAAAEEEMhdgAJI7oZRt0ABxEH8+BOOl2HDhqb9KPQ7lmmDBg1kzNjRUr9+/ZI96Rs2bubyCPKtyKQ/bLcSE6cxgt955x3p17e/52u3c+dOcm37a9PevsplfgDPB5DjBhbyM+g3RP0WK3OkDGzzJOZnPhdArOSnlf4zsETPoSErMbHQf+bAGOimVvIzif1noIEo05iV/CQmYUU43HaTVADROTH06+6TTjoxDcXvfV95WasFED3OG/9wo3To0F7UoHjR4ZGfeeYZmTzJ22gDTl+N/fDDDzL17qny7LPPhZtwtI4AAggggEAMAhRAYkDPcZcUQBwA9YfgtKKp0qRJk5K/7t27Vx6d86g8+ODfPJG3bNlS+g/olzbO6jfffCMjR4wSfXBe0XLWWS1lwMABUqNGjZLVdJK64cNHyMp/rfR0HN26dZWrrr4q7WF7EJ92ezqIHFa2EhM17NTpj1K1atWSs/nkk0+kf7/+smXLVk9n6DQ0WpI+F7eSnyNHjRQ9lrLLksVLZNy48Z7ikfQ5WfRkk5if+VwA0ZhYyE8r/aenCzLElS3ExEr/GSKz66at5GcS+0/XyB5XtJKfxMRj4IysnqQCSJs2baR7jz/JwQcfnKa3du066dunr6+hj8s2ZLkAcvjhh8uEiePl2GOPTTt3PxOi6xc013W8TipVqpTW1ptvvpmaR48FAQQQQACBfBOgAJK8iFIAyRAzp8//ly1bJkMLh3mKstMPQrefBNerV1fGjR8nRx99dMk+/Y7P6jSMQBCfdnvCyHFlCzFxGj5FC1rjxo6XFStWuD5Dp9jmMp+I6x0HuKKV/HS6xtZ8uEZuueVWTxM5Og3Dkst8IgFSu24qifmZ7wUQK/lpof90ncghr2ghJlb6z5CpXTdvIT+T2H+6Bva4opX8JCYeA2dk9aQUQDIVAPbs2SOPPTZXHnzgwZxFLRdA9OR+/et20rlL57Rhn/X/X7lypfS5va/r39GZ5lHRL2mmTPmLvPjiizlb0gACCCCAAAKWBCiAWIqGu2OhAJLByelh6Oeffy6FhUNFH666WTJ9Vu3l7XSnhwJe36bR+T8GDhqQNk9CEj9LthKT8sUk/Vz8H/94Wu76y11u0iK1zuWX6xtn3dNuOPx+3eN6pyGsaCE/M43pP+nOyfLyyy+7PutBgwbK+T8/P239d999V27r2ct1GxZWTFp+5nsBxEp+Wuk/LVwjVmJiof+0EA89Biv5mbT+M8z4WclPYhJmlMNpOwkFEL1HG1I4RFq1Ojvt63gVWb9+vfTt00+++uqrnIGsF0DUYfToUdLi9BZp56ov3D1w/wMyb9581wZOv6N141WrVsuQwUMC8XR9MFlWrF69ujQ7vplUqVxFvv76a9FREeJY9FqpU7uO6EgT69ati82oWbNmcuihh8ruPbtl9arVsnPnzsg5tCDZuHHj1FdEn2/7XD5a/1Hkx6A7tBAT8jM99ORnqQf5WWphoc+gABJLN53TTimAZOBzevvN6xtBF1xwgfTs+WepXqN6yV68Fh6cHgroD/LRo8fIP//3n66Cf1uvnnLZZZel/cD3O2yTqx2GtJKVmDi9Pexl0sBMNxtJfNhuJT+dHpC8+OL/yLix41xlo9NkkH6HvXO1wxBXSlp+5nsBRENtIT+t9J8hpr6npi3ExEr/6QkupJWt5GfS+s+QwpFq1kp+EpMwoxxO29YLIPpwsV//fo7FD71Pm3HfDPn7358MBMd6AURPUoe8u73P7Wkvyun/v2nTptSLf24fRJ9y6imiRRB9KFV20RfFli17XUaOGOn6i5JA8B0a0XuwHjf1kEsu+UXJS2h6fJ999pncfdfdsny5+6/5czlGLTj16NFdjjnmmJL7cy06LV26VCaMnxiZ08UXXySdOndKn/d050556smnZMaMmbmcouttNV/0eUnLs1pKlSpVUttpTLQgdMcdd7p+8dT1DjOsaCEm5Gd6cMjPUg/ys9TCSp+hR0QBJNeeN/rtKYBUYH7rn2+VX/7y8rTCwebNm2XEiJFZ/zHWiVZHjR4pJ5xwQtoevI4pq+1MmDhBmjRpXNKOlx+STj9q/XyxEH1qOu/RQkycPvPW4thTT/23FE0rykrl9Lm5Dn+l88vMfWxu1u0trWAlP9t3aC/6kKT4h7Ma7dixQ6ZMniI6r0q2ZeiwQjnnnHPSrnWvX3xl20dUf09afh4IBRAr+Wmh/4zqOsi2HwsxsdJ/ZrOK6u8W8jNp/WeYsbGSn8QkzCiH07blAsjZZ58tXbt2kQbHNNjv5PX+6LXXXpPhw0YEBpOEAoierNPLcn4mRL/l1ltS987l5wLRtt544w25Y+KdsX3loOf5m990lOtvuD7tfqE42F4LPn6TJNPQa9qe3k8uXLBQ7rnnXr/Nu97O6eWv4o2DLgRWdFBOuVe8/gcffCCDBw3JeS6ebChWYkJ+lkaK/Cy1ID/Tr2ALfUbxEVEAyda72vs7BZAKYuL0A15Xz/Ypr1bvdeiA1ue2Fv3fxYvfh9xXXnmldO7SKW3ibTcP3PWmsV/fvqlPOcsuSX2wq+dgJSb61k67X7dL+4GvPxa1iDG/gs/FtSDV87aeaW/a6Hl5LYxZ6kos5Kc+qBkzdrToJ7JlFzcFyy5dOssVV16Rdn0luUio55+k/DwQCiBW8tNK/2mh/7ISEwv9p4V48O+7lSikH4eV/EzSv2k2IxntUVkrgOgXHxdceIG0bfsradKkyX5DXqmO/u7717/+JaNGjg70AX1SCiCZfh/oPIeTJ02WV15Z6iqJ9EHdyFEj5fjj03+PF2+sc+vpvdKzzzzrqr3ilfR++pxzWkm1agfJ4sWLPW1bdmWnOTHL3qfPemi2zJkzx3f7bjZ0+rqu7HZu5wp1s6+K1sk0cX3xNu+8847069s/191UuL3T159lN9A5ZCZNmiQvveR+SGM/B2wlJuRnafTIz1IL8rPUwkqfUXxEFED89LjxbkMBJIv/jX+4UTp0aJ9WyNBNdMgj/QFXfo4BrVZ369Y19eVHQUFBWuteJ5Qr+6Nv4h0TpHnz5mntaRFE36aZcd9M2bBhQ8nf9EdimzaXyfU33CBHHPEf+20T1MR+caWuhZjUr19fxowZvd8bZPr58gsvvCAP3P9g2g2U3nx1uK5DarLBQw45JI3u+++/l+lFf5VFixbFRZrTfjXfLORnmzY6r8qf5OCDD047ny+++FJmz5olixY9k/ZJecOGDVOFxTPPPNPx+h44cJBoASWJS5Ly80AogGgOWclPC/2nlWvKQkys9J9WYmIhP5PUf4YdNyv5SUzCjnSw7UddANEvfl999VXZtevHkhOpUaOGNGhwtBx55JGpIZnKfiFc/mzDKn7ofpJSANFjzfT2udf7V30Br7BwiOh167So95dffiVvvfWWvPLyK/LPf/5zvzkn9IWmpk3/U0499VQ54cQTpE6dOqkYLlu2TIYWDvOVsJmKPGUbe/rpRamvx8NcunbrKtdcc3XGXWiRaNiw4bLqg1VhHsZ+Q7eU31kUhRin66PscejLo1EUpSzEhPxMz8DyD5bJz3j7DCv5aaXPKM5HCiCh/jMVSuMUQLKwVjRJnm6qb/3r5Gn6D3StWrVSD1/LFz50Pa/zdpQ/rIp+TOoPye93fi/bvtiWeriu/1WrVs3xzLz+iA0l63Js1EpMWrf+WeprDn2TuPyixSmdQO7LL79M5YXeiDndfGnsvMxVkSNdaJtbyU8d11ff8Cv75VXxSe/atUu+/fbb1H+1j6gtB1d3vlaTXpAqPt+k5OeBUgDRuFjITyv9Z2idkceGLcTESv/pkS6U1a3kZ1L6z1CCUK5RK/lJTKKIdjD7iLoAkstR6/3b4hcWy5Qpf/E174I+5P/Vr34pNQ89VBo1aihVqlSVypUrSd26dVO/RSsVVHL8van3j7pvvQ/QL/N/+GGX7N27RzZu/ES+3rEj9cb7+++/7+rUnB4U+ikUZPoyUo9z9qzZ8sgj7r+MyPTFu6sTqmAlP+dV3JybB3i5tO/23LI9bNf7FP0SSQtEYS7ZHjBv2bJVBg8e7HoOGD/Hmu1hprY5b958uTfkIcEsxIT8TM8g8rPUg/wstbDSZxQfEQUQPz1/vNtQAHHhn+1z3mxN6JtJ06YWyYsvvpht1Qr/XtHNn5uGV69enfpBldS32sueo5WYXH3N1am5Jw466CA3IUhbR296li9fLmPHjNvvzSfPjRnYwEJ+Znt4lo1Jb0j1Jk+/ksqHJQn5eSAVQKzkp5X+08I1ZiUmFvpPC/HQY7CSn0noP6OKmZX8JCZRRTy3/SShAKK/wT/++OPUV/Svv/667xN28zDGa+P6Nbke14IFC1xtGlQBRHd2wQUXpCakrl6jetq+/TwM1y+tdUjo/2z6n44vB7o6uXIr5VKgyDZ0iu5K598oKpru59Bcb5NtaJ+tW7fKkMGFqUnAw1w0NhdedGHGXaxdu1Zu6nGzr8Kg2+Nu/tPmMnRoYeplQadFr4WZM++XJ+Y/4bZJX+tZiAn5mR468rPUg/wstbDSZxQfEQUQX11urBtRAHHJrzfkt/fpnRoux+kLj0zNaLFB3yp6+623Xe6p4tVanN4i9cM002fFTltbmXguEIAyjViJiY7L2LlL54w/3pzOO9c3zoK2DKo9C/mpDzT1Grno4osqHPKg/Dlv375dZtw3Q5599rmgOEy0Yz0/D6QCiCaElfy00n9auEisxMRC/2khHnoMVvLTev8ZZbys5CcxiTLq/vZluQCiD1R1YuV5j89PDaeU65JvBRD1cCqo+P1iXf99/c1vfyPt2rX1dJ+UKS65FEC0TZ0v8IwzznBsXl+Cml40XXQYrDCX8847T3r1vi01OoDT8t5770vvXr1DLTzoftt3aJ96iS/T8HAv/c9LMnr0mDApUqMoTJg4QZo0aey4H703GzN6rOh8JGEuVmJCfpZGmfwstSA/Sy2s9BnFR0QBJMyeOZy2KYB4dP3FLy5OzeVwzDHHZCyE6I/EL774QpYsXiKzZz8c+Nv9Op/E73//u9QD3kxvTOhp6TBM+vbIgicWyPPPv+DxTJOzuoWYaEHqhhuuT018r/HJtBTfeD3y8JzQP22OK4JW8lNvSm/43Q2piRidhsQq9tEh7F579TV5+OFH8uLrKKe4W87PA60AUhwfK/lpof+Mq68qv18LMbHSf1qJiYX8tNx/Rh0nK/lJTKKOvLf9WSmA6NCn+p8OMbX2/9bKstdflxXLVwR6X5aPBZBTTj1FBg0amCpEl110Qmp9qc/PiAbad+g8iDoZvd5DVzQnS/ls0xh+8sknqS91FjyxMKdJ6nVortv73L7f/bPeu+sw0X379Au98KDnN3RYoZxzzjn7PUtQ46KiokhextIHiaNGj0zNW1p+0fkTx44dK//83396u/h9rK15oS8Slh9NQWOyZMkSGT9ugo9WvW9iISbkZ/qDbvKz1IP8LLWw0mfoEVEA8d7Xxr0FBRCfEdDPFFufe640adIkNclepUqVZdOnn6YmI39l6dJQx8sse8g6MfqZLc+QRo2Oldq1a8vu3T+KTlqmE6fpWzI698iBsliIiT5ob9HiNDmtRQtp3PhYqVnzUNE5JdavX5/6YR30jZf12FrIT72Ba9WqlRx/wvEl4zPrBIMffbRe3ljxZiouB8pCftqLtJX8tNB/WomOlZhY6D+txMRCftJ/pmeDhfwkJlau0PTjCLMAYvOMOSovAnrdnnjiiXLqqafIEbVrpwoiOoemLt9883VqHhR9Yey9d9+VjzduDPyeWu/du3TtLMcdd1zqBSmds3Hp0lflgfsfCLQ4VpGJ7ldfqLzkkl+kijH6sH/Dho/l0TmP5jQkm5c46LpamPrDH/8gOsyh/m99efLDDz+U++6dIToEVlTL2WefLdd1vE4aNvz3C6b65cdzzz0vjz36WCQFKT1PKzEhP0uzjvwstSA/03sjC30GBZCo/oUIdj8UQIL1pDUEEEAAAQQQQAABBBBA4IAUoAByQIadk0YAAQQQQOCAEuALkOSFmwJI8mLGESOAAAIIIIAAAggggAAC5gQogJgLCQeEAAIIIIAAAgELUAAJGDSC5iiARIDMLhBAAAEEEEAAAQQQQACBfBegAJLvEeb8EEAAAQQQQIACSPJygAJI8mLGESOAAAIIIIAAAggggAAC5gQogJgLCQeEAAIIIIAAAgELUAAJGDSC5iiARIDMLhBAAAEEEEAAAQQQQACBfBegAJLvEeb8EEAAAQQQQIACSPJygAJI8mLGESOAAAIIIIAAAggggAAC5gQogJgLCQeEAAIIIIAAAgELUAAJGDSC5iiARIDMLhBAAAEEEEAAAQQQQACBfBegAJLvEeb8EEAAAQQQQIACSPJygAJI8mLGESOAAAIIIIAAAggggAAC5gQogJgLCQeEAAIIIIAAAgELUAAJGDSC5iiARIDMLhBAAAEEEEAAAQQQQACBfBegAJLvEeb8EEAAAQQQQIACSPJygAJI8mLGESOAAAIIIIAAAggggAAC5gQogJgLCQeEAAIIIIAAAgELUAAJGDSC5iiARIDMLhBAAAEEEEAAAQQQQACBfBegAJLvEeb8EEAAAQQQQIACSPJygAJI8mLGESOAAAIIIIAAAggggAAC5gQogJgLCTb9vsEAACAASURBVAeEAAIIIIAAAgELUAAJGDSC5iiARIDMLhBAAAEEEEAAAQQQQACBfBc47LDDpF27tlLr8MNLTvWNFW/IihUr8v3UOT8EEEAAAQQQOEAELr30Eml63HElZ7tl82aZN2/+AXL2yTxNCiDJjBtHjQACCCCAAAIIIIAAAggggAACCCCAAAIIIIAAAhUIUAAhPRBAAAEEEEAAAQQQQAABBBBAAAEEEEAAAQQQQCDvBCiA5F1IOSEEEEAAAQQQQAABBBBAAAEEEEAAAQQQQAABBBCgAEIOIIAAAggggAACCCCAAAIIIIAAAggggAACCCCAQN4JUADJu5ByQggggAACCCCAAAIIIIAAAggggAACCCCAAAIIIEABhBxAAAEEEEAAAQQQQAABBBBAAAEEEEAAAQQQQACBvBOgAJJ3IeWEEEAAAQQQQAABBBBAAAEEEEAAAQQQQAABBBBAgAIIOYAAAggggAACCCCAAAIIIIAAAggggAACCCCAAAJ5J0ABJO9CygkhgAACCCCAAAIIIIAAAggggAACCCCAAAIIIIAABRByAAEEEEAAAQQQQAABBBBAAAEEEEAAAQQQQAABBPJOgAJI3oWUE0IAAQQQQAABBBBAAAEEEEAAAQQQQAABBBBAAAEKIOQAAggggAACCCCAAAIIIIAAAggggAACCCCAAAII5J0ABZC8CyknhAACCCCAAAIIIIAAAggggAACCCCAAAIIIIAAAhRAyAEEEEAAAQQQQAABBBBAAAEEEEAAAQQQQAABBBDIOwEKIHkXUk4IAQQQQAABBBBAAAEEEEAAAQQQQAABBBBAAAEEKICQAwgggAACCCCAAAIIIIAAAjkL1KtXV7p37y6169Qpaev5556XJ598Mue2aQABBBBAAAEEELAg0LlzJznl1FNLDmXDhg0yccJEC4fGMWQQoABCaiCAAAIIIIAAAggggAACCOQs0OjYRjJq1CjRQkjxMm/efLn3nntzbpsGEEAAAQQQQAABCwLDRwyTVq1alRzKmjVrpEf3mywcGsdAASTYHGjevLmc2fIMadasmdSseWiq8e+//17Wrv0/eX3ZcnnnnXeC3aFDa9WrV5eWZ7WUU045RRo3PlaqVKmaWmvbtm2y5sMP5fnnn5ctW7aGfhxWdmAhJocffniqE2z+0+bSoMHRUqlS5RTPpk8/lQ8++ECWLHlRvvrqKytkoR6HlfzUG/FzW7eWpscdJ7Vr106d8+7dP8q6devlnbffltdeWyZ79uwJ1cJK41by08K1aiUmVvKTmJRmhIWYWOk/rVwnFvLTSv9pISZW8pOYWMiG/Y+BAojNuHBUCCCAAAIIIBCcAAWQ4CyjaokvQDxIV65cWTpc10Hatv2VHHHEEVJQUJBx6+3bt8viFxbL3/72kOzcudPDXrKvWr9+fenUuZO0bHmm6E1opmXfvn3y8ccfy2OPPibPP/9C9oYTuIaVmDRp0kS6d/+TnHTySVK16r8LUU6LPmhftWq1zHpolrz11lsJFM9+yFby89LLLpWOHa+To446qsJrVa/Ppa8slVmzZsvmzZuzn2AC17CQn1auVSvhs5CfxCQ9GyzExEr/aeE6sZKfFvpPC/HQY7CSn8TESkY4HwcFENvx4egQQAABBBBAIHcBCiC5G0bdAgUQl+Innnii3NarpzRq1KjCh6nlm9v48UaZOm2avP3W2y73VPFqV119lfz2t7+RQw/991cnbhZ96L58+QqZMnlKXn19YCEm+oDmj53+KO3atZWDDjrITThS6/z444/y7LPPybSp0/Lq6wML+akPaHrf3lv+679+6ula/eKLL2XGfffJCy8sdh1H6ytayU8L16qVWFnJT2JSmhFWYmKh/7RynVjITyv9p5WYWMhPYmIlGyo+DgogyYgTR4kAAggggAAC/gUogPi3i2tLCiAu5Fuc3kJ69bpN6tYtHcvWxWYlq+iQR3f95S5ZuvRVL5vtt+6NN/5err7mak8P2osb0a9BVq1aJYVDhuZFEcRCTPRGvOdtPeXiiy8S/d9eF43Ja6+9JqNGjs6LIoiF/GzYsKEMHDRA9O1QP4sOY/fgAw/KE08s8LO5qW2s5KeFa9VKYKzkJzEpzQgrMbHQf1q5Tizkp5X+00pMLOQnMbGSDdmPgwJIdiPWQAABBBBAAIFkC1AASV78KIBkiZm+GTpmzGhpcEyD/dbUB9g6fM7WrVtl9+7dUq9ePalZs6bjW+c6tM6IESNlzYdrfGVJmzZtpHuPP8nBBx+83/b6hcfXX38tn332WervWqhx+hpBj3fZstdl5IiRiX7gbiUmN/7hRunQob1j8UPzQQtf27Z9IbVqHZYaMq1atWqOsXvqqf+WomlFvvLCykYW8lMfjky8Y4LoWPFOyw8//JC6VrXIceSRR6a+onIqXO3YsSP1tVSuBcu4Y2MhP61cq3HHQvdvJT+JSWk2WImJhf7TwjWix2AlPy30n1ZiYiU/iYmVjMh+HBRAshuxBgIIIIAAAggkW4ACSPLiRwEkS8z6D+gvF1zw87SiRvHcGg/9bZa8/PLLaS3oHBBdu3SRE086cb9CyOuvvy7Dh43wXHzI9EBAH7K/+eabMuO+mbJhw4aS49CHOm3aXCa/vf63JZM+F/9Rh1564P4HZN68+cnL1v9/xBZicsqpp8igQQNFJ+Asu+hD9sWLl6S+Iig72bnO1VI8f0z54cu++eYbmTxpsrzyytJExsRKfmZ6OLJt2zZ5ePbDsmjRM2nXnr753blLJznjjDOkSpUqafZaqBw4cFBiv5aykp8WrlUrF5WV/CQmpRlhISZW+k8r14mF/LTSf1qIiZX8JCYWssH9MVAAcW/FmggggAACCCCQTAEKIMmLGwWQCmLWqlUrub1P77T5NrT4oZNXTxg/MePDUS1A9Liph1x+eZu0N8z1zfPpRX+VRYsWecqUHj26S7tft5NKlSqVbKcP2ufPmy8PPvi3jG3pjevgIYOkWbNmaevovCT6cDeJEz5biUn5zk6BtZBxz1/vSc3tkWnRcc0HDOyfesu17LJy5Urpc3tfz8UxT4kU0soW8tPpZltPd+3atTJm9Ni0AmF5Bv2K5/obrk/7akq/qnrssbmpQlYSFwv5aeVatRA/K/lJTEqzwUpMLPSfFq4RPQYr+Wmh/7QSEyv5SUysZIS746AA4s6JtRBAAAEEEEAguQIUQJIXOwogFcRM3/A//+fnp62xadMmKSwcKh+t/6jCaGcaWuO9996X3r16u37QrQ/Kx40fKz/5yU9K9lc8d4R+TZJtcXprbu/evTJ37uNy/8z7s21u7u8WYnLaaael5pmoVatWiY8+MF+4YKHcc8+9Wc2chpPQgtb0ouny9NPeimNZdxbyClbyUyeib9/+2rQi4fbt2+WOiXfI8uUrsio4vXX86aefSv9+AxJXKLSSnxau1ayBj2gFK/lJTEoDbiEmVvrPiC6DrLuxkJ9W+s+sWBGsYCU/iUkEwQ54FxRAAgalOQQQQAABBBAwJ0ABxFxIsh4QBZAMRE2PayojRgyXOnXqlKyhQ07NnjVbHnlkTlZYXeG8886TXr1vkxo1apSs/91338mkOyfvN3RWpgbbd2gvOvlk2SF6dEifkSNHyXvvvufqOG79863yy19enjYk19q166Rvn76i8x0kZbESEyfP9evXS98+/VwPmTRm7OjU0EtlFx3ObOCAQUkJR+o4LeTnYYcdJhMmTpAmTRqX2GmR8JlnnpHJk6a48syUW/qF1dzH5rpqw8pKFvLTyrVqISZW8pOYlGaDlZhY6D8tXCN6DFby00L/aSUmVvKTmFjJCPfHQQHEvRVrIoAAAggggEAyBSiAJC9uFEAyxKxjx45yw++uTys8bNmyVQYPHpz164/iJvUrkDsn3SknnXRi2oPZf/zjabnrL3e5ypbxE8aJvv1Wdlm2bJkMLRzmantdyentOa+FGNc7C3FFCzHRB2ca00aNGqbF9In5T7j6+qN4Ix0erXuP7mnDLn3++eepr4t0/omkLBby8/zzz5NevXpJ9RrVS9h0OLJxY8fLihXZv/4o3sjp7eOkFaWs5KeFa9XKNWQlP4lJaUZYiYmF/tPKdWIhP630n1ZiYiE/iYmVbPB2HBRAvHmxNgIIIIAAAggkT4ACSPJiRgEkQ8ycxhv2WnjQpvXrjes6Xpc2NI8+4L7llluzDoPldAOhk5jrpOcLFizwlG2Tp0ySk08+OaeH9p52GMLKFmLSsmVL6T+gn9SsWTOnh+316tWVcePHydFHH13Sjt/YhkDtqkkr+dmtW1e56uqr0r5wcnuNlT3RSy+9RG6+5ea0opTXoqcruBBXspKfFq7VEJk9NW0lP4lJadgsxMRK/+kpmUNc2UJ+Wuk/Q2R23bSV/CQmrkNmakUKIKbCwcEggAACCCCAQAgCFEBCQA25SQogDsBOD6d1+KtZD82WOXPcDX9V3KzTzZvOTTB8+AhZ+a+VFYbX6YGsDn81bNhwWfXBKk+p4fTA591335Xbevby1E5cK1uJiVNB66OPNqTmdfE6nJjTA58li5fIuHHj42L2tF8r+Vm+uKcnoXOpTJnsbvir4pN2umHXuVmm3j21wontPaGFvLKF/LRyrYZM7bp5C/lJTNLDZSEmVvpP14kc4opW8tNC/xkis6emreQnMfEUNjMrUwAxEwoOBAEEEEAAAQRCEqAAEhJsiM1SAHHA1SGjhhQOTnvLX4eMGjtmrKsJlcs26XRjv2vXrtRwSU89+VSFoe3cuZNc2/7acnN3rJWbetyc9euR8g073cxu3rw5NefExo0bQ0yxYJq2EpPCoYXSuvXP0k5KJ9keMniI5xN1urFfvXq13HzTLZ7bimMDC/nZoEED0flUdLLW4kW/pJk5837RYcm8Lk5fSj0+93GZMWOm16ZiWd9Cflq5VmMJQLmdWslPYlIaGCsxsdB/WrhG9Bis5KeF/tNKTKzkJzGxkhHejoMCiDcv1kYAAQQQQACB5AlQAElezCiAOMSsbbu2ol9MVKtWreSvW7dulSGDC2XdunWeozx12t3SrFmztO3mzZsv995zb4VtBXnj5/SA4dtvv5VRI0fLW2+95fmcot7ASkycYrlwwUIpKprumcTpnJI05JKF/AzywZkG0Omc/Ax95zkZAtrAQn5auVYDIs2pGSv5SUxKw2glJhb6z5ySO8CNreSnhf4zQNacmrKSn8QkpzDGtjEFkNjo2TECCCCAAAIIRCRAASQi6AB3QwHEATPIT+61eb9jWwc1TIceQ5DjOQeYf66bshCTIIfp0BM//fTTZfCQQXLIIYeUOCSpKGUhP4McpkOD0LVbV7nmmqvT8nLNmjXSo/tNrnM1rhWt5KeFazWuGJTfr5X8JCalkbESEwv9p5XrxEJ+Wuk/rcTEQn4SEyvZ4P04KIB4N2MLBBBAAAEEEEiWAAWQZMVLj5YCiEPMevToLldceUVgD0GdHqpmG+qocuXKMq1oqjRp0iTtONx8OZIpDYumT5OmTZuW/Hnfvn2SlOF9LMSkcePGMnLUCKlbt26JYS4TlzvdILodHi3ursZKfurk5506/VGqVq1aQpLLVzRXXnmldO7SKa29pAwVZyU/LVyrcV8fxfu3kp/EpDQjLMTESv9p5TqxkJ9W+k8LMbGSn8TEQjb4OwYKIP7c2AoBBBBAAAEEkiNAASQ5sSo+UgogDjFz+mLD7zwP2ryft8ozfbHhd24DPY7yBRD9/3IpqESZ7hZi4vTFht+5YdQuyV/lWMlPp2tr7Vp/8+RoTJwKILkUVKK8Rqzkp4VrNUr3ivZlJT+JSWmULMTESv9p5TqxkJ9W+k8LMbGSn8TEQjb4OwYKIP7c2AoBBBBAAAEEkiNAASQ5saIAUkGs/A5ZlalJPw9Vw3g4HvR5RZnuQR+7n5iEMWRVUotSVvLTT3GxorwNI8ZRXSdhHLuf/LRwrUZlnm0/VvKTmFRcAMllmDs/152V/jNb/kb1dwv56SeO2Xz89J/Z2ozi71byk5hEEe1w9kEBJBxXWkUAAQQQQAABOwIUQOzEwu2R8AWIg5TTTWsuEyEH9bA9l+GW9DSDfsjgNsmCWM9CTJzimOucHUl9QOL0YCKO/HTK6agfZgaR30G0YSU/LVyrQXgG0YaV/CQmpdG0EBMr/WcQOR5EGxby00r/GYRnrm1YyU9ikmsk49ueAkh89uwZAQQQQAABBKIRoAASjXOQe6EAQgFEhhYOCzKnQmmLByShsPpu1MoDEgsPM30jBryhlYdFFq7VgGl9N2clP4kJBRDfSRzBhhby00r/GQF31l1Y+fedmGQNldkVKICYDQ0HhgACCCCAAAIBCVAACQgywmYogLgsgOQyV0ZQX4Dk+rVBvn0BEnVM/MQx27WcT1+AxJGfQed0GENuZMuBoP5uJT+Dzukwziso82ztWMlPYlJxASSXLzz99Bl+tok617LtL8i/W8jPMPqZoM8rSPOK2rKSn8QkqogHvx8KIMGb0iICCCCAAAII2BKgAGIrHm6OhgKIywLIwgULpahouhvT/dbxcxMX9OSPelBBP4zzheFzI6cHCVHHxCmOW7dulSGDC2XdunW+ziyfHpDkMiG83/wMevLcMB78+EoMHxtZyU8L16oPvlA2sZKfxKTiAsjy5StkyOAhvnLAT5/Bv+/p1Bby00r/6SsJA97ISn4Sk4ADG2FzFEAixGZXCCCAAAIIIBCLAAWQWNhz2ikFEJcFkFzeEA2qABLHHAs5ZVeAGzNERoCYATRlZYgMK0MMBUCacxNWhguxcK3mjBlQA1byk5hUXACJet4gK/1nQGmeczMW8tNK/5kzZgANWMlPYhJAMGNqggJITPDsFgEEEEAAAQQiE6AAEhl1YDuiAOJAOXXa3dKsWbO0v0RdADnttNNkSOFgqVmzZslxHMgFEAsxaduurXTr1lWqVatWEpNch31K6hcgVvKzcGihtG79s7RrNeqHmYH1xjk2ZCU/LVyrOVIGtrmV/CQmpSG1EBMr/WdgiZ5jQxby00r/mSNlIJtbyU9iEkg4Y2mEAkgs7OwUAQQQQAABBCIUoAASIXZAu6IA4gAZ9FBRfr4Acbp5OJALIBZi4meok2zXaVILIFbys2u3rnLNNVdTABERK/lp4VrNdt1F9Xcr+UlMSiNuISZW+s+oroNs+7GQn1b6z2xWUfzdSn4SkyiiHc4+KICE40qrCCCAAAIIIGBHgAKInVi4PRIKIC4LILmMEe70wGXt2rVyU4+bZc+ePY6xynQDOnPm/fLE/CfcxjdtvaDH2fZ1ED43CnosfT8xCXpc7DBi7JPX82ZhHLuf/PQTx4pONowxxz3j+tzASn5auFZ9Ega+mZX8JCYVF0Cy/XscdJ9hpf8MPOF9NmghP630nz4JA93MSn4Sk0DDGmljFEAi5WZnCCCAAAIIIBCDAAWQGNBz3CUFEAfAoN8QdWpv9erVcvNNt1QYvqC/Dijf3r59++TxuY/LjBkzc0yj8De3EJOg34p0am/Xrl1yzz33ylNPPhU+ao57sJCffr6u8vowc/PmzTJwwCDZuHFjjmLhbm4lPy1cq+FKu2/dSn4Sk9KYWYmJhf7TfSaHu6aF/LTSf4Yr7b51C/lJTNzHy9qaFECsRYTjQQABBBBAAIGgBSiABC0afnsUQByMO3bsKDf87nqpUqVKyV8/+miD9O7VW3bs2OE5Kn6Hdxg/YZzoWMxll6efXiRTJk/xfAxB30h6PoAcN7AQk8MOO0zunHSnNGrUsORsdu/eLbMemi1z5szxfIZhDO/g+SBy2MBCfp5//nnSq1cvqV6jesmZbNu2TYYNGy6rPljl+eyCfhDn+QBy2MBKflq4VnNgDHRTK/lJTErDaiUmFvrPQJM9h8Ys5KeV/jMHxkA3tZCfxCTQkEbaGAWQSLnZGQIIIIAAAgjEIEABJAb0HHdJAcQB8NJLL5Gbb7lZDjrooJK/bt26VYYMLpR169Z5Jnea4HPhgoVSVDS9wrb69+8nF150Ydo6foficprU8rvvvpOxY8aKtml9sRKTyVMmycknn5zG5SaWTr5OE3zmkmdRx9BCfjb/aXMZOrRQatWqVXL6ueS10wTJfq+5qOOh+7OQn1au1Tj8y+/TSn4Sk9LIWImJhf7TwjWix2AlPy30n1ZiYiU/iYmVjPB2HBRAvHmxNgIIIIAAAggkT4ACSPJiRgHEIWbHn3C8DBs2VGrXrl3y153f7ZRJkybJSy+97CnKDRo0kDFjR0v9+vVLttPJzN3M5RHkW5FJf9huJSY9b+spl1/eJi0H3nnnHenXt7+nvNCVO3fuJNe2v1YKCgpKts1lLHrPB5DjBhbyM+g3RP0WK3OkDGxzC/lp5VoNDDWHhqzkJzEpDaKVmFjoP3NI7UA3tZKfFvrPQGFzaMxKfhKTHIIY46YUQGLEZ9cIIIAAAgggEIkABZBImAPdCQUQB87KlSvLtKKp0qRJk5K/7t27Vx6d86g8+ODfPAWgZcuW0n9AP6lZs2bJdt98842MHDFK9MF5RctZZ7WUAQMHSI0aNUpW2759uwwfPkJW/mulp+Po1q2rXHX1VWkP293MQ+JpJyGubCUmatip0x+latWqJWf7ySefSP9+/WXLlq2eBJyGRlu69FUZMXyEp3biWtlKfo4cNVL0WMouSxYvkXHjxnuiSfqcLHqyFvLTyrXqKfghrmwhP4lJeoAtxMRK/xli6rtu2kp+Wug/XaOFvKKV/CQmIQc6pOYpgIQES7MIIIAAAgggYEaAAoiZULg+EAogGaicPv9ftmyZDC0c5hpXV7zxxt/LdR2vk0qVKpVs53Y+kXr16sq48ePk6KOPLtlWvx6Zcd9MWbBggafjcBpGwO98Ip52HODKFmLiNHyKFrTGjR0vK1a4H0rMKba5zCcSILPrpqzkp9M1tubDNXLLLbfKnj17XJ+P0zAsucwn4nrHAa5oJT8tXKsBsubUlJX8JCalYbQQEyv9Z07JHeDGFvLTSv8ZIKvvpqzkJzHxHcJYN6QAEis/O0cAAQQQQACBCAQogESAHPAuKIBkAHV6GPr5559LYeFQ0YerbhZ9q1EnzT7ppBPTVvfydrrTQ4E333xTBg4Y5OYQUuvo/B8DBw1Imyfhhx9+kKl3T5Vnn33OdTtxr2glJuWLSfv27ZN//ONpuesvd7km0mG0uvfonjbPjN+ve1zvNIQVLeRnpjH9J905WV5+2f2QdYMGDZTzf35+mtK7774rt/XsFYJceE1ayE8r12p4yu5btpKfxKQ0ZlZiYqH/dJ/J4a5pJT8t9J/hSrtv3Up+EhP3MbOypqUCiB5Lndp1RL/k13kcv/rqq1iYmjVrJoceeqjs3rNbVq9aLTt37oz8OA4//HBp3Lhx6qW8z7d9Lh+t/yjyY9AdWrCoXr26NDu+mVSpXEW+/vpr0VER4ljIz1J1K/lpISbkZ/rVaKHPID9LY2IlPy3EhAJIHP9y5rZPCiAZ/JzeftO3yR97bK48+MCDrtQvuOAC6dnzz1K9RvWS9b0WHpweCuiP99Gjx8g///efro7jtl495bLLLksb/srvsE2udhjSSlZi4vT28MaPN8rAgYNk8+bNWc9eC2OjR4+SFqe3SPzDdiv56fSA5MUX/0fGjR2XNR66wkknnyRDhgxOm/fH77B3rnYY4koW8tPKtRois6emLeQnMUkPmYWYWOk/PSVzSCtbyU8L/WdIxJ6btZKfxMRz6GLfwEIBRH9j9+jRXY455piS+x/9in7p0qUyYfxET18I5wJ68cUXSafOndLnldy5U5568imZMWNmLk273lYfEun9aMuzWkqVKlVS2+nLW1oQuuOOO12/2Od6hxlWtGCh92A9buohl1zyi5KX0NTis88+k7vvuluWL3f/NX8uHuRnqZ6V/LQQE/Iz/aqy0GeQn6UxsZKfVmKiMhRAcvmXMJ5tKYBU4H7rn2+VX/7y8rTCgT7gHjFiZNYfizrR6qjRI+WEE05I28Pateukb5++smPHDlcR13YmTJwgTZo0Lllff6gtW/a6jBwxMusPeB3H+fY+t6d9/eHniwVXBxvBShZi0vS4pjJixHCpU6dOyRlrceypp/5biqYVZVX49a/bSecundO+/tDhr3R+mbmPzc26vaUVrORn+w7tU8PNFd/YqZFeY1MmTxGdVyXbMnRYoZxzzjlp17rXL76y7SOqv1vJTwvXalTm2fZjJT+JSWmkLMTESv+ZLX+j+ruF/LTSf0ZlXtF+rOQnMbGQDd6OIe4CiD4cmTBxvBx77LH7Hbj+Xl+4YKHcc8+93k7Kx9pOL9cUN6MvxM24b4b8/e9P+mjZ2yZOL8IVt/DBBx/I4EFDXN+Xettz6dpWLH7zm45y/Q3Xp90vFB/lpk2bUiM9hP1lDPmZnkUW8tNKTMhPe30G+VkaEwv5qUdjISbFKhRA/P4qiG87CiAV2Dv9gNfVV61aLUMGD8n4GbVWR3XogNbnthb938WL34fcV155pXTu0ilt4m03D9z1prFf376i51F2SeqDXT0HKzHRt8ra/bpd2twuejOjRYz58+ZnzCotSPW8rWfam2C6stfCWHxdxv57tpCf+qBmzNjRqc/qyy5uCpZdunSWK668Iu36SnKRUM/fQn5auVYtXCtW8pOYlGaDlZhY6D8tXCP8+24lCunHYSU/LfybZjNCNo8q7gKI09dLZaXczsWYq67T10tl23znnXekX9/+ue6mwu2dvq4ru8HO73bKpEmT5KWX3A8Z6+eALVjocTvNiVn2Pn3WQ7Nlzpw5fk7R9TbkZymVlfy0EhPyszQ3LPQZ5Gd6t2YhP63EpFiGAojrf/rMrEgBJEsobvzDjdKhQ/u0QoZuokMe6cPu8nMM6Bsu3bp1TX35UVBQkNb6ypUrpc/tfbN+tVH+kLSIMvGOCdK8efO0P2kR5I033khNir5hw4aSv+n6bdpcJtffcIMcGrBzWgAAIABJREFUccR/7LeNl2G8zGRqmQOxEJP69evLmDGjpcExDdKI9PP6F154QR64/8G0ApmOldjhug6iX38ccsghadt8//33Mr3or7Jo0SKL3FmPyUp+tmmj86r8SQ4++OC0Y/7iiy9l9qxZsmjRM2nXXsOGDVOFxTPPPNPx+nY7pFlWoBhWsJKfFq7VGPgdd2klP4lJaXgsxMRK/2nlOrGQn1b6TwsxsZKfxMRCNrg/hrgLIF27dZVrrrk64wFv27ZNhg0bLqs+WOX+pHysWf7BSPkmoijEnH766TJ4yKD97j2Kj0Vfzoviob8Fi0wvgZSNy9NPL0p9PR7mQn6W6lrJTwsxIT/TrzoLfQb5WRoTK/lpJSbFMhRAwvzXMpy2KYBkcdWbvyGFQ6RVq7P3K2jopvrWv06epj8ga9WqlXr4Wr7woet5nbej/GHp1xyFhUNEbwLLL/q2+vc7v5dtX2xL/cDV/6pVq+Z4Zn6LMOGkn79WrcSkdeufpb7m0DeJyy9anNIJDr/88stUXtSoUcPxc2uNnZe5KvyJhb+VlfzUcX3btv3VfgUNFdi1a5d8++23qf9qH1FbDq7ufK0mvSBVHG0L+WnlWg3/CnC3Bwv5SUzSY2UhJlb6T3dZHO5aVvLTQv8ZrrT71q3kJzFxH7O417ReANHfgaNGjpa33norVKpsD/C2bNkqgwcPDnXIpWwPixRg3rz5cm/IQ4JZsHDzAG/ZsmUytHBYqHmR7WE7+ZnOH0V+WogJ+Zkedwt9hpX+k/wszQ0rMSk+Igogof5zGUrjFEBcsOq4kCNHjZTjj08fXsfFpqlVdC6CaVOL5MUXX3S7ieN6Fd38uWl49erVqR/8bibqdtNenOtYicnV11ydmnvioIMO8syhxY/ly5fL2DHjUsWSpC8W8jPbw7NsxlrQnD1rtuhXUvmwWMhPK9eqhXhayU9iUpoNVmJiof+0cI3oMVjJTwv9p5WYWMlPYmIlIyo+jrgLINmGTtm6dasMGVyYmgQ8zEWHQ77wogsz7mLt2rVyU4+bPY8M4OWYm/+0uQwdWpg2F2TZ7fXL9Zkz75cn5j/hpVnP61qwyDZ0ip6Uzg9TVDTd8/l52YD8LNWykp8WYkJ+pl9FFvoM8rM0Jlby00pMimUogHj518/GuhRAXMZBb8hv79M7NVyO0xcemZrRYsOUKX+Rt9962+WeKl6txektpGfPPzt+CZJpS33QrkNl3THxzozzlgRycBE3YiUmOm6oTmquX3q4XfSLocUvLE7lhn4tki+LhfzUB5p6jVx08UWOX91kst6+fXtqQspnn30uX8KROg8L+WnlWrUQWCv5SUxKs8FKTCz0nxauET0GK/lpof+0EhMr+UlMrGRE5uOIuwBy3nnnSa/et6W+vnZa3nvvfendq3fov7/bd2ifekmqSpUqjsfx0v+8JKNHjwk1oPqV+oSJE6RJk8aO+9HfvmNGjxWdjyTMxYKFnp/OF3jGGWc4nqq+BDW9aLroMFhhLuRnqa6V/LQSE/KzNDcs9BnkZ3pPaCE/rcSkWIYCSJj/WobTNgUQj66/+MXFqbkcjjnmmIyFEC04fPHFF7Jk8RKZPfvhwN/u1/kkfv/736Ue8Fb00F0frOvbTQueWCDPP/+CxzNNzuoWYqJDk91ww/Wpie81PpkWfdPqgw8+kEcenhP6p/dxRdBKfuonkjf87obUl1v6gDPTokPYvfbqa/Lww4/kxddRTudpJT8tXKtxXRfl92slP4lJaWQsxMRK/2nlOrGQn1b6TwsxsZKfxMRCNmQ+hrgLIHpkQ4cVyjnnnLPfvZpO+l1UVBTJyy76oGbU6JGpeSHLLzo/3dixY+Wf//vP0IOp8w/qi1rlv1bX+9UlS5bI+HETQj8GKxZnndVSbu9z+373z2qhw0T37dMv9MIY+Zmebhby00pMyM/04hj9Z6mHhX/TrOSnlT5Do0MBJPSfD4HvgAKIT1L9DKz1uedKkyZNpEGDo6VSpcqy6dNPU5ORv7J0aajjuZY9ZJ0Y/cyWZ0ijRsdK7dq1ZffuH0Un1dOJ/XQcU5175EBZLMREH7S3aHGanNaihTRufKzUrHmo6JwS69evT/2wXrF8ReAFMcvxtZCf+iZxq1at5PgTjpdGjRpKlSpVRSfA/Oij9fLGijdTcTlQFiv5aeFatRJzK/lJTEozwkpMLPSfVq4TC/lppf+0EhML+UlMrGRD+nFYKIBobugLa5dc8ovUw259wL1hw8fy6JxH5fXXX48MTouGf/jjH0SHkdP/rS+nffjhh3LfvTNEh8CKajn77LPluo7XScOG/36BT7/8eO655+WxRx+L5IG/nqcVC71379K1sxx33HGpF6R0GOKlS1+VB+5/ILJ7NPIzPfMt5KeVmJCfpblhpc8gP0tjYiE/9WgsxIQCSFS/YILdDwWQYD1pDQEEEEAAAQQQQAABBBA4IAUsFEAOSHhOGgEEEEAAAQQiE+ALkMioA9sRBZDAKGkIAQQQQAABBBBAAAEEEDhwBSiAHLix58wRQAABBBA4UAQogCQv0hRAkhczjhgBBBBAAAEEEEAAAQQQMCdAAcRcSDggBBBAAAEEEAhYgAJIwKARNEcBJAJkdoEAAggggAACCCCAAAII5LsABZB8jzDnhwACCCCAAAIUQJKXAxRAkhczjhgBBBBAAAEEEEAAAQQQMCdAAcRcSDggBBBAAAEEEAhYgAJIwKARNEcBJAJkdoEAAggggAACCCCAAAII5LsABZB8jzDnhwACCCCAAAIUQJKXAxRAkhczjhgBBBBAAAEEEEAAAQQQMCdAAcRcSDggBBBAAAEEEAhYgAJIwKARNEcBJAJkdoEAAggggAACCCCAAAII5LsABZB8jzDnhwACCCCAAAIUQJKXAxRAkhczjhgBBBBAAAEEEEAAAQQQMCdAAcRcSDggBBBAAAEEEAhYgAJIwKARNEcBJAJkdoEAAggggAACCCCAAAII5LsABZB8jzDnhwACCCCAAAIUQJKXAxRAkhczjhgBBBBAAAEEEEAAAQQQMCdAAcRcSDggBBBAAAEEEAhYgAJIwKARNEcBJAJkdoEAAggggAACCCCAAAII5LsABZB8jzDnhwACCCCAAAIUQJKXAxRAkhczjhgBBBBAAAEEEEAAAQQQMCdw2GGHSbt2baXW4YeXHNsbK96QFStWmDtWDggBBBBAAAEEEPAjcOmll0jT444r2XTL5s0yb958P02xTUQCFEAigmY3CCCAAAIIIIAAAggggAACCCCAAAIIIIAAAgggEJ0ABZDorNkTAggggAACCCCAAAIIIIAAAggggAACCCCAAAIIRCRAASQiaHaDAAIIIIAAAggggAACCCCAAAIIIIAAAggggAAC0QlQAInOmj0hgAACCCCAAAIIIIAAAggggAACCCCAAAIIIIBARAIUQCKCZjcIIIAAAggggAACCCCAAAIIIIAAAggggAACCCAQnQAFkOis2RMCCCCAAAIIIIAAAggggAACCCCAAAIIIIAAAghEJEABJCJodoMAAggggAACCCCAAAIIIIAAAggggAACCCCAAALRCVAAic6aPSGAAAIIIIAAAggggAACCCCAAAIIIIAAAggggEBEAhRAIoJmNwgggAACCCCAAAIIIIAAAggggAACCCCAAAIIIBCdAAWQ6KzZEwIIIIAAAggggAACCCCAAAIIIIAAAggggAACCEQkQAEkIuj/x955QEtRZP//ChhABAUMK0haBAkuigiCCCImUBAkiYKrxCWoBMnvPeCRQYKEhwEQRSVIcMWEJFGWHNYVUJAfeUEQVEDFVcD/ue1/5k3Pq5nOPbdnvn2OR86b6qrqz71d3V3fqnvRDAiAAAiAAAiAAAiAAAiAAAiAAAiAAAiAAAiAAAiAAAiAgH8EIID4xxotgQAIgAAIgAAIgAAIgAAIgAAIgAAIgAAIgAAIgAAIgAAI+EQAAohPoNEMCIAACIAACIAACIAACIAACIAACIAACIAACIAACIAACICAfwQggPjHGi2BAAiAAAiAAAiAAAiAAAiAAAiAAAiAAAiAAAiAAAiAAAj4RAACiE+g0QwIgAAIgAAIgAAIgAAIgAAIgAAIgAAIgAAIgAAIgAAIgIB/BCCA+McaLYEACIAACIAACIAACIAACIAACIAACIAACIAACIAACIAACPhEAAKIT6DRDAiAAAiAAAiAAAiAAAiAAAiAAAiAAAiAAAiAAAiAAAiAgH8EIID4xxotgQAIgAAIgAAIgAAIgAAIgAAIgAAIgAAIgAAIgAAIgAAI+EQAAohPoNEMCIAACIAACIAACIAACIAACIAACIAACIAACIAACIAACICAfwQggPjHGi2BAAiAAAiAAAiAAAiAAAiAQNISuPbaa6hz585UuEiR8DUu+2QZvffee0l7zbgwEAABEAABEACB1CLQvn07qnzLLeGLPnjwII0dMza1IATsaiGABMxg6C4IgAAIgAAIgAAIgAAIgAAISCRQomQJGjZsGLEQEjoWLFhIr7z8isTuok8gAAIgAAIgAAIgYJnAkMzBVKNGjfB5e/bsoS6du1quByf4RwACiE3WlSpVoturVaWyZctS/vxXaLX8+uuvtHfv/9H6dRto27ZtNms2f1revHmpWvVqVLlyZSpVqiTlyXOxdvLJkydpzzff0LJly+jYsePmKwx4SQk2ufLKK7VBsNLNlahYsaKUK1dujerRI0fo66+/ppUrV9GPP/4YcNLmui/FP/lD/K5atajMjTdS4cKFtc6fO/c77du3n7Zt3Upr166j8+fPm7uogJeS4p8S7lUpppTin7BJtkdIsImU8VPKfSLBP6WMnxJsIsU/YRMJ3pCzDxBAZNoFvQIBEAABEAABEHCPAAQQ91j6VRMEEAukc+fOTS0fa0kNGz5MhQoVoosuuijm2adOnaIVy1fQ66+/QWfPnrXQinHR6667jtq1b0fVqt1O/BEa6/jjjz/o0KFDNG/uPFq2bLlxxQEsIcUmpUuXps6d/0EVKlagiy/+U4hSHTzRvmvXbpr9xmzasmVLAIkbd1mKfz7w4APUqtVj9Je//CXuvcr355rP19Ds2W/St99+a3yBASwhwT+l3KtSzCfBP2ETvTdIsImU8VPCfSLFPyWMnxLswX2Q4p+wiRSPUPcDAohs+6B3IAACIAACIAACzglAAHHO0O8aIICYJF6+fHnq0bM7lShRIu5kanR1hw8dpilTp9LWLVtNthS/2KNNH6Unnnicrrjiz10nZg6edN+wYSNNnDAxqXYfSLAJT9C0bdeWGjVqSJdeeqkZc2hlfv/9d1q69BOaOmVqUu0+kOCfPEHT6/le9Le/3WzpXv3++x9o+quv0vLlK0zbUXpBKf4p4V6VYisp/gmbZHuEFJtIGD+l3CcS/FPK+CnFJhL8EzaR4g3x+wEBJBh2Qi9BAARAAARAAATsE4AAYp9dos6EAGKCfJXbqlDPnj3ommuyY9maOC1chEMeTXpxEq1Z8y8rp+Uo+9RTf6emzZpammgPVcK7QXbt2kUZ6YOSQgSRYBP+EO/eozvde2894n9bPdgma9eupWFDhyeFCCLBP4sXL04DBvYnXh1q5+AwdrNem0WLFi22c7qoc6T4p4R7VYphpPgnbJLtEVJsImH8lHKfSPBPKeOnFJtI8E/YRIo3GPcDAogxI5QAARAAARAAARAINgEIIMGzHwQQA5vxytARI4ZTsRuK5SjJE9gcPuf48eN07tw5uvbaayl//vzKVeccWiczcyjt+WaPLS+pX78+de7yD7rssstynM87PM6cOUPfffed9jsLNardCNzfdevW09DMoYGecJdik6eefopatmyhFD/YH1j4OnnyeypYsIAWMu2SSy5R2m7Jkvcpa2qWLb+QcpIE/+TJkbEvjCGOFa86/ve//2n3KoscV199tbaLSiVcnT59Wtst5VSwTLRtJPinlHs10bbg9qX4J2yS7Q1SbCJh/JRwj3AfpPinhPFTik2k+CdsIsUjjPsBAcSYEUqAAAiAAAiAAAgEmwAEkODZDwKIgc369e9HdeverRM1Qrk13nh9Nn322We6GjgHRMcOHah8hfI5hJD169fTkMGZlsWHWBMCPMm+efNmmv7qDDp48GC4HzypU7/+g/RE6yfCSZ9DP3LopddmvkYLFiwMnrf+/x5LsEnlWyrTwIEDiBNwRh48yb5ixUptF0FksnPO1RLKHxMdvuynn36iCeMn0OefrwmkTaT4Z6zJkZMnT9Jbb75FH330se7e45Xf7Tu0o6pVq1KePHl07FmoHDBgYGB3S0nxTwn3qpSbSop/wibZHiHBJlLGTyn3iQT/lDJ+SrCJFP+ETSR4g/k+QAAxzwolQQAEQAAEQAAEgkkAAkjw7AYBJI7NatSoQc/37qXLt8HiByevHjN6bMzJURYgunTtQg0a1NetMOeV59OyXqKPPvrIkqd06dKZGj3SiHLlyhU+jyfaFy5YSLNmvR6zLv5wTUsfSGXLltWV4bwkPLkbxITPUmwSPdgxYBYyXn7pZS23R6yD45r3H9BPW+UaeWzfvp16P9/HsjhmyZE8KizBP1Uf23y5e/fupRHDR+oEwmgMvIundZvWul1TvKtq3rz5mpAVxEOCf0q5VyXYT4p/wibZ3iDFJhLGTwn3CPdBin9KGD+l2ESKf8ImUjzCXD8ggJjjhFIgAAIgAAIgAALBJQABJHi2gwASx2a8wr/O3XV0JY4ePUoZGYPowP4Dca0dK7TGzp1fUa+evUxPdPNE+ajRI+n6668PtxfKHcG7SYwO1aq5Cxcu0Pz579DMGTONThf3uwSb3HrrrVqeiYIFC4b58IT5u4vfpZdffsWQmSqcBAta07Km0YcfWhPHDBvzuIAU/+RE9C1aNNeJhKdOnaIXxr5AGzZsNKSgWnV85MgR6te3f+CEQin+KeFeNTS8TwWk+Cdskm1wCTaRMn76dBsYNiPBP6WMn4awfCggxT9hEx+M7XITEEBcBorqQAAEQAAEQAAExBGAACLOJIYdggASA1GZG8tQZuYQKlKkSLgEh5x6c/ab9PbbcwzBcoHatWtTz149KF++fOHyv/zyC40fNyFH6KxYFbZo2YI4+WRkiB4O6TN06DDauWOnqX48+9yz9NBDDXQhufbu3Ud9evchzncQlEOKTVQ89+/fT3169zUdMmnEyOFa6KXIg8OZDeg/MCjm0PopwT8LFChAY8aOodKlS4XZsUj48ccf04TxE03xjOVbvMNq/rz5puqQUkiCf0q5VyXYRIp/wibZ3iDFJhLGTwn3CPdBin9KGD+l2ESKf8ImUjzCfD8ggJhnhZIgAAIgAAIgAALBJAABJHh2gwASw2atWrWiNk+21gkPx44dp7S0NMPdH6EqeRfIuPHjqEKF8rqJ2Q8++JAmvTjJlLeMHjOKePVb5LFu3ToalDHY1PlcSLV6zqoQY7oxDwtKsAlPnLFNS5QorrPpooWLTO3+CJ3E4dE6d+msC7t04sQJbXcR558IyiHBP+vUqU09e/akvPnyhrFxOLJRI0fTxo3Guz9CJ6lWHwdNlJLinxLuVSn3kBT/hE2yPUKKTSSMn1LuEwn+KWX8lGITCf4Jm0jxBmv9gABijRdKgwAIgAAIgAAIBI8ABJDg2QwCSAybqeINWxUeuGrevfFYq8d0oXl4gvuZZ541DIOl+oDgJOac9Hzx4sWWvG3CxPFUsWJFR5P2lhr0oLAEm1SrVo369e9L+fPndzTZfu2119Co0aOoaNGi4Xrs2tYD1KaqlOKfnTp1pEebPqrb4WT2Hou80AceuJ+6PdNNJ0pZFT1NgfOwkBT/lHCveojZUtVS/BM2yTabBJtIGT8tObOHhSX4p5Tx00PMpquW4p+wiWmTiSoIAUSUOdAZEAABEAABEAABDwhAAPEAqsdVQgBRAFZNTnP4q9lvvElz5pgLfxWqVvXxxrkJhgzJpO1fbo9rXtWELIe/Gjx4CO36epcl11BN+OzYsYN6dO9pqZ5EFZZiE5WgdeDAQS2vi9VwYqoJn5UrVtKoUaMThdlSu1L8M1rc44vgXCoTJ5gLfxW6aNUHO+dmmTJ5StzE9pageVxYgn9KuVc9Rm26egn+CZvozSXBJlLGT9OO7GFBKf4pYfz0ELOlqqX4J2xiyWxiCkMAEWMKdAQEQAAEQAAEQMAjAhBAPALrYbUQQBRwOWRUekaabpU/h4waOWKkqYTKkVWqPux/++03LVzSkveWxDVt+/btqHmL5lG5O/ZS1y7dDHePRFes+pj99ttvtZwThw8f9tDF3Klaik0yBmVQrVp36i6Kk2ynp6VbvlDVh/3u3bupW9dnLNeViBMk+GexYsWI86lwstbQwTtpZsyYSRyWzOqh2in1zvx3aPr0GVarSkh5Cf4p5V5NiAGiGpXin7BJtmGk2ETC+CnhHuE+SPFPCeOnFJtI8U/YRIpHWOsHBBBrvFAaBEAABEAABEAgeAQggATPZhBAFDZr2Kgh8Y6JSy65JPzr8ePHKT0tg/bt22fZylOmTqayZcvqzluwYCG98vIrcety88NPNcHw888/07Chw2nLli2Wr8nvE6TYRGXLdxe/S1lZ0ywjUV1TkEIuSfBPNyfO2ICqa7IT+s6yM7h0ggT/lHKvuoTUUTVS/BM2yTajFJtIGD8dObeLJ0vxTwnjp4tYHVUlxT9hE0dmTNjJEEAShh4NgwAIgAAIgAAI+EQAAohPoF1sBgKIAqabW+65eruxrd0K08F9cDOes4v+Z7oqCTZxM0wHX/htt91GaekD6fLLLw9zCJIoJcE/3QzTwUbo2KkjNWvWVOeXe/bsoS6du5r21UQVlOKfEu7VRNkgul0p/gmbZFtGik0kjJ9S7hMJ/ill/JRiEwn+CZtI8Qbr/YAAYp0ZzgABEAABEAABEAgWAQggwbIX9xYCiMJmXbp0psZNGrs2CaqaVDUKdZQ7d26amjWFSpcureuHmZ0jsdwwa9pUKlOmTPjnP/74g4IS3keCTUqVKkVDh2XSNddcE2boJHG56gPRbHi0RA81UvyTk5+3a9eWLr744jASJ7tomjRpQu07tNPVF5RQcVL8U8K9muj7I9S+FP+ETbI9QoJNpIyfUu4TCf4pZfyUYBMp/gmbSPAGe32AAGKPG84CARAAARAAARAIDgEIIMGxVainEEAUNlPt2LCb54Grt7OqPNaODbu5Dbgf0QII/82JoOKnu0uwiWrHht3cMMwuyLtypPin6t7au9denhy2iUoAcSKo+HmPSPFPCfeqn9zjtSXFP2GTbCtJsImU8VPKfSLBP6WMnxJsIsU/YRMJ3mCvDxBA7HHDWSAAAiAAAiAAAsEhAAEkOLaCABLHVnZDVsWq0s6kqheT425fl5/u7nbf7djEi5BVQRWlpPinHXExnt96YWO/7hMv+m7HPyXcq34xN2pHin/CJvEFECdh7uzcd1LGTyP/9et3Cf5px45GfOyMn0Z1+vG7FP+ETfywtjdtQADxhitqBQEQAAEQAAEQkEMAAogcW5jtCXaAKEipPlqdJEJ2a7LdSbglvky3JxnMOpkb5STYRGVHpzk7gjpBopqYSIR/qnza78lMN/zbjTqk+KeEe9UNnm7UIcU/YZNsa0qwiZTx0w0fd6MOCf4pZfx0g6fTOqT4J2zi1JKJOx8CSOLYo2UQAAEQAAEQAAF/CEAA8Yezm61AAIEAQoMyBrvpU57UhQkST7DarlTKBImEyUzbEF0+UcpkkYR71WW0tquT4p+wCQQQ207sw4kS/FPK+OkDbsMmpDzfYRNDU4ktAAFErGnQMRAAARAAARAAAZcIQABxCaSP1UAAMSmAOMmV4dYOEKe7DZJtB4jfNrFjR6N7OZl2gCTCP932aS9Cbhj5gFu/S/FPt33ai+tyi7lRPVL8EzaJL4A42eFpZ8ywc47fvmbUnpu/S/BPL8YZt6/LTebx6pLin7CJXxZ3vx0IIO4zRY0gAAIgAAIgAAKyCEAAkWUPM72BAGJSAHl38buUlTXNDNMcZex8xLmd/JE75fZknC0YNk9STST4bROVHY8fP07paRm0b98+W1eWTBMkThLC2/VPt5PnejHxY8sxbJwkxT8l3Ks28HlyihT/hE3iCyAbNmyk9LR0Wz5gZ8zA812PWoJ/Shk/bTmhyydJ8U/YxGXD+lgdBBAfYaMpEAABEAABEACBhBCAAJIQ7I4ahQBiUgBxskLULQEkETkWHHmXiycjRIaLMF2oSkqIDCkhhlxA6rgKKeFCJNyrjmG6VIEU/4RN4gsgfucNkjJ+uuTmjquR4J9Sxk/HMF2oQIp/wiYuGDNBVUAASRB4NAsCIAACIAACIOAbAQggvqF2rSEIIAqUU6ZOprJly+p+8VsAufXWWyk9I43y588f7kcqCyASbNKwUUPq1KkjXXLJJWGbOA37FNQdIFL8M2NQBtWqdafuXvV7MtO10dhhRVL8U8K96hCla6dL8U/YJNukEmwiZfx0zdEdViTBP6WMnw5RunK6FP+ETVwxZ0IqgQCSEOxoFARAAARAAARAwEcCEEB8hO1SUxBAFCDdDhVlZweI6uMhlQUQCTaxE+rE6D4NqgAixT87dupIzZo1hQBCRFL8U8K9anTf+fW7FP+ETbItLsEmUsZPv+4Do3Yk+KeU8dOIlR+/S/FP2MQPa3vTBgQQb7iiVhAAARAAARAAATkEIIDIsYXZnkAAMSmAOIkRrppw2bt3L3Xt0o3Onz+vtFWsD9AZM2bSooWLzNpXV87tONu2OmHzJLdj6duxidtxsb2wsU28lk/zou92/NOOHeNdrBcxxy3DtXmCFP+UcK/aROj6aVL8EzaJL4AYPY/dHjOkjJ+uO7zNCiX4p5Tx0yZCV0+T4p+wiatm9bUyCCC+4kZjIAACIAACIAACCSAAASQB0B02CQFEAdDtFaKq+nbv3k3duj4T13xu7w6sHjfPAAAgAElEQVSIru+PP/6gd+a/Q9Onz3DoRt6fLsEmbq+KVNX322+/0csvv0JL3lviPVSHLUjwTzu7q6xOZn777bc0oP9AOnz4sENi3p4uxT8l3KvekjZfuxT/hE2ybSbFJhLGT/Oe7G1JCf4pZfz0lrT52iX4J2xi3l7SSkIAkWYR9AcEQAAEQAAEQMBtAhBA3CbqfX0QQBSMW7VqRW2ebE158uQJ/3rgwEHq1bMXnT592rJV7IZ3GD1mFHEs5sjjww8/ookTJlrug9sfkpY74PAECTYpUKAAjRs/jkqUKB6+mnPnztHsN96kOXPmWL5CL8I7WO6EgxMk+GedOrWpZ8+elDdf3vCVnDx5kgYPHkK7vt5l+ercnoiz3AEHJ0jxTwn3qgOMrp4qxT9hk2yzSrGJhPHTVWd3UJkE/5QyfjrA6OqpEvwTNnHVpL5WBgHEV9xoDARAAARAAARAIAEEIIAkALrDJiGAKAA+8MD91O2ZbnTppZeGfz1+/Dilp2XQvn37LCNXJfh8d/G7lJU1LW5d/fr1pXvq3aMrYzcUlyqp5S+//EIjR4wkrlP6IcUmEyaOp4oVK+pwmbGliq8qwacTP/PbhhL8s9LNlWjQoAwqWLBg+PKd+LUqQbLde85ve3B7EvxTyr2aCP7RbUrxT9gk2zJSbCJh/JRwj3AfpPinhPFTik2k+CdsIsUjrPUDAog1XigNAiAAAiAAAiAQPAIQQIJnMwggCpuVu6kcDR48iAoXLhz+9ewvZ2n8+PG0evVnlqxcrFgxGjFyOF133XXh8ziZuZlcHm6uigz6ZLsUm3Tv0Z0aNKiv84Ft27ZR3z79LPkFF27fvh01b9GcLrroovC5TmLRW+6AwxMk+KfbK0TtipUOUbp2ugT/lHKvugbVQUVS/BM2yTaiFJtIGD8duLarp0rxTwnjp6tgHVQmxT9hEwdGTOCpEEASCB9NgwAIgAAIgAAI+EIAAogvmF1tBAKIAmfu3LlpatYUKl26dPjXCxcu0Nw5c2nWrNctGaBatWrUr39fyp8/f/i8n376iYZmDiOeOI93VK9ejfoP6E/58uULFzt16hQNGZJJ27/cbqkfnTp1pEebPqqbbDeTh8RSIx4WlmITZtiuXVu6+OKLw1f73//+l/r17UfHjh23REAVGm3Nmn9R5pBMS/UkqrAU/xw6bChxXyKPlStW0qhRoy2hCXpOFr5YCf4p5V61ZHwPC0vwT9hEb2AJNpEyfnro+qarluKfEsZP09A8LijFP2ETjw3tUfUQQDwCi2pBAARAAARAAATEEIAAIsYUpjsCASQGKtX2/3Xr1tGgjMGm4XLBp576Oz3W6jHKlStX+Dyz+USuvfYaGjV6FBUtWjR8Lu8emf7qDFq8eLGlfqjCCNjNJ2KpYRcLS7CJKnwKC1qjRo6mjRvNhxJT2dZJPhEXMZuuSop/qu6xPd/soWeeeZbOnz9v+npUYVic5BMx3bCLBaX4p4R71UWsjqqS4p+wSbYZJdhEyvjpyLldPFmCf0oZP13EarsqKf4Jm9g2YUJPhACSUPxoHARAAARAAARAwAcCEEB8gOxyExBAYgBVTYaeOHGCMjIGEU+umjl4VSMnza5QobyuuJXV6apJgc2bN9OA/gPNdEErw/k/Bgzsr8uT8L///Y+mTJ5CS5d+YrqeRBeUYpNoMemPP/6gDz74kCa9OMk0Ig6j1blLZ12eGbu7e0w36kFBCf4ZK6b/+HET6LPPzIesGzhwANW5u46O0o4dO6hH954ekPOuSgn+KeVe9Y6y+Zql+Cdskm0zKTaRMH6a92RvS0rxTwnjp7ekzdcuxT9hE/M2k1JSkgDCfSlSuAjxTn7O4/jjjz8mBFPZsmXpiiuuoHPnz9HuXbvp7NmzvvfjyiuvpFKlSmmL8k6cPEEH9h/wvQ/coAQWefPmpbLlylKe3HnozJkzxFEREnHAP7OpS/FPCTaBf+rvRgljBvwz2yZS/FOCTSCAJOLJ6axNCCAx+KlWv/Fq8nnz5tOs12aZol63bl3q3v05ypsvb7i8VeFBNSnAL+/Dh4+gL/79hal+9OjZnR588EFd+Cu7YZtMNehRISk2Ua0ePnzoMA0YMJC+/fZbw6tnYWz48GFU5bYqgZ9sl+KfqgmSVas+pVEjRxnagwtUqFiB0tPTdHl/7Ia9M9Wgh4Uk+KeUe9VDzJaqluCfsIneZBJsImX8tOTMHhWW4p8Sxk+PEFuuVop/wiaWTZfwEyQIIPyO3aVLZ7rhhhvC3z+8i37NmjU0ZvRYSzuEnQC999561K59O31eybNnacl7S2j69BlOqjZ9Lk8S8fdoterVKE+ePNp5vHiLBaEXXhhnemGf6QZjFJTAgr/BunTtQvfff194ERqz+O6772jypMm0YYP53fxOeMA/s+lJ8U8JNoF/6u8qCWMG/DPbJlL8U4pNmAwEECdPwsScCwEkDvdnn3uWHnqogU444AnuzMyhhi+LnGh12PChdNNNN+la2Lt3H/Xp3YdOnz5tyuJcz5ixY6h06VLh8vyitm7dehqaOdTwBZ7jOD/f+3nd7g87OxZMddaHQhJsUubGMpSZOYSKFCkSvmIWx5YseZ+ypmYZUnjkkUbUvkN73e4PDn/F+WXmz5tveL6kAlL8s0XLFlq4udCHHTPie2zihInEeVWMjkGDM6hmzZq6e93qji+jNvz6XYp/SrhX/WJu1I4U/4RNsi0lwSZSxk8j//Xrdwn+KWX89It5vHak+CdsIsEbrPUh0QIIT46MGTuaSpYsmaPj/L7+7uJ36eWXX7F2UTZKqxbXhKrhBXHTX51O//znezZqtnaKaiFcqIavv/6a0gamm/4utdZydmkpLB5/vBW1btNa970Q6uXRo0e1SA9e74yBf+q9SIJ/SrEJ/FPemAH/zLaJBP/k3kiwSYgKBBC7bwWJOw8CSBz2qhd4Lr5r125KT0uPuY2a1VEOHVDrrlrE/w4ddie5mzRpQu07tNMl3jYz4c4fjX379CG+jsgjqBO7fA1SbMKryho90kiX24U/ZljEWLhgYUyvYkGqe4/uupVgXNiqMJa4ISNnyxL8kydqRowcrm2rjzzMCJYdOrSnxk0a6+6vIIuEfP0S/FPKvSrhXpHin7BJtjdIsYmE8VPCPYLnuxQr6PshxT8lPNNkWkhmrxItgKh2L0WSMpuL0Sld1e6lyDq3bdtGffv0c9pM3PNVu+siTzj7y1kaP348rV5tPmSsnQ5LYMH9VuXEjPxOn/3GmzRnzhw7l2j6HPhnNiop/inFJvDPbN+QMGbAP/XDmgT/lGKTEBkIIKYffWIKQgAxMMVTTz9FLVu20AkZfAqHPOLJ7ugcA7zCpVOnjtrOj4suukhX+/bt26n3830Md21Ed4lFlLEvjKFKlSrpfmIRZNOmTVpS9IMHD4Z/4/L16z9Irdu0oUKFrspxjpUwXmI8NaIjEmxy3XXX0YgRw6nYDcV0iHh7/fLly+m1mbN0AhnHSmz5WEvi3R+XX3657pxff/2VpmW9RB999JFE3IZ9kuKf9etzXpV/0GWXXabr8/ff/0Bvzp5NH330se7eK168uCYs3n777cr722xIM0NACSggxT8l3KsJwK9sUop/wibZ5pFgEynjp5T7RIJ/Shk/JdhEin/CJhK8wXwfEi2AdOzUkZo1axqzwydPnqTBg4fQrq93mb8oGyWjJ0aiq/BDiLntttsoLX1gjm+PUF94cZ4fk/4SWMRaBBJplw8//EjbPe7lAf/MpivFPyXYBP6pv+skjBnwz2ybSPFPKTYJkYEA4uXT0pu6IYAYcOWPv/SMdKpR444cggafyqv+OXkav0AWLFhQm3yNFj64nNW8HdHd4t0cGRnpxB+B0QevVv/17K908vuT2gsu/3fJJZcor8yuCOON+9mrVYpNatW6U9vNwSuJow8WpzjB4Q8//KD5Rb58+ZTbrdl2VnJV2CPm/VlS/JPj+jZs+HAOQYMJ/Pbbb/Tzzz9r/xUuVJguy6u+V4MuSIWsLcE/pdyr3t8B5lqQ4J+wid5WEmwiZfw058XelpLinxLGT29Jm69din/CJuZtluiS0gUQfg8cNnQ4bdmyxVNURhN4x44dp7S0NE9DLhlNFjGABQsW0isehwSTwMLMBN66detoUMZgT/3CaLId/qnH74d/SrAJ/FNvdwljhpTxE/6Z7RtSbBLqEQQQTx+XnlQOAcQEVo4LOXTYUCpXTh9ex8SpWhHORTB1ShatWrXK7CnKcvE+/sxUvHv3bu2F30yibjP1JbKMFJs0bdZUyz1x6aWXWsbB4seGDRto5IhRmlgS9EOCfxpNnhkxZkHzzdlvEu+SSoZDgn9KuVcl2FOKf8Im2d4gxSYSxk8J9wj3QYp/Shg/pdhEin/CJlI8In4/Ei2AGIVOOX78OKWnZWhJwL08OBzyPfXuidnE3r17qWuXbpYjA1jpc6WbK9GgQRm6XJCR5/PO9RkzZtKihYusVGu5rAQWRqFT+KI4P0xW1jTL12flBPhnNi0p/inBJvBP/V0kYcyAf2bbRIp/SrFJiAwEECtPPxllIYCYtAN/kD/fu5cWLke1wyNWNSw2TJz4Im3dstVkS/GLVbmtCnXv/pxyJ0isM3minUNlvTB2XMy8Ja50zudKpNiE44ZyUnPe6WH24B1DK5av0HyDd4skyyHBP3lCk++RevfWU+66icX61KlTWkLKpUs/SRZzaNchwT+l3KsSDCvFP2GTbG+QYhMJ46eEe4T7IMU/JYyfUmwixT9hEykeEbsfiRZAateuTT179dB2X6uOnTu/ol49e3n+/t2iZQttkVSePHmU/Vj96WoaPnyEpwblXepjxo6h0qVLKdvhd98Rw0cS5yPx8pDAgq+P8wVWrVpVeam8CGpa1jTiMFheHvDPbLpS/FOKTeCf2b4hYcyAf+pHQgn+KcUmITIQQLx8WnpTNwQQi1zvu+9eLZfDDTfcEFMIYcHh+++/p5UrVtKbb77l+up+zifx978/qU3wxpt054l1Xt20eNFiWrZsucUrDU5xCTbh0GRt2rTWEt+zfWIdvNLq66+/prffmuP51vtEWVCKf/IWyTZPttF2bvEEZ6yDQ9it/ddaeuutt5Nid5TqOqX4p4R7NVH3RXS7UvwTNsm2jASbSBk/pdwnEvxTyvgpwSZS/BM2keANsfuQaAGEezZocAbVrFkzx7caJ/3OysryZbELT9QMGz5UywsZfXB+upEjR9IX//7Cc2Ny/kFeqBW9W52/V1euXEmjR43xvA9SWFSvXo2e7/18ju9nZsFhovv07uu5MAb/1LubBP+UYhP4p14cw/iZzUPCM02Kf0oZM9g6EEA8f31wvQEIIDaR8jawWnfdRaVLl6ZixYpSrly56eiRI1oy8s/XrPE0nmtklzkx+u3VqlKJEiWpcOHCdO7c78RJ9TixH8cx5dwjqXJIsAlPtFepcivdWqUKlSpVkvLnv4I4p8T+/fu1F+uNGza6LohJtq8E/+SVxDVq1KByN5WjEiWKU548FxMnwDxwYD9t2rhZs0uqHFL8U8K9KsXmUvwTNsn2CCk2kTB+SrlPJPinlPFTik0k+CdsIsUb9P2QIICwb/CCtfvvv0+b7OYJ7oMHD9HcOXNp/fr1voFj0fDptk8Th5Hjf/PitG+++YZefWU6cQgsv4477riDHmv1GBUv/ucCPt758ckny2je3Hm+TPjzdUphwd/uHTq2pxtvvFFbIMVhiNes+Re9NvM1377R4J96z5fgn1JsAv/M9g0pYwb8M9smEvyTeyPBJhBA/HqDcbcdCCDu8kRtIAACIAACIAACIAACIAACIJCSBCQIICkJHhcNAiAAAiAAAiDgGwHsAPENtWsNQQBxDSUqAgEQAAEQAAEQAAEQAAEQAIHUJQABJHVtjysHARAAARAAgVQhAAEkeJaGABI8m6HHIAACIAACIAACIAACIAACICCOAAQQcSZBh0AABEAABEAABFwmAAHEZaA+VAcBxAfIaAIEQAAEQAAEQAAEQAAEQAAEkp0ABJBktzCuDwRAAARAAARAAAJI8HwAAkjwbIYegwAIgAAIgAAIgAAIgAAIgIA4AhBAxJkEHQIBEAABEAABEHCZAAQQl4H6UB0EEB8gowkQAAEQAAEQAAEQAAEQAAEQSHYCEECS3cK4PhAAARAAARAAAQggwfMBCCDBsxl6DAIgAAIgAAIgAAIgAAIgAALiCEAAEWcSdAgEQAAEQAAEQMBlAhBAXAbqQ3UQQHyAjCZAAARAAARAAARAAARAAARAINkJQABJdgvj+kAABEAABEAABCCABM8HIIAEz2boMQiAAAiAAAiAAAiAAAiAAAiIIwABRJxJ0CEQAAEQAAEQAAGXCUAAcRmoD9VBAPEBMpoAARAAARAAARAAARAAARAAgWQnAAEk2S2M6wMBEAABEAABEIAAEjwfgAASPJuhxyAAAiAAAiAAAiAAAiAAAiAgjgAEEHEmQYdAAARAAARAAARcJgABxGWgPlQHAcQHyGgCBEAABEAABEAABEAABEAABJKdAASQZLcwrg8EQAAEQAAEQAACSPB8AAJI8GyGHoMACIAACIAACIAACIAACICAOAIFChSgRo0aUsErrwz3bdPGTbRx40ZxfUWHQAAEQAAEQAAEQMAOgQceuJ/K3Hhj+NRj335LCxYstFMVzvGJAAQQn0CjGRAAARAAARAAARAAARAAARAAARAAARAAARAAARAAARAAAf8IQADxjzVaAgEQAAEQAAEQAAEQAAEQAAEQAAEQAAEQAAEQAAEQAAEQ8IkABBCfQKMZEAABEAABEAABEAABEAABEAABEAABEAABEAABEAABEAAB/whAAPGPNVoCARAAARAAARAAARAAARAAARAAARAAARAAARAAARAAARDwiQAEEJ9AoxkQAAEQAAEQAAEQAAEQAAEQAAEQAAEQAAEQAAEQAAEQAAH/CEAA8Y81WgIBEAABEAABEAABEAABEAABEAABEAABEAABEAABEAABEPCJAAQQn0CjGRAAARAAARAAARAAARAAARAAARAAARAAARAAARAAARAAAf8IQADxjzVaAgEQAAEQAAEQAAEQAAEQAAEQAAEQAAEQAAEQAAEQAAEQ8IkABBCfQKMZEAABEAABEAABEAABEAABEAABEAABEAABEAABEAABEAAB/whAAPGPNVoCARAAARAAARAAARAAARAAARAAARAAARAAARAAARAAARDwiQAEEJ9AoxkQAAEQAAEQAAEQAAEQAAEQAAEQAAEQAAEQAAEQAAEQAAH/CEAA8Y81WgIBEAABEAABEAABEAABEAABEAABEAABEAABEAABEAABEPCJAAQQn0CjGRAAARAAARAAARAAARAAARAAARAAARAAARAAARAAARAAAf8IQADxjzVaAgEQAAEQAAEQAAEQAAEQAAEQAAEQAAEQAAEQAAEQAAEQ8IkABBCfQKMZEAABEAABEAABEAABEAABEAABEAABEAABEAABEAABEAAB/whAAPGPNVoCARAAARAAARAAARAAARAAARAAARAAARAAARAAARAAARDwiQAEEJ9AoxkQAAEQAAEQAAEQAAEQAAEQAAEQAAEQAAEQAAEQAAEQAAH/CEAA8Y81WgIBEAABEAABEAABEAABEAABEAABEAABEAABEAABEAABEPCJAAQQn0CjGRAAARAAARAAARAAARAAARAAARAAARAAARAAARAAARAAAf8IQADxjzVaAgEdgWuvvYY6d+5MhYsUCf/93LnfadHCRfT552tAy0MCzL5+/fpUsVIl4n9fccUVutZ+++03On7sOB08dIi2f7md1q1bRz/++KOHPULVZW4sQ/fccw+VL38TXXvttZQ3b14dlLNnz9KxY8do37799MUXX9DGDRuJ/4YDBEAABEAABEBADgHV++2yT5bRe++9J6eT6AkIgAAIENGQzMFUo0aNHCx27vyKevXsRefPnwcnEAABEFASaN++HVW+5ZbwbwcPHqSxY8aClmACEEAEGwddS24CJUqWoGHDhmkT8KHj999/p+mvzqDFixcn98Un6OpKly5NzzzbjW666SbKnTu36V4cO3ac0tLS6MD+A6bPQUFzBO644w5q2+5pKlGiBF100UXmTiKiPd/soWeeeRYfJqaJoSAIgAAIgAAIeE9A9X67YMFCeuXlV7xvHC2AAAiAgAUCtWrdSd17dKcCBQrozvr1119pWtZL9NFHH1moDUVBAARSiUC0gLpnzx7q0rlrKiEI3LVCAHHJZPyyX7FCBSpVujRdffXVVLhwYa3mn346Q4cP/5e+/fZb2rx5s6sTqLxCulr1alS5cmUqVaok5clzsdbmyZMnac8339CyZcuIJ25T5ahUqRLdXq0qlS1blvLn/3NFP7+87N37f7R+3Qbatm2bKBQQQPw1xwMP3E+d/tGJ8ufPb7lh9p2+ffpZPk/aCaF7pEiRq6lYsaKUK1dubbw4cuQIbdu6lbZu3earoPDUU3+nps2a0qWXXmoZ1YcffkQTJ0y0fJ70E1gQrVTpZrqx7I1U6Kqr6C/XXx8eyw4dOkTfnzxJGzduot27d0u/lMD2T/Us4Ys5euQI7dq9m9Z8/rmnz1Z+ht38t5vpuuuu0+5Tfp5duHBee5c4ceI77T7lnWmpsiqR33X4Pedvlf9G119/vfZ+xc92vh++2f2Nbzv0+JldtWpVuuGGG6hEieLaOxf7xNFvj9KmjZtp+/btgfV5dBwE3CQAAcRNmqgLBEDAawJdunahhg0fzrE4DrtAvCaP+kEg2AQggATPfhBAHNjstttuo8aNH9EmKvLly2dYk1uKIE+KtGvfjqpVuz1HmJjITvzxxx/aBMG8ufNo2bLlhv0LYgFexd/ysZbaS0uhQoXiriA/deoUrVi+gl5//Q0RoXMggPjncZVvqUwDBw6gK6+80nKjFy5coLlz5tKsWa9bPlfCCTxONW/RXAstFR1WKrp/vANp546d9NqsWdr/vTw4BFnnLv+gyy67zHIz//vf/2jK5Cm0dOknls+VeALvTGrRojlVvb2qFo7NaCeMlzuSihcvTj179dT8JdSPn3/+mYYNHU5btmyRiM+VPvFz9YknHqead9bMERIvugF+th49epTeX/I+LV78rmMhgp9j9953Lz30UAMqVaqUKUGQ7wEWwd5+a07S2qVCxQr09FNPEf//4ov/XOChOlgI2rt3L82bO58+++wzV/whVAmPmc2aN6MGDeobvmOcOXOGVq/+jN54/Q2ETHTBCh07daRmzZq6UFP8KjjE5aCMwZ63k0oNQABJJWvjWkEg+AT4PSw9I51q1LhD9w6OyAzybcvf93XurhPuKL+jf/DBhzTpxUnyO48eBp4ABJDgmRACiA2bcciWJ59sQ38t81fDiarI6t0QQB5t+qg2SROdsyDeZfDkwIYNG7XV0smUx6B8+fLUo2d3y6FzDh86TFOmTqWtW7basL57p0AAcY+lUU2x4rtyDondu3bTN3v20M4dO+js2V+1kGS8k4tXXhctWlSboH9h7DjauHGjUTOifrc7TvFFnDt3jlatXEVTpkz1RCzkbeYjRg7XdmtFHzyJyOLL3n17tf+fO3eeSpYqqdmCV14XLXo9/fbb7zRo0CBXd9QlwngsfHTu0pkqVqxAefLkMd0FrwSQu+6qRbwKLrSDMdShZBdAnmj9BD36aBNLz1Vmwx9ZBw4coAnjJ9JXX31l2n6hgiEBv1GjRlSo0FWWzw/14T//+ZLGvTBO22maDAeLDt26daW699S1dF+wPTZv3kKTJ012hQWPoV26dtZ24lg5eLHF67Nep/ff/8DKaSgbRQACSHBdAgJIcG2HnoNAqhLgRXJDhw2lcuX03yb79++nPr37JtUcSrLYmPNHZmYOoSIR+VT5HWzE8JHiIn8kC3Nch54ABJDgeQQEEAs248mKtu3aUqNGDU2t0Iyu2qkA4iRcDE8M7Nq1izLSByXFA7zKbVWoZ88edM012fkzLJhSY8ArA9as+ZeV01wtCwHEVZwxKyt3UzkaPHhQjkldXjHML0icrCqZDp487NSpI913/31xV00bXTOPGV9++aW28t9t4bROndrUs2dPypsvO9E5t8c7DMaMHut6e0bXmojf7YjZoX56IYC0ebINNW/eTLkjJ1kFEH6ms+DDq/ut5ASK9hc7zxN+hnXp0lkT9Yx2/JjxTw5jN2zYcC03TpAPnoBISx9IN998s20unKtp9JgxjliwKPV026fo8ssvt4WTV42+u/hdevXV6bbOx0lEEECC6wUQQIJrO/QcBFKZAE+oZ2Sk6xY+8EJSfp6/jBxG4lyD5+V4B32uXLnCfeOQ8wP6DxTXV3QoOQlAAAmeXSGAmLQZT47wR3nNmjVjfpTzqmlevXzixAm6cOGPcM0FCxagq666SgtHZTcpTrxwMfxg5na/++47bfKKRQFVTH2eYFy3bj0NzRzqOGSHSWyeFOPVmCNGDKdiNxTLUT9fI6/qP378uLaK/dprr9VyPqgmmHi1bGbmUEeTJE4uEAKIE3rmz+WJ5nbt2urEgLO/nKWJE1+kVatWma8oACU5fFG/fn3j7k7j8eKXX36hY8eOaaurOWcRh/BT3SNejRk88du4SWMdUc5FMnToMM9Db0kwI1//ww0fjrm6PdJG589fCHc5X7682iqn06dPU1pauis7YHjCmZM/Vq9eLaYIkKwCyFNPP0UtW7ZQXjc/P/hZfurUaY1/7ty5tA9inhB3+jypW7cuPdf92bihM/ne+/Xsr3Tq9CmtDyHb8zM+lmDCuxsHDBjoyu6HRNwnsUJQhPoS+Y7Fu2D5vSpW/qBdu3ZTelq6LTE1VkJU7odml19/1XyDw5DxOwaPnyoBjX/n0IkLFyxMBM7AtwkBJLgmhAASXNuh5yCQ6gQ4wkT/Af10IggvdBk+fAR98e8vUh2PmJQY1lYAACAASURBVOvnaAJjxo6h0qVLhfvE713TsqYR54nEAQJ+EIAA4gdld9uAAGKCJ3/Y8qRirbtq5fjI5Y9hXkm+ZMn7WsgYnnyPdXBoHTtJyWNN+PNkAKvc01+doVvFzv2tX/9B4rAe0aFMeFXiazNfowUB/iDv178f1a17t24SKJTv5I3XZ+eIAc7xwzt26EDlK5TPMXG0fv16GjI4MyGCEAQQEzefC0VUk+18z3bt0i0hdnfhkmJW8cgjjah9h/Y5JgVD98eiRYuV4xQLJ+07tNMS/EaHYuLJvmlZL9FHH7n3MslbzHnCPfLgMH08YZnsR4cO7TXxJzqnAduIRdmPPvqYPv7o47gTt5zviLd4O02CzR95nO+DEzrHO5JRAOHnQnp6mvIZuXz5cnpt5iylDTinToeOHahUqZI5nidmcwnwM3rQ4AziEEuRB9tz3759tGrVp7Tsk2XK9nl1IofgVN2r7EN87qiRowJ5G8USpHiBB79jcT6z6Hes2rVr05N/b5NjJ41d8TbW+xbX99XOr+iVV1/NIdKyiMh9r1fvnhxjL4uVHH40kbtNA+kMRMS7cHgno5sHh7aM3NXD79EsUs2fN9/NZlK+LgggKe8CAAACgSagEkG2b99OvZ/v4/jdO9BgBHW+SZMm2rdr5PfU3r37qE/vPtpCMRwg4AcBCCB+UHa3DQggJng2bdaUOPxU9ErD77//gV577TVa+vFSE7XYL8ITuI0eaaTb3scKN68qjJeYmT/keddKdJz9IK8SrVGjBj3fu5cuVruZ0DmxQp14Mblr1tIQQMySclZOlf/D7ESls5YTczaH9GnY8OGwWMui6xuvv07Lli037FCsMHs7d35FvXr2cu2lP2vaVCpTpoyuPyzKvpLk28tjrSxngYHFqbffets1xkbGfuCB+zWxrGDBgrqi/Gzh3YTFimXvsEtGAeTZ557Vko5H7qYwu2Kfw8zx6sDq1avrzrcSdzgyzAJPwu7YsVNbtcbirJkj1nsJ70zIyBiUsJ2NZvquKqN6HnI5M6G92B59+/XNkbzUzvNd9b7F9uGE91lZ0+JeHu/s6dzlH8SCSOSBSRO7XuHueSyW9ezVQ7fziv2rX9/+gd015S4h92qDAOIeS9QEAiCQGAL8nta3Tx/i8YyP3377TQuDteS9JYnpEFoNE+B5nXHjx1GFCuXDf7tw4QLNn/8OzZwxE6RAwDcCEEB8Q+1aQxBADFDyw4/zB0TnmjDzUe6GlVjEGDV6JF1//fXh6njCf+3atdrOBaOj8i2VaeDAAboP8iA/IPha6txdR3fZR48e1SZ8OO53vIMflmNfGEOVKlXSFXN7ctfIJqHfIYCYJeWsnEoAWbliJY0aNdpZxULPDoWRqVbtdlq3dh298MI4S4nMVbx++uknGjVytGuJ4KMFEB6T5s6ZG1fQFYrbdLd4UpRD9/EzJfKwkz/CdKOKguwfXbt1JRZAonehsNDBOx9uq1qFWGwOHckmgDCDyZMn5bDF6k9XayEOzByqHSRW/ZgnzFs9/hjNfmM2ff75GjPN6so88+wzmogTGfvYah8sN+rRCao4zlZ2T7BNhw8fRpxbJfLYvXu3FgvazGrAWO9bVkKHsk27d39Ol9+Id97yTt3Fixd7RA/VmiEQ/f7I79IffPChlg8Oh7sEIIC4yxO1gQAIgAAIZBNQLWjwIj8imIOAEQEIIEaE5P0OAcTAJqpwS37Gqm/RsoW2+yQyLI3V9lUrXYO4RZAnDjMzh2gx8EMHr8x8c/ab9Pbbc0zdXaoHJudDGD9uQo7QWaYqdFAIAogDeBZOVU3oJ/tuA55s5+3bvNPF6qG6R/g+m/3GmzRnjrn7zKjNaAEkFSYIVeF9/M5FwxO8vfv0pkqVKuYI38S7F6a/Op2WLv2Eou2TbAKIauzl3R9TJk/Rrt/soQrlxqGOMocYL04w20a8cqpnIpf3sw9uXIdKkOLJ6Y8//pgmjJ9ougmVKGUlHrQqnILV9y3ubI+e3enBBx/U3WOJWmhhGl6SF1T5hpUdW0mOx/XLgwDiOlJUCAIgAAIg8P8JYEEDXEEKAQggUixhvh8QQOKwUu2esDrhbt4U6pKjx4yiW2+9Vfej1fA9fP6Agf11oU4SNenvhEerVq2ozZOtdWKQVbVftWUyUasAIYA48Qbz56aiAGKeTs6SnFSOtxVH54XghHIcy96NI9UEEFVeATsTvE7Zc/6RR5s+miOXFecemTjxRdq6ZavWRLILIJzHg8NDRuYCsCPyqJI0W30+O7XphInjqWLFirpqduzYQT2693RatW/nV7q5Eg0alKF7R7G760y14MPszh7O9XZPvXscvW/xySphCpPtvrmTsiGVX3AOPd4dhMN9AhBA3GeKGkEABEAABPCOBR+QRQACiCx7mOkNBJA4lBK9c8LNCfLoSRKefFu0cJEWyzIoh1u5HHhHzWOtHtOFDdnzzR565plnHcXf51X3HDaGJ3M40WauXLmJY5Dv3ft/tHnTZtq6dZuufjftK92GnIeGQzIVufpqbWI9T56LtS6fO/c7HThwkE6d+pH+88WXtHPnTkvhmoyu+9prr6EePXrkCIuS7DtAjLgY/a6aVHVrYpf9Pm3gwHBMXe5Lsu8AUe3kS0SuhlB4tBo17tBWp/NzYPv2HTR2zFhdDPxkF0B4UUB6Rhrlz58/fCsEVQBRPRf37NlDXTp3NbrNxfyu2nnBzwXOO2QmdFXkhagWfPz3v/+lfn37ES+YiHdE+72TnW/RqxODGprMjJMk6vlupm9cRhXazMrOILPtoFw2AQgg8AYQAAEQAAEvCKhCpnqxoIG/mTiawi23VKa/XH99eG6Hr4nndw4dOkT8fsltG4Vh94ID6pRBAAKIDDtY6QUEkBi0VKugnXwMWzFKqCzHaO/2TDdd8nUOxzB48BDa9fUuS1V26tRRW/kbmfA1SKtEeSJ71OhRVLRo0fB127VHtWrVqF//vrrJL16dOWRIJm3/crslrly4dOnS1LnzP4hDLETH1I+s7MyZM/Tpqk9p+vQZ2iR/sgsg9913LzVs1JBKlSql8+F4gM+fP08//PADbdv2b1q+bDlt27Ytrj2KFy+u5TK48qqrtBcTTobLIdLYDpdeeqllW0afYGdS1HGjAipwIjayAFirVi0qdNVV2gtjvnx5qVChQppNLrnkEsdXZ3XXl+MGXahAtZPPzR01VrrIQi2HbipT5q+09l9rlTlikl0AUY29vCty5IiRtGHDRtM4VTsG/A4/pbpXedzs26ef6etIdEHVThq2Q3pauuWuqcJpcai58ePH0+rVn8Wszy2fCDWgEnWCZpd48P14vls2fowTVAJ0EMPAusXDj3oggPhBGW1IIKDaUWomz2C5m8ppOUYLFy6suwwz3+b8nJuaNUX7/gwdZs6TwAt9AAEnBHh+bszYMVS6dKlwNW4uaOBvpCaPNqY77riDbrjhBl3UkXj95jke3kU/e/abdPDgQSeXiHMDRgACSMAMRkQQQGLYrE6d2tSzZ09dIku74oNdt2jfvh01b9FcJ1rs3buXunbpZnmngkpM4bAnvP3/8OHDdrvo23mqFbt2Jqy4wyox5bffftN2wyx5b4mla2IbPdL4EUuT7Se+O0HTpk2jtWvX5XiBTYaV8PzS0L5DO+3FIVJwswSWSFutm5aWFndVhWqSyWo78cqnqgAyZepk4lW9kYfZiV3VZKabNjHjF26257Qu1UeumQlZp+3GO5+FwxtvvJFWrFihLJbsAghfdLSPW12hr1okYbUOpzZWTYJwnWYmX5y27eb5Xbp0psZNGuuqdCIQRgtTZuzCQv3QYZl0zTXXhPvh5J1PFdbL7E4UN9m6XZefz3c3+q4Ke8r+MH/+OzRzxkw3mkAdCgIQQOAWqUKgWLFiNGLkcG2nWegwI0bwAjFenBi9MMjMO67qvdLJMzNVbIXrDD4BrxY0sJD5+BOt6Kabboq7mNWIIO8MeeedBTT7jdlGRfF7khCAABI8Q0IAiWEz1Y4Jv1fvZQzKoFq17tT10O6qSLdCfiTKxVUvisePH6f0tAzat2+f5W6pJnithEXij+ouXbtQgwb1c8TTN9MZjm/+8ksva+JJmTJlwqcEWQBhJiwINXqkkaOXhxAMM3HbIYCY8TZrZVQTuxwq6Z3572i7l4wOCCB6Qm6G9zFi79bvqSCAqEJc7t+/n/r07ks//vijIcpmzZrS022f1o11TnYSGjaoKKAK9xTEZ4jbeZpUY5DR5JBqFa+ZiahYdlNNADsRVOz4h5vnJOL57kb/69atS927P6dbzJSI8INuXEuQ6oAAEiRroa9OCUSHjTUjdquEf+6HmQUy0Ys0+bk/Y8ZMLbQ1DhBIVgJeLWhQ1euEIUezWLLkfcqamuWkGpwbEAIQQAJiqIhuQgCJYTNVyJJ3F79LWVnTfLOyKg6/0Ue8lY/xIE2UqPJ22I0RzoychPjh8x9/vBW1bqNPyB5iHwrjdPLk99qfcufOpa0M4oS7kTsieLLs22+PUbly2Svtg2STSF8zKwjxRDqvjuAVmHzkyZNHuXuGd/eMHzeBPvssdsgSPr/BQw2IfSNe6DFV6CXeLssh1IwO3gEyduwL9MW/vzAqmjS/q1YuM68pk6fQ0qWfGF4n24OFvXgHhydj24eOaL+Idy4Ln0MzhwVi5xpfR/ce3TWhNPKwK2QbwnepQCoIIJVvqUycp4G3u0eO3WY+Wjgm8MC0AbrdAlyHW3lyzJpx0OAMqlmzpu65cuTIEerXt78up4vZ+hJVzm0BhMN9tmvXVvdcMLKN2wKIandOUHcUJur57oY/8srsqlWr6qoys7jCjbZTuQ4IIKls/dS79uj3PF7kxu+p8cL4qr7xmZyZHYvR38Rm2ks9q+CKk41A7dq1qWevHpQvX77wpTlZqBLJJ96CSp4v4BBXvHjiwoU/tNMKFiyghXeOFdqZ78kJ4yfQ55+vSTYz4HqiCEAACZ5LQABR2MzNEEl2XSJWaAsruxSi246e1LKyqtvudbh1nmqljJNEr6oVort376ZuXZ8x7LJq4oxPYp5btmyhl6a9rIz/yDlCOnboQOUrlI8ZGiqoAshTTz9FLVu2UO6G4cnzf3NOjxUraOOGjTmSnHPejsqVK9Ndte+iKlVu1V4ovvrqay0BLotJTg+3J9ec9kf6+Sqx0e1J1eixKKh+b8aW0R+5QRh3U0EAYds98+wz9NBDDShXrlxhU/KYs3LlKk3w41xN0UeV26pQz549cogfHFIyM3Mo7flmjxm3cFymabOmmvgbmeuI+z5v3nya9dosx/X7WYHqeWw25J6qn6rwoUbvC6oJWyeTSqqwKEEd5yQ/3+P5qWqHlNnFFX76fzK2BQEkGa2Ka4pFIFp0NwqrHP184PK8KCj0LmL0/IuOEGFmxwmsBwJBJ8CLlurcXSd8Gfw99cEHH9KkFyc5vrTI3CJc78kTJ2nT5k306arVMYVMnqtr0qQxNWvenAoVuipHH7xIzO74QlGB6wQggLiO1PMKIYAoEKtWQEev3ONVoxyHsGbNGloCs8hJCJ7w5VAHPPC9988ltpIhxUqQ7WSLa/SkFl+6E0HFc++MaEA1ie1kFbVqwsVogiTUHVVfeOKJd+fwdsd4k/ZGKymDOEESTxD6+uuv6cWJk4hz15g9OD8BfwhYOSde3RBAzJIn4hdAXjEbnf/D7RWzqSKAqMT06HucBcBHHmlEde+pq+0Uu+yyy8ICKX8Unz59mrZt+zd98MEHtHPHTvPGdFAyVQSQUEL4yF14jI0/fg4dOkTTX51B69ev10jy2P34E4/To4820XbzRR5so4kTJhJPWnh9xApFxH1et249Dc0c6opw7PV1RNavEl3NxFCP1UdVcnqj57vqXrWy8y26L6r3SDzfidx+vsfzU1WYu507v3JtcYWf90jQ2oIAEjSLob9OCKjCTMf7vo4OYcXPO85DFVrZbhThIDqMs5PnpZPrxrkg4BeBMjeWoczMIVSkSJFwkxxJY8TwkXF3Wlnp3xOtn6CbypWjOXPnWvre4r5lZKTr8gBxu0EOe2qFW6qXhQASPA+AAKKwmSoBemiL3eFDh7VJkMaNH6ErrrjC0OK8bW7jxk300rSXLIWkiCWA8ITM4sWLDdtVFXAa9slWoy6d5HbfVVsdzWyjVK0o5EvcumUrDRyYZmriiSewhg8fRrySOPoI4gSJyjaSJuMggJi/CVV5DbxYMZsqAogqUWWkmP7Agw9oq/hZRDc6+J76audXNGnSZNfEwVhtpooAwtfPHy59+/QhfuZGHyxm79q1mzZv2kQNGjSgwkUK59i9xx9g01+dbio8nJGN4/3OE/QPPfww3VuvXo5+sG9s2rSJXhg7zlT+Eif98OLcBx64n7o90023kMRungbVuxP32UgA4TKq3Vp2VxfyrlXOhxW5uwjPdy+8R10ni8mjRo+k66+/PlyA38dnzXqd5s+b719HUrQlCCApavgUvWyVgB4v7GKk6M8hrzjEds07a4YnUOPlE1PdW3bDY6eouXDZASTQtl1batGiue6dStIOC1VydqOdYAE0A7qsIAABJHhuAQFEYTPV5DhvL+3fb4AWV7rWXbUsJ75mFZhXiPKuBTOHKh61049nt0UEM9fhVhnV7hWjmN7x2rYrgHTq1JF4q3NkLg87E8SqOJbcX6c2dou32XpiCUIcBmbAgIEiJuMggJizZqwVLFbEPXMtEaWKAKIax0MftjXuuIMaN2kcN3+NiicLKK/NnEXvvfeeWdyWy6WSAMJweLJ0wMD+VK5cuZjhCaMhsujwf//3f5ro4NZutVj5c3gSPXJnUGRf2J/ee28Jvf3W26YEeMvO4MMJqgkdu+G8evTsTg8++GAOO5oRQFTPd170ws8yDnFm9uBwl+npaTmETTzfzRJ0Xk4Vtmv//v3Up3dfEe8lzq9Qdg0QQGTbB71zn0B07lB+L+japZvyuTx02FCqXr2a1olQ0nN+H6xYsaL2t3gTp3xe/wH9w7tFkADdfVuiRlkEeLf2mLGjqWTJkuGO8Q7daVnTtOgbEg7VoosghDyWwC7ofYAAEjwLQgBR2CxW/Ojt23dQw4YP5xA/eIDjgZiTLfPq/liHlTAZEED0FKUIINHbjrmXdkIqsJ9MnjxJW30ceQRtgkQ1YSTtpQQCiPGDif0xPSOdatS4Qzdx+OOPP9Lw4SNcTwKfKgJIw0YNie+RyCR5vNNs+bJl1Kx5M92K95CV+P5he0QmiY+2IJfhlcwLFyw0Nq6NEqkmgDAiDkXGtrrv/vsMRanvv/+BFrzzDi1e/K6rooMqNGO0+fh9g3OTHDx4kD5b/ZkW/1iVq8SG2RN6imqctppXhfNQtW7TWnlfmRFAqlWrRv3696X8+fOHWbAQs2TJ+1p4SzMHfwSnpQ/MEUaQz8Xz3QxB52UiY3mHauNV1vPnv0MzZ8x03gBqMCQAAcQQEQokGYHoROjHjx+n9LQM2rdvn+5KeXwaN34clShRXPt7KExO/fr1qUGD+uGyvCskK2taDkrR+Uac5KpKMhPgcpKUgGp3xd69+6hP7z5amGApR/QuYu5XUELNS2EYxH5AAAme1SCAKGymmoT44YcftEmR0Icxr8LleN9LP15K27dvD9fC22Dr1atHPPGlCmtidmW8SgCJzkNi1d2SbQeIk4eKnR0gqnA2bINYL6lG9ol+WQ7iBInqYS/tpQQCiJEnEnXp2iWHuGt3BbZxa6mzA0Q1zpw5c4Y4FMtVV/2ZMI/FjC1bttIH779PW7duC0+o84qnu+6qRVxH0WJFc6xo54/rwYOHeJJ0OxUFEJ64btOmNdWuU1s5gR7p13xvcH6jyZOmuLb7g+s3K4DwrsNjx45p7x4ff7zUEx8wcx+7WSbWrkheRcsxnlnwiXXEyosSWd6MAMLlOQdS1apVdU3xPcpiI4uO8Y7y5ctTz149wxNb0WWDJoAE4fmusgdPInbu0tmVkGpu+ngq1QUBJJWsjWtlAtHCBD+nR44YmSPyQ3S+kNBOkRYtWlCbJ1uHF7/EyusR/e2IBOjwv2QmwO93LBhWqFA+fJlSFzRgviGZPTH2tUEACZ7dIYAobBZvEoJXX/JOkLFjxsYNicCrSfv265tjRbXZSUWVABLrZcqs2yWbAGJXeGBedgQQVW4YJ/Edo1+WgyaAcMK+ocMy6ZprrtG5oLRYtHghiT9C1K1bl7p3f47y5ssbLuh1DpdU2QGiGmcircGJLsePG09fffVV3Mndzl3+oeWgiNwVwjZatepTGjVylNlHgOlyqSaAcC6Wp59+mgoV+lOUMnvwooRFixa7Fn7KjAAS3Tf2g6NHj9KcOXO1BRlBPgYNzqCaNWvmEPtCC07++c9/6sQeVV4UfsdiHsWKFdOhMCuAcHiR53s/TwULFtSdz5x5oop3g6xauSq864Y/zmvWrEH1G9SnypUrh3cP8aIZvl8jc8UFSQAJyvNd5e8qEWv1p6u13Yw4/CEAAcQfzmhFDoFoYYMXusx+402aM2eOrpOtWrXSCR28mDJzSKYWEisytBXvgBzQfyAdPnxYd350qK1t27ZR3z795IBAT0DARQKqxTFmcra62AXTVWG+wTSqpCoIASR45oQAorCZagDjYlYnBWMluzazWgMhsPSGkRACSyVYONmVE/2yy1ccpAkSVf+dCEJeDZ94IYlNllcs9x/QL5x4MVTSaugZq7ZLFQEk3oQ2J9dOT0s3HY9eldsgXqJMqzaJLJ8qAgg/o1n8q3dvvRwhx3jyYtu2f9Oct+fQPfXuobp176bLL788B1Y3E5BzCKbbq92eo42rr76arr66CPH/eWI+MgdVqDD34z//+ZLGvTDOUr4KJ37i9rm864ljo5crVzZm1Sxw8I4MDiunChPHu2IOHTpEHE4k8rCSM6xps6bE+VguvfTSmP3gPvAqRFVull9//ZXmvD2XGj2i3wns5H3BbdZG9QXl+R59Haq8ZHbytBnxwe/xCUAAgYekGgFVInTVgrB+/fpq7xSheYV35r9D06fP0ER7Fm95NyofqkWPqjacLAZMNRvheoNHYODAAVTn7jrhjvO7Lod+nfTiJHEXE5nbJ9Q5J9FKxF0gOqQkAAEkeI4BAURhs1gCiNUJK666Ro0a9HzvXrpVgPzhPGXyFFq69JOYHhO9koQLOp0cD/IOEFXuDSsTGtGg7ewAUU1mOlmF4IXI5ecQpGIocYIHAojaK2IlPbeSq8iuv6W6AGJHYFJNKPEE7Nw5cw1D81i1UyoIICx+cOg3DpcTnbvrxHcnaNq0afT552vC6HhS4h+d/0HVqt2eY+KdP8h27dpFGemDTAtaVm0SKs8iAcdDvueee5Q7Vuy8p9jtixfnFS9eXEtIX7p0acvVh8JltWvfVnv3ijxCq2zNVsoCCAsh8UQQVV2hcFlffrldywUSKZoFKVZ7UJ7v0TaInizh3+3kaTPrJyinJgABBJ6RigSMdmdE53+Mng+IDDuo2kESPTcgcdFZKtod1+wNAf5OzcwcQkWKFAk3wAu/OCwq73zy+mDBsdZdd1G5smWp2A3FtIgXfA/nypVLufhF1R8IIF5bKfH1QwBJvA2s9gACiIKYasLUSWJnVRxloxUbqo+HVBZA3BZvJAggXtjY6gDgpHz0Nm6uK1bSPyftOD0XAkhOgrFWWnudXDvUk1QWQJzEro1cORhiuWHDRm0niZtHKgggzZo1pafbPq1LeB4SMvjjikUq1XHHHXdQx44dtI+hyMPqDlGn9uIwm92e6Ub33FNXJ+BwP9auXUtDBmc6bSJh5/O1MeN777vXlADBE0UbN2ykiRNf1ASo6EkovhA7H6Fs6/Yd2tENN9yg3HUTDYiT2c6YPoOWL19BqpCZThZM+G2MoDzfI7moJkvYNzh3y/x58/1GmNLtQQBJafOn7MV36dKZGjdpHL7+6IgP0bkkQwnQd329SzsnOr9HtHDP+UU7deqo7YDkw6tdwClrQFy4KAJt27WlFi2aa4JD6Ni8ebMWGs6rI7TI6O46dahwkcKm3v3i9cXOu6dX14Z6vSEAAcQbrl7WCgFEQVeVnJpjtffq2Yt4dbTVI/qFiM83mrSKNTk+Y8ZMWrRwkdUuaOVVYaSMhBhbDXlwkmoS24hhvG6odnOEEtFxiA3V4fYOkKALIG7z8MBttCohgOjJ8uqV9Iz0HPmJeKLo/SXvU1bWNK9MEa43VQQQ1SRi9AevFdiqMHxG45aV+kNlk10AqVCxAqWnp1HhwoV1eMzunuAPpD59exPv4osMR8XPDn6mvvzyK3awWz4n1r2cLCF/Qh+it99+O1133bU6MYRZnzlzhjhR7DvvLKCdO3Zq/JjJ1Kwpuh0kvHjEybsT7ybhcFZ//etftd28kTuGWDQ+cuSIlhfkn/98L5wbxK971bLTmDwhKM/3yMtRTZawbfr17R/YsHAmzSWuGAQQcSZBh3wgYCRQPPDA/drChdDOwuj3t+jFedG/R4/LTuYmfMCBJkDANgHedT1ixHDdYiMni5GNOsLvdY8/8Tg1bvyILmqL0XlGv0MAMSIU/N8hgATPhhBAFDZTffg5mWxX7TYwk5BTJVg4GUij6+OVoqHYo9JdV2UTMwxjXZeqvt27d1O3rs/EROH2hAAEEH+8DgJINudYE6Y8mcjJfbOmZvlilFQRQFRjvxPBQhU2z4tV5ckugDz73LP00EMNdOIF7xzgJMlf/PsLU/dArHvpxIkTlJExSJes21SFNgupVr1zVStXrKRRo0bbrDW4p6mSd6tiqXt9hXYWvnjdJyv1u/2+Y6VtO2ULFChAY8aOodKlS4VPlxwr3M41BukcCCBBshb66hYBoxBV0c+F6Od0pZsr0aBBGVquLz6iF8xE5xhwMjfh1jWjHhDwggCHeuVQpJG53vbu3Ud9evextRg5Xh/5fZ5DltasWTPmjg9+n+D8brzr6tSp03Tu3O/E2MUBZQAAIABJREFUAiQvsAkdN99cKUf4Vifzdl5wRZ3uE4AA4j5Tr2uEAKIgzAPuY60e0225czvfhJnJe1UYB1VCNTNOEvTJdtVKaicrX+yE1HJ7QiDoNmnfvh01b9Fc97LgxWSsGf+OVwYCSDYdznnQsOHDOULmrFu3noZmDqVYu5+c2iD6/FQRQKJX+zEHM2N/LN4QQJx7oiqJqN2JUhYfBg8epMUFDh1OQpzZvTrVGGck6NttS/p5qtBTHM6MQyYcPnzYt+5Hv78FacEJQwrK8z1kUM7l07lLZ90uIT9jhfvmWAFpCAJIQAyFbrpKIPr9Inrcj3wuqHJ8sJA7bvw4KlGiuNavyBwh0bsbg/ZMcRU0KktqAuzrfB9UqFDel3frHj2704MPPphD/OB7jBetrVy5ipZ9sswwxx/mG5LaLWNeHASQ4NkdAojCZqpVu5xsqW+ffrYsbHcHiJvx3lVJ1ROxKtIWQCJSTSQ6yTehSqpuFA7MbQEkOhYss3Ga58UuXzvnBSVJKl5I/rQurzx7uOHDutU0fuctCPlZqgggKsHCiXALAcTOSKU/p3r1atR/QH/Kly9f+AdOTj1q5GjauHGj5QZUITM5LFOP7j0t12X3BLefTXb7IeE81QIWv+2hEtmik91KYBWvD0F5vvM1qCZL+O9exwqXbsNE9g8CSCLpo+1EEogWv0N5PKKfC7HeO6J3eYS+TaN3NyIBeiKtjLa9JFC7dm3q2auH7j3dqwWWqrb42ngBxfRXp9PSpZ+YvlTMN5hGlVQFIYAEz5wQQBQ2U4kFTsKW2BVA3Nz1EB2XlC/biYDgt6urxIKzv5yl8ePH0+rVn1nqTrFixWjEyOHE8SVDh5kY4aqY3vwCOzRzGLFAZvVQTWYGSQBRrbSV+EKOFxKips2aaluJQ3GH2VdZ/Pjyyy9p2NDhhqtarPq2UflUEUBUY42TcRcCiJFnGf+ueh5HJyo1riW7hOrZ6veOAwgg2faYMHE8VaxYMfwHHuc4b5pfeVm4YdWCDa8+3q34qpWyQXm+8zWpJjC8jBVuhWOqloUAkqqWx3VHh7kK7caMnluI9d4RLeKHFmBGL95AAnT4WrISGDhwANW5u47uPe6DDz6kSS9Ocv2So9viBnh+aeLEF2nVqlWW2sN8gyVcSVMYAkjwTAkBRGEz1eo9Jy8aKiHDzIpE1UpVu/3o1Kkj8QR+ZMLWIIXIUCU25VAjc+fMpVmzXrd051WrVo369e9L+fPnD59nRshQTQg4WdWpmjgLkgCiEqUSMdlkZPxUfyFRiR/MzGzCZyO+dn5PFQGE2URPyDoZM1RjkJPJ+1i2S+YcIHYXJMRi5ZcoFe8+gwDyJx2eYBowsH84fjr/zcnuHjtjG5+j+qB2EkbVbj+cnBeU53ss3l7FCnfCNJXOhQCSStbGtUYSiP62C72j3VmrFrVr15YuvvhirXisyBLR73mhXcP16tWj9h3ahc93spsYFgMBqQRUee28Cmepmu+Ld28aMVNFF0EOECNqwf8dAkjwbAgBJIbNeIdA1apVw7+qYnWaNbcqlFVoS2y8OlQDs90J8uhJOG7Xbj4Rs9ftdjkVRzuTCqoQGWZeJN2eEFDF2LZrX7dZm6lPJUrxeTt3fkW9evbyLZ+EUV9TWQCpVetO4hA9HFc48mDxk3d+8Er1RBypJICoEm7bHXtVY5cXQjYEEPN3hUqU8nu1f8agDOJ7PfIw80wzf5XBKKmK4+z386hCxQqUnp5GhQsXDkML4m6EoDzfVZMlicjDE4w7xL9eQgDxjzVakkUgOpF5aOFi7bvuosZNGmudjZe/IzrUVeh8TtDcrFnT8MUiAbosu6M37hBo264ttWjRXJeH16twltH3qtG9Ge8KVTv+uTwEEHf8QnItEEAkW0fdNwggMWzWomULLWRMnjx5wiXsfEhHJzTjyqyIKapJf6sPAtWqSCerkBPl5qqwEidOnKCMjEG055s9proVK1b0yhUradSo0XHr4HMnT55E/MEdedjxCz5fleQ+SAIIX4Mq/r3draOmDGijUKoKILHEjwP7D9DoMWNM3zM2kBuekkoCiCo8y5EjR6hf3/6WBSjVmGFXTIlnpGQWQFQ775zsolHt8HQSMtPw5okqoHrH4CJO8pZZ7YOE8pVvqaztvLjyyivD3eF3Ld4hOn/efN+62K9/P6pb927dbtug7kYIwvOdw800eqSRbrLE6nuhb86RQg1JEkC4L0UKFyEWxvbt2+d7yM+Q2cuWLUtXXHEFnTt/jnbv2k1nz5713SN4fOQJ9ly5ctGJkyeI3wcTcUhgkTdvXipbrizlyZ2Hzpw5Q7yYxI0j+pkcCtfc4KEG2i5FPoy+wSNXkodCC1etehvVqFFDO9+LBOgSbCLFP93wA6d1eOWfVvvl5/jJoclHjBhOxW4oFu6mlwtI3AxFrpqj4ovwQgDx0yax/EWKf0oYMyCAWB1VEl8eAkgMG6hWlfHk9GszX9MGM7NHgwb1qXOXzrrY+1a28qkG1B9//JGGDx9BX/z7C1PdUK2KdDLhY6pRDwqpdsScP3+e5s2bT7Nem2Wqxbp161L37s9R3nx5dQ/XKZOnmEp0pQolxsnkx4+bQJ99Zj4XiUqU4g4FTQCJlTxs+/bt1Pv5PiJ2gaSiAMLjV0ZGui7PDfsX7/jIzByaUPGD+5FKAgh/DI8ZO4ZKly4VHnN4Iobj2U6eNNnUuMWFYgnZ07Kmabv53DySWQBR5fiyM4aHeEfvFuW/29mZaNd+qpBedsND2u1Dos/jDyBOHFuuXFldV/bv3099evf1bcJTFW6QRZg3Z79Jb789J9GYLLcv/fnOkyWjRo+k66+/Xndtqz9drb0j40gcAQkCSJXbqhALZDfccENYkOR37DVr1tCY0WN9ez+999561K59O92uMBY/lry3hKZPn+GLkXiM5G+fatWrhRf28SQ6C0IvvDDOt3dCCSx4MVuXrl3o/vvvC3+bM4vvvvtOeyfjnRVOj8hE5uxzLMTff//9VKJEca1qo1xwkeJzSOy45dZbiEUKPowEFCv9l2ATKf5phZtXZf3wTzN9T8T4qVp87OUCEtX3gJVFyiGObLPhw4cRM4s+3BRAEmGT6OuR4p+SxgwIIGZGFFllIIDEsYdKOLAygcg3JyvZTnYMqCbP+GVo3br1NDRzqOELPOcReb7387qY2Hy+V8mkvHZvVTgZszZhlsOGD6WbbrpJ100rD9dYwsXWLVtp4MA0Q3uEGlatEuXfgiaA8INw7AtjqFKlSjqmLEzxpGzW1CzTTLzynVQTQOKJHyNHjKKvvvrKK9Sm600lAYShPP54K2rdprVuR+Hp06dp4oSJxOEQjQ6+zwYNzqA77rhDV9TuThKj9pJZAFE9U5mHHdFCJaib2XVQqFAh4oUQPE46OWLd61YWWThpX8K5vAqt/4B+VL16dd2uC54gmv7qdPrnP9/zpZvsC127dckRbvDrr7+mtIHpxPd70A7pz3fVZIkTMTNo9pHc30QLIPz9NWbsaCpZsmQOTDzuvrv4XXr55Vc8R6gKiRdq1M8xSvU9G+qHX2OUFBaq97EQi6NHj2pRBZzujInOy7Vs2XKqVu328Le4UehSztkZmS+ERZlixYpS0aJFta6ePHmSBg8eQru+3uXIh6XYRIJ/OgLp4sl++KdRdxMxfqoidHgdzlL1nGI2ZqKCRDKMlWuTy7glgCTCJio/keCf3C9JYwYEEKMRRd7vEEDi2CTWi4GZEDI8UPXp25t4e11k4nE7W/lUKzz5BX7Jkve1CeZYB0+O9O3Th3iAjzyCHB4g1sPKKKEzP1g5nFitu2oR/zt0mJmsiuarmlC3MuHfsmULbTL00ksvzWG6oAkgfAF33VWLevTsoUsqz39nJps2baKsqdMsh/phoalAgSto9Wrzu2pi3QepJIDEWgnNu8YmvTjJ1GS7H4+pVBNAYr248kcsiyDxVhzyeMWrAXmVXuTY5eWHQTILIOzfqhjD/GxeuGChtlLTzMGLC9gukbke+LzDhw7TgAED4455PCaVK3cTrVy5UgvPxPen1YNXgnXr2lUXKoDr4AUOq1Z9SqNGjrJaZeDKly5dmp7v3Yv++te/6t6zrCwScXrRfE+2ebINPfpoE7rssst01VkROZ32w6vzpT7fY4UztRuS1Ct+qVpvogWQWOFIQvbwK0eSKm9XpE/4EaowVqLfUD9CIZrceN+O5+8SWHD/VDkxI78JZ7/xJs2Z42zHXnSozT179mg7kULffUahS6NXph86dIjy5csXft9wK8ymBJtI8U8pY7Uf/ml0rYkYP1U7Tv3Ip6fizd9mQ4cOo507dhqhIl6I0br1Ezne/0InuiWAJMImqouX4J/SxgwIIIa3ibgCEEAMTBJL6eR4oSxAzJs7L0ccVx7En/x7G92261AzVncK8HnxVuHxBPP0V2fQwYMHw1fC5evXf5Bat2lDhQpdpbtCqyGjxHksET319FPEIkLkZGBo4oknr6JDUbGQxaGreOdHpBjF59gJ1aSKNR6aePriiy/opWkvE7+cRh/Fixen9h3aUdWqVXUrwSPLBVEA4f7zdvKGDR/OYRP+7eeff6YN6zdoIcb4Y0918Lbum/92M91RvTr9tcxf6fLLL6f169fToIzBjl0wVQSQWDucGCCvajt9+oxjlmfP/qKNN05jJaeaAMLgVbsF+O888b5ixUotjF/0RDiPXR07dKDyFcrnGLu8DO+T7AIIT85lZg6hv/zlLzmejzt27KCZM1+L+eHD43jLx1pS7dp35RCx2Zb8DGIhJd4ROSaxCM+TGyyCrfl8Tdx7i595NWvWoMZNmlD58jcpnyNmd0Q6Hgw8qsDM7hieHHqk8SN0221VlAsJjBZEGHWdd5XwRFU8YYpFzQfrP6i9a3Eopuh3C7O+YNQXCb9LfL6rJkuC+v4kwcZu9yHRAkj0Cvzo63NrBb0RN9X7Z+Q5fggxqjj3kX2wE/LF6LpVv0tgEWsRXWR/jcQJM9euSoTO+V849wqPUzNmzKRFCxfFrCp6go9Dpl188cXhZz7vHM4ckmmmK6bfRVQFU8k/HcN0oQK//NOoq4kYPzmHW52764S75le0EtWCKO4E+/6UKVNihptXfZ/xHBvf45Hvg24JIImwSbSfSPFPKc+0EB8IIEYjirzfIYAY2IQnHNIz0qlGjTtyfODyqZyc7Pvvv6dTp05Tvnx56ZprrlF+kHNZJxMTsUJdcL38kPj17K908vuT2sQx/3fJJZcor8zOhL80tzWyCU88sEDFL/UFCxbUVPnoyQm+Jqu5VCI5xNsCyPbgECQcT/bChT8od+5cdO2112o7JCL7wZPSx48dJxZUQkdQP+DZJmnpA6lmzZpK1qHrC/nqhT8uaH/iF4VY9rETksbsR5dbLySS7g0zLyZO+8ti1rChw2nLli2OqkpFAYSBxZtI5PGKx6STJ7+nSy+9RHuW8ESsauzyemV5sgsgbIt4W9a1cerXX4l3S/7yy5+JamON45Fj29q1a7X7wyi0VbyJIPaD0DOM3yv44HcLFgZ4Uj5Pnjwx7z2v/cLRTW/yZGZz++23h++FyNMKFixAV111Vcx3LC7Liw9GDB+pWxRisulwMf64Gpg2QHs+caz2//3vt/BvIT/g1bjRizBChazuJrLaP7/LS3y+q3LvWAln6jfDVGtPugDi1ruMkV2NJv39WOFsNFnE1+DHO7EEFmbek9349ohOhB7pJ/x9OGRIJm3/cntc94nMIxJZ0M0cXxJsIsU/je5lP373yz+NrsVost3t8VOVd9evUK6xFkQxI36X57kcHqd5oVL+yy+nosWKanM6LGhGfp/x+zeHXG3WtKkuz6xbY6vfNlH5iBT/lDZmQAAxGlHk/Q4BxIRNzH78xauKP6LHj59AvAPE7lGr1p1ayA1+sbJz8KptnpxhISboR6xQP2avix9UU6dk0apVq8yeoisXSgLFSe5jTYLEqzgU+oYH8cZNGoeLBlUA4QvQQvV0f47q3Vsv7iSdWeBufIRwW6myA8TMi4lZ9rHKufXSm6oCCHPlpKwPN3zY9j3y008/0csvvaztqPLqSAUBhNlx2CLeURgdusgqV/5I4t0bo0aNNhQ/Yo1JVtuMLs/P9YkTX3T0juG0D26cbzQhE6sNFq14R+wLY8fZCikWWa+Zj6tY/eCPds494uX96QZnq3VIer6rcrF5GRLQKiuUJy307rBhw4hXsocOtyaCzPA1Cu1jlITaTBtmynDo3Xvq3ROzqFuhjOL1JXo3QnRZMzsSzFyrURkJLIxCp/A1cH6YrKxpRpdj+HssAcPsror27dtR8xbNcyyCcTNkmQSbSPFPQ4P6UMBP/4x3OX6Pn6pdGJs3b6YB/Qf6QD3+gigzHeBv49dmzqKtW7cSL87gXcFuP/f8tonquqX4p7QxAwKImbtEVhkIICbtwR9/PEA3atQw7urD6Or4o3znzp00YfxERysSQ/Vy3G+eZI4cXI0uwc2JAaO2/PydRRCO/82rRVWrpGP1xc2JIo793bx5M0sTaPzyO37ceC0ZdXR+lyALICHeDzz4APGDOjo2vlXfgABijRgEEGu8ElmaE1w+8cTj2goisweP47wCiT/MnQjpZtpLFQGEWXBieQ5NyPG5rTxHQhx5t+GiRYvprTffMoNWK/PYYy21HSi8Q9HpwbsN1q9bT1OnZjme+HfaFzfOtyOA8IICDj229OOlbnRBy93GOxp5N63Zg3fubNy4iV6a9lJSLDKJdd0Snu/PPvcsPfRQA939GuTcdmZ9LEjlEi2AqEKkRfLzK1cMx4fn9+FYO/dWf7qahg8f4alpedHcmLFjqHTpUsp2/FppLYEFA1DtHguBsZOnM5bxYgkYZr9tYsX8d1O8k2ATKf7p6U1ooXK//DNel/wcP3k+a9TokXT99deHu+TmfWgWfaNGjejvTz1p6buM6z7x3QmaNm0aff75Gq2p0WNGES/SCB1uCf9+2iQeMwn+KW3MgABi9i6TUw4CiEVbcNLNtu2epsqVK8cVQnhFKE+0z507z7WP8lBXOSzK3//+pLbSPt4ECvdh3759tHjRYlq2bLnFKw1O8fvuu1eLyR5vAosnDzlU2coVK+nNN9/KkbfFydWyT3Tu/A/ieJAcozXWwR8ZK5avoNdffyPcfvRESzIIIHz9LBjee9+99EijRlSyVEnTq935pYd99rPVn9EHH3zoip2wA8SJd+vPxQ4Q91jyS3+bNq3pzlp3asktYx08dp08cZLe/+ADLeeUUXglN3qYSgJIaLziXA6NHmmkPUeMdvWFbPLp6tW2k5iHxkieyC1RooQW7szswT7Az7O1a9dp+UaSYVdn6NrNCiChZwU/J5YvW+7qfWFWAAm9V2zcuJEWLljkyiIXsz6QyHKJfL6rJkuYhR8TyYlkHrS2Ey2AMK9BgzOUYVl5BX1WVpYvu7Ti5Wb7/vsfaOTIkTFjzLtp80ceaUTtO7TP8d3KY9jKlStp9KgxbjanrEsKi+rVq9HzvZ/P8f3MLDhMdJ/efV15nqgEDCvhq8rdVI4GDx6UYzEZR3Po1vUZV+wlxSYS/NMVoC5U4pd/GnXVr/FTJcIlKpxlaI6PBYx48znMjhc/fbrqU5o+fYZuriJa+HRLAJHyTJPin5LGDAggRqOJvN8hgNi0CX8AVqlyK91apQqVKlWS8ue/QosZzit0v9n9DfEKj3gJNG02m+O0SpUq0e3VqlKJEiW1l6Rz537XEjft+nqXb31w61qc1sNb82rddRfxA6xYsaKUK1duOnrkiDYp8fmaNXRg/wGnTcQ9nyewqlWvRmyTkiVLartCeGXqgQP7adPGzdqLdSoefK/wdkW+XwoWvJJKlChOefL8KRSxfU6dPk379u6lHTt3em6jVOSPa5ZPINY4zs+TNZ9/rsWfxeEPAR7HeYHD3yr/TZsgCT1LfvrpDB0+/F9trOIcOG7bhJ9fN954I1WoWFF7drAQEwrNFXq3OHPmNP3niy+1XaWcFDUZD+bAAkSp0qXp6quvDk/+hPif+vFHbacFTwJ5dcR6Zl24cF7zAf7w3b1rF23dus2X9zyvrtONevF8d4Ni8tUhQQBh3+TFUffff582lvME98GDh2junLm0fv1636DzM+Xptk8ThzHmf7OA/c0339Crr0zXchb5dfBux8daPUbFi/+525EXZX3yyTLfFlbwdUphwd+JHTq215657Cf8POXE4q/NfC1pn62x/EyKTST4p1/3olE7EvxTyvhpxMqL30PzOeXLl9fmLHiOLzS/duK77zx/B411TVJsIsE/mZGUMQMCiBd3obd1QgDxli9qBwEQAAEQAAEQAAEQAAEQAIGUICBBAEkJ0LhIEAABEAABEACBhBGAAJIw9LYbhgBiGx1OBAEQAAEQAAEQAAEQAAEQAAEQCBGAAAJfAAEQAAEQAAEQSHYCEECCZ2EIIMGzGXoMAiAAAiAAAiAAAiAAAiAAAuIIQAARZxJ0CARAAARAAARAwGUCEEBcBupDdRBAfICMJkAABEAABEAABEAABEAABEAg2QlAAEl2C+P6QAAEQAAEQAAEIIAEzwcggATPZugxCIAACIAACIAACIAACIAACIgjAAFEnEnQIRAAARAAARAAAZcJQABxGagP1UEA8QEymgABEAABEAABEAABEAABEACBZCcAASTZLYzrAwEQAAEQAAEQgAASPB+AABI8m6HHIAACIAACIAACIAACIAACICCOAAQQcSZBh0AABEAABEAABFwmAAHEZaA+VAcBxAfIaAIEQAAEQAAEQAAEQAAEQAAEkp0ABJBktzCuDwRAAARAAARAAAJI8HwAAkjwbIYegwAIgAAIgAAIgAAIgAAIgIA4AhBAxJkEHQIBEAABEAABEHCZAAQQl4H6UB0EEB8gowkQAAEQAAEQAAEQAAEQAAEQSHYCEECS3cK4PhAAARAAARAAAQggwfMBCCDBsxl6DAIgAAIgAAIgAAIgAAIgAALiCEAAEWcSdAgEQAAEQAAEQMBlAhBAXAbqQ3UQQHyAjCZAAARAAARAAARAAARAAARAINkJQABJdgvj+kAABEAABEAABCCABM8HIIAEz2boMQiAAAiAAAiAAAiAAAiAAAiII1CgQAFq1KghFbzyynDfNm3cRBs3bhTXV3QIBEAABEAABEAABOwQeOCB+6nMjTeGTz327be0YMFCO1XhHJ8IQADxCTSaAQEQAAEQAAEQAAEQAAEQAAEQAAEQAAEQAAEQAAEQAAEQ8I8ABBD/WKMlEAABEAABEAABEAABEAABEAABEAABEAABEAABEAABEAABnwhAAPEJNJoBARAAARAAARAAARAAARAAARAAARAAARAAARAAARAAARDwjwAEEP9YoyUQAAEQAAEQAAEQAAEQAAEQAAEQAAEQAAEQAAEQAAEQAAGfCPw/9q4E3Kaqf/+SCg0q0qcMkYj0F4n4qDSrTFGaJ1SulCHzvRf3mmVIcZO5fA0KpUnJVEIoX18iQ2aVTM0kfP/n3X3ndM4+a5+zp7PP3ue863l6Ht2z9hre39prr/V7fwMJEI+AZjdEgAgQASJABIgAESACRIAIEAEiQASIABEgAkSACBABIkAEiIB3CJAA8Q5r9kQEiAARIAJEgAgQASJABIgAESACRIAIEAEiQASIABEgAkSACHiEAAkQj4BmN0SACBABIkAEiAARIAJEgAgQASJABIgAESACRIAIEAEiQASIgHcIkADxDmv2RASIABEgAkSACBABIkAEiAARIAJEgAgQASJABIgAESACRIAIeIQACRCPgGY3RIAIEAEiQASIABEgAkSACBABIkAEiAARIAJEgAgQASJABIiAdwiQAPEOa/ZEBIgAESACRIAIEAEiQASIABEgAkSACBABIkAEiAARIAJEgAh4hAAJEI+AZjdEgAgQASJABIgAESACRIAIEAEiQASIABEgAkSACBABIkAEiIB3CJAA8Q5r9kQEiAARIAJEgAgQASJABIgAESACRIAIEAEiQASIABEgAkSACHiEAAkQj4BmN0SACBABIkAEiAARIAJEgAgQASJABIgAESACRIAIEAEiQASIgHcIkADxDmv2RASIABEgAkSACBABIkAEiAARIAJEgAgQASJABIgAESACRIAIeIQACRCPgGY3RIAIEAEiQASIABEgAkSACBABIkAEiAARIAJEgAgQASJABIiAdwiQAPEOa/ZEBIgAESACRIAIEAEikOYInH12KWnfvr2UKFkyPNMjR/6UWTNnyccfL0nz2XN6mY6Aav3P+2CezJkzJ9Oh4fyJABEgAkSACBCBNEGgbds2UuOSS8Kz2b59uwwfNjxNZpee0yABkp5y5ayIABEgAkSACBABIkAEUoBA+fPKy4ABAwSK4FD5888/ZeKESTJ79uwUjIhdEgHvEFCt/9dfnynPj3/eu0GwJyJABIgAESACRIAIJBGB/nn9pF69euEeNm3aJFntOySxRzbtFAESIDYRrF69ulxWp7ZUrlxZTjnlVK2VQ4cOyebN38jyZZ/K6tWrbbZs/rGiRYtKnbp1pEaNGlKhwnlSuPAJ2sP79u2TTRs3yrx582T37h/MNxjwmn6QCS59tWvXlrJly0r58uU0mXz37bfy3fffycoVq2TNmjUBRzlYww+9I1WrVpV//OMfUqJECTl27Kjs3LlLk8vHS5bItq3bgjWpJI0WiroyZcpGtf7HH3/IunXr5OjRo0nqlc3GQwDfl1NP/ev7Eip79+3lmk3hsvGDTE4//XSpUKGCFCpUKIzEkaNHZMP6DXLw4MEUouN918cff7xgfz/ppJOiOt+5c0dKzz+ZTIBwfXr/HvitRxIgfpMIx+MnBHDebtCwoVSsWFHKlDlXChU6PqxH2Lp1q3ZXXPHpioz7nvtJRhwLEYhEAN+0kiX+9ujFb7wjc40AARIgwVsHJEAsyAwX7dZzzfd4AAAgAElEQVR3tJYmTW6RM888U4477jjDp3/66SeZ/+F8mTbtBdcPMFDktmnbRurUuUyg4DUq//3vf2XHjh3y6iuvyrx5H1qYaXCq+kEmkEGr21rJTTc1TrgufvnlF1m8+CN5YdoL8uOPPwYH6DgjvfTSSyU7p4+cfPLJjufz22+/yYD8gfLZZ5/ZbgtrokWL5nL9DddrRBT+P15JR5lYBa/SBZUkNzdHI4kiCwjU7Oxs2wr3cQVjpVKlSlaHo6yfadajLVu1lAceuD9Gsbts2TLpm9vPFUxVjZQrV066dO0iVateGP7GufFeJm3AHjacKplEThHK5fwB+VKlSuWomWeqjLI6ZGlnMv0+n+r9IlMJkGStzxYtWkjbdm3khBP+MvRxUpx+15z0nSnPkgDxVtJ6BUyi3g8fPizwSNu/f7/s2LFTli1dKh999LHr99VE48ik30N3xcY33iglSpaIq0MALlCufr3ua5kydaqs/WptJkHFuSYZAdX+HK9L6JNg5Is9Y/fu3QIL90ULF7ti7Ovmt10/B7e+9SAshwwdIueee25UF9D1DRo42DEODz/ysLRq1dKU1EOygDy+++57Wbt2rSxYsEA2bdxk6nmjSvHGsGD+AhkyZKil9mvWrCk5udlyyimnxDxn9r7ipg5BPwg37wgkQCwtDV9UJgFiUgywMOzcpZOUL18+4aElssmdO3bKs2PHyueffW6yp/jVbm15q9x9910xVsHxnoL19qefrpDRo0anjdId8/WDTC6//HLJ6tA+RnGcSNj4aE6bOk3efvudRFV9/3vdunWkV+9eUqxYMcdjNftRVHUUIsOaNm0qZ555huWxpJNMrEweuOXk5ki9epfH7G1ODo9od+y4ZzULNzeKm4cVN8aTzDaMCCn0mUwCpGHDBgKFMjylIouT9zKZOHnZdqpkop+jkcI/E2XUoME/pVPnTnLaaafFLIVU7xeZSoAka33i7NumzUMkQLzc9Bz0RQLEAXg2HrVKgKi6gHITivaCgudk8+bNNkbBR4wQwNkKOaFKnhVtQW4GsSNHjsjCBQvl2WfHkqAyAxjrJETAKgFi1CAMCBctXCQTJ06yvTaDQIDccMP18ljHx2IM0o4dOyYzZrwmkydNToh5vApWCBBVOyBFQGYvXLhIZrw6w5auL94YNmzYII916GhpjvHObGbvKyRALEHOyhYQIAFiAqxal9aSLl06S6lSf8dyNvFYuAos/cc8PUaWLPnEymMxdWENDAtUfagHM41ic1y/fr3k5vS1tTGa6cPLOn6QCRTtDz70gG3PB1w23pj9hkyYMNFL6Fzvy83Di9mPon4SULI/0elxufDCv63W7Uw0XWRiZe5GVu1owwkB4tYBOzSXVCs0rWDqpG48QgrtJosAufe+e+W221pJkSJFYoZv9710goOfnk2VTPQYxFP4Z5qMjDwN/LJfZCIBksz16VRBEPkuOfmu+Wlf8vNYSIB4Kx03CJDQiOF58MEH82Tc2HEMf+qCGNu1ayvNWzR3RN6G7vCwNv/+++9dGBWbyGQE3L6fIfT6pImT5MMP51uG1U0dgr5zt771PXv2kKuvuVo5t7Vr10nXLl0d7ZVunm9ASr3xxpvy0r9esjSmeGP44YcfJCc7V7Zs2WJavjBOQmQUVTF7XyEBYhpuVrSIAAmQBIAhJMygQQOlTNkyMTVxIEG8bWwMsNA4++yzNVcvVWgsHFjy8vJtu6g1btxY2mc9qlROwcMDG96ePXu030HUqEgSjHfZsuWSn5dvaVO0uKaSXt0PMol30Q+5J+7du1dzYca6gHeEKhQTfp86dZrMfH1m0nFLVgduWmaa/ShGzgWWGW3btZXixYsbThHu/j///LPs27dfihc/Tc444wxDIjEdZGJW1vGs2tGGk8MjchTkD8izTRzr55ApBEg8QgqYuE2AQJGMgyo8uYzCxdl5L82uwSDU81omKkwSKfwzTUZGngYh7FK9X2QaAZLs9ZmV1V5TIrpRnHzX3Og/E9ogAeKtlN0kQDBy3GMQinbY0OFpYTTnrTT+7i3R2SGENcLZIKdXIgPH9es3SE52DmWSKoGmSb9uEyCABXdn6DKg07BS/E6AGIW/Cs3RjTBYbhIgoT1l3bqvZeSIkbJ9+3ZT4og3hoO/H5SRI0dqIdzNllGjR8pFF12krG72vkICxCzarGcVARIgCRDr2aunNGp0VRSpEcqt8cK0F+Wjj6I3g2oXVZOH27WTqtWqxhAhy5cvl/798iyTD0YKf5Auq1atkokTJkVtcFBiNW58o9x9z90xoUxg4T5l8hSBciCoJdUyMZIH1sW6tevk+QkTYuK1QjnwwIMPyDXXXB1zwIViHuHJnHoIpUqeqo/md999Jz///IvlIR08+Lu2nuFuabb07Zcr9evXj3nfsNZXr14tM1+fpYzPecUVV8h999+r5QnRk5YIXde7d5+0trRKZNUO/J0oilS5YX799VfZtetbs6KNqjfvg3kyZ84cW88G5aFEhBTm4SYBgjCCyPdRvny5uBCZPawGBWcr4/RaJkZjS6TwzyQZxTNACOFHAsTKKndeN9nrU6/gReiJXbt2ye+/H7Q8+H1790pBQYH2fWNJDgIkQJKDq1GrKgIEYay+/HKN8hEk3oaxHAy0TjzxRGUd3GkQUmXI4CHeTiZNeov3ncL9HQrKN2bPlqVLl4X1AsgT0ujqRlpeK3i26+8mkMnSpUs1XQILEbCLgGp/xppcuXKl/PDDnphmkXsL9wTsFzAgNDKWApFXMO45ee+990wPTUWAoB3cw48eO2a6HVVFN771RuGvQv25EQZLpUeBbuiTTz6Rw4f/jJoaDGrLlS0rZ//jbM3wM14+4m+//U6GDhkq69atS4hjPAIEc3zl5VdMk1tlypSRQYMHGoaHN3tfUREgdvVLegDc1CkwB0jC5eW7CiRA4oikXr168mS3rlH5NsxYxeDDgMsgXL8iPxJ2PgwYHizfmjZrqlmHhIoZph2KeiSnrlw5OllqkJW7fpCJSh44OLz91tsyblxB3Je8UaNGmicPCJHIsmbNGun2ZHfL5JgfdhTVR9NL5ZPe8hTv6BdffCHPFYxPGMcYz3bv0U2grI88RLhxoPGDbOKNAQnXHnzowbBbPjyWsEfh4BIqbhMgSJyX1b6D36FJyfjwrQCZh7xCobJx40Y555xzosLsuUWAGHlO4dsCb8LIdWD2sJoS4JLYqdcyMZoK4od37tI5nEzw999/1xLXRiZCzxQZYc+GVy6IKRTs90gCiXNOZIJsL79BKrllkgeIF+tTf8GEgQOMJWbPnp3EHYBN20WABIhd5Ow9pyJAzJwV4hnMYSSw/B09+mlZuHChvYFl6FPISwUFoP7+DTgQLgjhxT7+eElcdOBdf++998SEWcYZbeKEifLmm+ltEJShS8eTaTs5n8Qz6MTgt27dKt279TDtpaQiQJzcPd0GUB/KCfoeRF6J9NZyGgZLpUcxgwG8U4DfVY0aGeY+NRuBJnIMOFfjudKlS4fhhJFuXn9zxKs+Nyyi1ECvEorUYfa+oiJAUn22V60vEiBuv3XJb48ESByM+/TpLVdedWVUDTCPubl9ZdvWbXGlg0Pl8KeGSfXq1aPqWd0kQWIMGTpYU4KFihULkBqX1BDMI1LhHmTlbqplYiQPK6HFQIJ06vSEFC1WNCzTIF/m/aCYCFlpn3rqqfLii9Nl1sxZpndPI1fgTRs3SceOjweSlEo0eeDVr1/fqPBUixctlnPLnCuVKv2lWEQxcwAz6kt1qDVzIU809nT9XU9I4ZI7e9ZsadK0iasECL5NHR7rICBAIhXGwBWH0imTp8qltWsJyOZQMXtYTTfZeCWTeLjpFf6oi3PEzz//FEWWZYqMOj7eUW6++aawQQjCD3zw/gcxMdZTfUlyomAI0nvk1frUX4QzZb0HaS1EjpUEiLeSs0uAhEZpZAyE3xFpoHevPt5OKOC93XXXnXLPvfdI4cKFo2Zi1ePfKITW5s1bpHu37lpoXxYiYBUBN84nRrlYQRAgDBaScZspfiZAQGSOGDkiykt+9+7dcujQH1F/cxoGyy4BEsIXnmOPPPKwXHf9dcpcQ2ZC5+nHAO/BqlUvDO9h8CjskPWYKZ3InXfeKffe9/f+t3PnTs3TMJRL2ez5jQSImTeIdewgQALEADUoCPPy+kvJkiXDNbCpT39xurz00sumsEaInS5dO2v5H0IFlpsjR4yKCZ1l1ODtrW8XJD+PPETBeiQ/f0BMmCWjNh5/4nFNYRBp4R7Ew5MfZKL6UFuVB+TUuUsnufHGG6NkYpUcM7UIPaikv3gh38b48c/LW3Pe8qD3v7tAOB8UM66e+oGp3hHItV+//rL+6/WeziPZnams2rEvwaKs9R13CCxKQsVtAsSKBUmycfBT+ypCCnv0/Pnztf0/kqhwQiKBwO3WvZtUr35RjNs0DvBYA++//4FQ2Siah4GeJEyGTBKtQ73CP3S5vOqqK6PISrMXikT9+fl3vacBxgrl3Nat2wRkVWQhAeKNJL1an/o9CeEU8/MGKMNbejNz9hIPARIg3q4PpwQIRmtkDJSuZ+FkSQhK02HDh0nFihWiurCqQwg9rLovWlUyJ2uubDeYCLhBgGDmRvk7EH66R/eepsDxMwFy5ZVXSJcuXaIMVr/66ivZtm17VIJvp4bFTgmQENBNmzaVBx96IMZrDB4rb8x+Q9PNGBX9GBYtXCR16tYJ6zCtfAf0SeMR5q9SpfNJgJh6I1jJCwRIgBigrGcvUc2qMhCKRjDH1ar9pZhFgffGO++8K2OeHmNKvkOHDZGaNWtG1bWqAMPzvfv0ikoSbZWIMTXYJFfyg0z0mzqmbFUeeEZF5ji1IEgy/IbNp4OyVHXIsZP0K1UysNKv3qo9tIYnT54iAwYMcI0ASXVoNCuYpLKuipAKeYRhXG3btXGNAGnXrq0grII+fi9cnRHm4vPPPtegSId32olMvZRJvHGqFP7IjwRrXHiGRnprpTsBovI0gFv9U8NHyMX/dzEJECcL3uazXq1PlbLG6nnc5hT5mE0ESIDYBM7mY24QIOhaZQyUKqMmm1Ck/DHVfQKDCn27rXptqO6LaA+K2M6duqR8vhxA8BBwiwAxIvtwp8A5FZb/iYqfCRB9+Cvo8BBhAmG+Huv4mGthsNwiQIC1kddYImNd/RhgXIQQWOeee64mQkQlePaZZzUjuUTl2bHPhMP/gax97725cvXVjcLEjNn7Cj1AEiHN3+0iQALEADm3DpOw3r3jzjui8neYDa3j1gcKUxw1eqRcdNFF4dmGNvF4bLDdRZWs5/wgE/1mjI39xRemy8svm/MKisRGH87LapKpZOFstV09JiBy+vfPkzUGyRettu9F/eoXV5e+fXOjSMIghyUzwqzaRdUkJydbSpQoEa7yww8/aJ4umG8yCZCgru9krz9VqITly5drSS5hzeMmAaJPfI/vwJo1X8nwYcO1eK+hkukEiJcyMVpfUPgPGz5UzjvvvHAVWL2PGjlKix2eaTLSW8FiP4ExyTNjnhEvyFbIA2Hh8K1AAuFChY7XciZt3vyNrFq5Sj7/fHVUaAA3z2/J3oPstO/l+lRhiQToPXv0ZCJzO8Lz4BkSIB6AHNGFW/cjlfIe54TXZrwmEydO8nZSAe1NrzTFNJx6bKjCPwfxrhVQkabdsN08n6jWuxUPTb8SIKrwVyHDyK3btsXcl50YsbpJgGCx9uzVUxo1uirK0x/7+Ny5c2XUyNHK9awfA4x7ixQpEjbCNvsdqFChguQPyAt7e8DgGqHJ77nnbhIgabeTBHdCJEAUskMImCFDh4RZz9DhxY6iu06dOtKzV49w8lK0ZfbQghjteobZigta5NQQGxCWv5FhsIJkPeIHmagODNjYBw8aLJ9+usLyLqD66FtxG7XcYRIeQKJkJPpDaJ1QCaJlppuHwSTA7EqTUH4PHDhAELc1VEB6TJk8RRAuxm0r29y+udKgwT+j+mLS2mhRxiOkQJQnI48KFJf5A/I1d+SlnyyVp54aIQcPHowaWKYp1yMnnwqZqF7weAp/1M8kGanyZuH96N27j5ZoM5kESMWKFaV9+0cF60KfMydSbvBGQcgAKAnxPqX7N8XL9Qkv5pzc7Khz9KZNmySrfQdXvo1sxH0ESIC4j2m8Ft0iQFTGQOg31SEFvUXTfm84Zz/zzBjNyz+y7N27V8sfiu+WnaLSBzgxwLMzBj6TPgi4eT5RGfqatfAHon4lQFRkcKThhT5Ci5MwWG4TIEZeY/H0MyoCZPf3u7X8eqECXVdOdk7cF0GPGzBDbkmcGU8++WTtWbPrgx4g6bPn+G0mJEAUElFdtuwqulWKe7PuxG3btpHbbr9Nl7vDfBKiyKmpDk9WXBRTvXD9IBM9qw1M7BJSeFZ10QiaVaPqEGUlUVaq11Wof9X6Mvue+mUOicYRz6od8UFVGDghs/QXcrt7aKJ5BfX3RIQU5qX6BtgJuafHqFy5cnLBBRdoOUZUJZOU65HzT6VMIseRSOGvIp7NXiiC9r4k8jTAfPRkK/7mhsIO71+z5s2iwhwkwm/vnr1SUFAgiHk8dtyzAgIlVNLFq9Dr9XnppZdKdk6fqLjWZi7iiWTF35OHAAmQ5GGratktAsQoD4gb+6m3iKSmNyMCyalxm5Fc3DgPpgYp9ppKBNwkQFQEhpXzqF8JEJVny4L5C2TIkKGa6FRh2e3mcnWbAMH4VOEM43mi6ceAkH0IdwUDaiQwR0Huk65dukq8MH56Qgx7H8KG9erdK5xPxOz6IAGSyl0ivfsmAaKQb5OmTaJeeFRBmJic7FzZsmWL5RURGQsv9LCZw6TqUm/30qdSbprdgCxPOAkP+EEmqku4EwWx6gDihFBJAuwJm0wXy0yVpYcVF96EQKW4gsqqHQRoXl5+2CLN7fWt3/eCtN94IS49IQX34mXLlkt+Xn44lI7qUOzFhTdTCRA/yESl8MdlY/So0bJkySfa0lR9O9L1/dJ7GoCsfeutt2Xc2HHh11Sl/DNzxjJ6z0GEZXXI0pJc6vPlmNkb8O0Y/9x4jTyJzNOSDgRIKtan6vznxT5oRtaso0aABIi3K8MtAqTKhVWkX7++UWFSMRMn+6m3SKS2N5WxIUaEBMTjxhU4GpxKlxBEgzNHIPBhVxBwkwBREQFWzqN+JEBU4a/05zfVXmk2woteiMkgQK644grp0rVzmHQI9Wl0dtKPAV622LMiw4ObmZ9ed4m977vvvo8K52x2fZAAceV1ZyMKBEiAKEBRufOZYT2NVpjdg6k+bwfaf/fd9zRFiNXi5sfOat9u1PeDTNxWEEOxorcQNftRcANTN9pQYRJExYRqfQXNGyeeMm/4U8OkevXq4SpIZjZ16jSZ+frM8N/cXt/6g4sTstCNteqnNmpcUkMQ0xnKxFDRE1L4OwkQ76TmF5noY/eqFP6ZQoA0btxY2mc9qsUhDpX16zdoLvgIfRUqbhMgKm+5UF+Qx4EDB2Tfvv3an44/vpAWAhKu/ZEhRnFR/P773VKlSuXwONOBAEnF+lQpSKiQ9W5vtNMTCRA7qNl/xu49U99j3bp1oix18TtDLZmXi+ou4da+rzKKDJrRnHkkWTOZCLipE8rKah8VJgnjtrIu/UiAqMgD1R1Wr6ezm+syGQSIisSBbIz0mSoCpONjj0fpqRJFxtDrtUL1Cx9fmARIMl9otm0ZARIgCshUm7mTeMOqjQ2uZY916GgoMJVyHJWdXPr0CkmzCY0sr6okPOAHmagODE68BFRhTNw6KCdBBMomVZaZsFLO65/n1RBc6UdFNi5etFgGDhzkSvupbOSBBx+Q1q1vD1syqzwNMD43CRDV2g5SyL1kygt7uxlCCmMgAZJMSfzdtl9kYlbhnwkECEiFQYMGSpmyZcKC0nvChH5wkwBREWHoB/vmZ599Js8VjJft27fHLEx42T3crp1UrVY1igiJrBi077t+kqlan/pQgEE6u3qzg/mvFxIg3srELQJEpcBn+FLzslSFzXHLsE11HqRszMuGNf9GwE0CRHV/tuKZ5EcCRBU+atWqVdK7V5+oZaTaL+3k100GAYKBIt8jSO3IYuTFoSJAkGdN5dFh5M2m94oJEWHVqlYjAcINyFcIkABRiEN1kLQbespIiZWIUDH6OE2aNFmLpWenBMWVTDU3P8hElc8FlvTPPvOsFifRalHFig2agkR1cJk1a7bAC+Ti6tWl+OmnS/HTTpPS55wjx44dlZ07dwk+vv/54j/yxRdfxCRftoqhG/Xr1asnT3brKqeeemq4Oci1YFyB5nEV5GLWqh1zdJMAUe1f2PNGj3paS75doWJFLaFw+fLlpHDhEzRroT179siWzZs1JSMsbdK1mCWkjL4dXnhYZVoILD/IxIrCPxMIEDOeBqE9wk0CRNUWvD7wLUDYLfzbqCQKnRW073vkPFO5PvUXc+A4bdoLsnXLVrmoejUpVuxkOeuss7SwPUeO/KlZOP7004/y+eerZc2Xa+LKLF2/M6meFwkQbyXgBgGC/WvEyBFSrVrVqMFv3rxFunfrHjfuu7ez9W9vKjk4CaEdOVPVfSvI3xT/SjH9R+YWAYIw2L379JLixYuHQYOBwjvvvCtjnh5jCki/ESDwnBg2fJhUrFghPH4jLzjV/M2EidIDkywCRNWukd7KiABR5fTo0b2nUrb6EIAhIqxp06YkQEy9DazkFQIkQBRIu3GQTHRoSRQOxq2PU+Q43J6XV4sU/bg9drsfXL2lg9UPfSRm8Gpp2qypFCpUKPznoB1mVdYPZtcFDhRQYLw5Z458OO/DlCgpcOHr2y9XLr/88rS78OEQN2Bgvlx44YXhueHgM3HCRHnzzTkxYnKTADFKBGlmbeCd2rd3nyxavFhmvDojKtSNmef9XAeWOE92ezLqsvDdd99Jbm5f2bZ1W8zQ6QGSfGn6RSbYh+rXrx/2HoCiHbFzx49/PgaEdCdAmjXDZaltVPLxr7/+WrL75CiVcG4RIKrLLMD//LPPpU+fbFPfKHxTBg4cILUurRUjt6B93yMnkMr12bNnD7n6mqttbQb45sHj+vXXZmqGGSzeIEACxBucQ724cUdC3qMmTW6JynuEkC4zZrwmkydN9nZCAe1NZQ2f6L5vdqqqeyvDk5lFj/UiEXBDx4QQvvAwiAzziT5AAAwaOFiQ/NpMUa3rvXv2yoQJEx2Rrr/88ov27bdaVOGvjEJ64bz3zDNjpNIFlcLd2AmDlSwCxIg0VRlTGxEg+hyp8cKD6711QxFB9OMw6xWnMtx+f+77smjRYqtijZIP8jlHhtG13dj/HtR/fxMZuTvtj887R4AEiAJD1QvnxOrWjrJdpYx0enl244DsfMnZa8EPMsHIH3nkYbm15a1RIS527tgpvXv3EYT4MVtUSanxrFMZm+3frXqqj7bVtqHw3rFjh0ycMEmWL19u9XFH9Vu2aikgcU466aRwO7hQTH9xurz00suO2k71w1irzVs0jwp9tXTpUunfTx2ezE0CRNWWHTxwgH3jjTflpX+9ZEr5aKcPr56xSkhhXCRAkisdv8jEqsI/nQkQzC0vr7+ULl06LHxcqJ8a/pTAE1dV3CJAVN93hBgZOWKUfPTRR6YXo1HyyaB930MTTvX6VMnXtDD+VxHnjHVr18mYMc8IrBJZkosACZDk4qtv3cn9Dko8KK5gkAXP3MiydetW6d6th6vKIm+R8bY31V3VSQ7RyNGr8rPgdyehsb1Fh735BQGnBAg8Qrt17ybVq18UpQ/Bd3bu3LkyaqT5XLUqHZkbONlVQqvCX8ULa6U6N1oNg5UsAkTvkRHCVbVnGBEg+rUSL/R7ZMitSHLWTQLE6dpIxjmcBIhTqXj/PAkQBeZ+ULaTAIkWjB9kghHVqVNHevbqIaecckp4gKoktfFeZRwcsnP6SOXKfydHDdVPxsaczG2lW7cn5brrr3Oli0OHDsn06f/SrP69KLDYyM3N0RLYRpY1a9ZItye7B1rhbtWqHfN3kwC59tprBIfIyOTFdmUaylkydMhQX4RMszsPq4QU+iEBYhdtc8/5QSZ2FP7pTIBY8TQISdktAuTZsc/EfJfXrl0nXbt0tfQ9UFkFYqxB+75jzH5YnyNGPiUXX3yxuZc6QS1Y/RWMe04WLlzoSntsRI0ACRBvV4ZVAgR7FDx1GzZsIA0aNJQzzzwjZsBGOZe8nVmwelPdVe0qYvUzNzIsIgESrDXih9HaIUDg8VGrVk1p1KiRXFLzkijDwdCc1q/fIDnZOZYIUz8RIKrwV4m84FQGL1bDYCWLALGyZxgRIJBtpGcbzrEqDxJ90vXI/EQkQPzw1nMMkQiQAFGsB7dzZbjlAWLWZcxoiVs9IPvpVfGDTEJ4DBo8UGrXrh0FD8IszHx9pkydOi0ubFWrVpUuXbtouQ9UJWgKkqJFi2peMSBBQpZjUFiDzMCh4eDBg9pBqFSpUlK4cGHtwISLl1EBjsAQWCazGLnuYqxIfP7Fv79IZvdJbduOVTsG5CYBgvZuuPEGefDBB6Mu1ocPH9aUgCANERcZcsAawto58cQTDXExStyeVCBdbNwOIYXuSYC4KARdU36RiR2Ff7oSIFY9DUIidYMA0SdvDLWNMGRGCR/jrU5VMtygfd8xPz+sTxgpZHVoL5dddlmUR+Ohg4fk2H+PCTwFceYoWbKkHF/oeClStIhhInrMiYrd5O2roZZJgCQf48geVHtg6LylH0noLB5vhFDgIVyqnfyG3s7cX72RAPGXPDgaNQKq/Tny7q5/Cnd37BtGBc9+s+kbGTJkqGzfvt0S7H4iQFRGrvB4GDJ4qKxYofZA1iv+MXmrYbD8ToDoz7PIiTd6VLSXjz70NaKiIGn8zp07hQSIpVeClT1AgASIAmTVAcbuJRjNu0WARLKpdtZGuhEgXsskhLlKcYbfcABAaIW33npbFi5YGLZWh73EJgQAACAASURBVMK/fv160vimxlKjRo0wUXDgwAHtQBGZfDuIChLMHcrzsuXKyqaNm2TdunWG1rIhLJq3aCFVq16oPFAlCndiZ+3rn+ncpZPceOONUUoSr8gXN8Yfrw19HGesy4ULF8mQwUPidu02AYLOoLhqeEVDLb8FYrHGi7kJj5xmzZpJgwb/lJNPPjlmrPFyIiQbUyftq8g2KOtghfzee+/FbZoEiBPkjZ/1i0xUIfjMeKClIwGi8sgzS0i7QYDo4xxj9UCBiBwsb815y/JCRKjMNm0eigopE7Tvu9/WJyxPixYtIps2fRM3tjdI9UZXN9LyGVSsWFFJhsTLvWRZ2HwgBgESIN4uCjfCxIXuMQwVZ192JEDsY8cnvUNAtT/b7R13Z+TxfP75Cba89P1EgKjCWUGv0bHj43G9gFUGL1bCYPmdANGfZ1Vz08sROWBCydJJgNh9u/hcshAgAaJA1g/hlhgCK1owfpBJ5IhUigH9UsKhAFYACAN03HHHRf0MBejLL70iTZs1kRIlSoR/c+rlk6yNIhntIvE4rDr1IajQl5Wks1bH1rr17XLPvfdEue8G3cMghAHIAxzEYJESKmZz1CSDALEqG9THeuj4eEepXfvSmPcGiejy8wfI2q/W2mk6Jc/YJaQwWBIgyRGZH2TiROGfbgQIiPGc3BypV+/yqCTwr746Q6ZOmZpwEbhBgKgICyffY1W89iARIOmyPm+55Wa5/4H7pXjx4lHryE6s8oQLkRXCCJAA8XYxOCVA8D6AFHz55VcESWZZ7CFAAsQebnzKWwTcIEBwnsFdrKDgOUd5tfySBF0VuhT74jvvvCtjnh4TV0CqXBtWwmAliwCxkjcoXgismjVrSk5udjj8e6R3RwgYPQkUaaTsJgHCJOje7hXp2hsJEIVkVXGgvU6Crt9sMEynl+cge4D4QSb6pYLk2SBCIhNom9koQuGyvvxyjZYLJNLaPV5yKTNtB62OUR4OO4lnzczdiLiyE7fUTH9e1nFi1Y5x+oUAwVhUClH83exh1Evc4/XlhJAiAZIcKfpBJk4V/ulGgNj1NAitEDcIELcvoMkwYknOGxHbarqtT9U7j1nv3btXcnP7ap6rLO4iQALEXTwTteaUADFrKJNoHJn+ezKToKu8FIE3c4Bk+qqzPn+nBIjZyAJmRmYnSoqZdq3WUYW/Ovj7QRk5cqQsXvxR3ObOPruUDBk6RM4999xwPSthsNw+f4YGocLWaFzxCBD9/FQRaSLzhOi9p90kQPy43zEJutW3LfX1SYAoZOA2UWBnc7eToCrRcnJ7Xon6c/N3t8duRyaq+cCLoW27NlK2bNm4MadDz8KCfdLESfLhh/NFdZjdvfsHyc7O1kIGZUpRySIZim4jJQgsGfLy8gOvBFFZtc+dO1dGjYyO02m0rvxEgGCMRgf0zZu3SPdu3bU47n4uKkIKh+nRo582nYCXHiDuStgvMlEp/K14vaUTAaIiwa16evmRAEnGGc7dt8G4tXRcn1lZ7aVps6ZSqFCh8MSPHDmi5Ryb8eoMr6DNmH5IgHgratUeiJC8MLTSF3wHEZY3lLcPv0MpBkvnZ8Y84+3A06y3ocOGCAwYI4tb9zrVXckoIXGawcrpuIyAan/G93DlypXyww97Ynq74IILpFq1qlF/h8HmqJGj5OOPlzganVv6GEeDENHymcITWB+xw0m7ZsNgJYsAufPOO+Xe++6JCjduZEwdjwABBvkD8gUeJShYKy++MF1efvll7f/LlCkjyI8biuih934hAeJkFfHZZCBAAkSBquog+emnKyQnO8eWDFQbGw6mHbIeM4wpaHR5njRpssyaOcvWONzObWJrEDYf8oNM4g29Xr16Wjir888/X8vpEZnoGx4f3377rZYX5M0354RjZKpCbiRaFzbh8/VjqgRiGLDZg4OZyRl5miDGPFxblyz5xEwzvq2jIne2bt0q3bv1iJt3I3JCfiNAMDZVXFUrbsWpFJhTQgpjJwHirgT9IBM3FP7pQoCoPA1wsZr+4nR56aW/LlZmCgkQMyiZq5Ou69Moyf2C+Qu0xK0s7iJAAsRdPBO1ZsVIDPvu8KeGSfXq1aOa9SL/XqJ5BP13lRxA6Pfr11/Wf73e0fTSIa+UIwD4sGsIWDXQqHFJDenTp7eAPI0sX3/9tWT3yXFkkOYHAkQV/soNsM2++8kiQFR3aKPQrokIkLZt28htt98WJogiz076UFt6XRYJEDdWE9twEwESIAo0VRvRpk2bJKt9B1vYq9pDQuDHOnSM256KsHDi+qVvD1b2r814TSZOnGRrXl4+5BeZuDlnWCQ2b9E8qkknRJubY/O6rdy+uVry68iya9cu6dmjp8B6ykkxIj/gQTB61OjAkx84kA4aNFAwz1Cx6mmA5/xIgDRp2kSzyjnxxBPDcwOh+Owzz8r773/gZFkk9dmGDRtI5y6dw/FS0ZlVQgrPkABxT0x+kAkuWX375Qo8B0PFjsI/XQiQVq1ayoMPPRhliWzFEyaEIQkQd96TdF+fqlCqbhpauCOF9GiFBIi3crRCgGBkqu8h/m5n//V2pv7uTXWvc5JLKnK2qvOgW237G1WOzm0ErBIg6B+5GW+++aYYL0qrBiv6ufiBAFGFv3IDc72nhFGbySJAIsNShfr+4YcfJCc7V7Zs2RI1nEQEiD7PSaQeU+9pAqPSvP554fZJgLixmtiGmwiQAFGgqXIZ27Ztu3Tt0tUWy231YBoaksqV9t1339OUtlaLnY+d1T6SWd8vMnFzjnr5BomQchMHtJWsj78q5A36gxIdoS9mvj7T7al43p4qtMeBAweUbszxBnfCCYWlXLlyUa6yhw4dEsSGPnrsWNSj27dvl+HDhid9rkGMow+PJrgCV65cOYwP3u1dO3fJb7//bgmz0047VUqXLh31zP79+2XPnr0x7cz7YJ7MmTPHUvtGlfVkedAv2X6RieqiB2x37txlSW7HFyokZcqWkSJFioSfw0UL7+Wffx6Jamvf3r1SUFDgmEi2NEATlY1CMOzYsUMOH/7TRAt/VznrrJJy5plnRj2DhL4///xL1N+OHPlT86BVhWxw+xsUxDNXuq9P1VnciXGTpUWaYZVJgHgrcDv3zJ69ekqjRldFhXxxmmvS21n7rzfkhrzjzjuilMRuYaoyFDNSZvoPGY7ITwjYOZ8gvBGM7XD2jCxOQ7z5gQBJRvirEEarV6+WHt17xhW/2+dPdAajyLy8/lKyZMmovo0MsBMRIHov2si9p2fPHnL1NVdr/ahyjJAA8dPbz7EAARIginWgZzlRxckhQ2V19sbsN2TcuIK4qzByQwlVtOshoEqqrkpi5NfXwi8ycQsfVcKsIFi2uzV/fTvJ+PiD/MjL7y9VqlSJuuClE/kBHJ0mv7QjU6+URkEkQJwmF7QjDzzjxDtQ32e6ESB+kYlqn7Mrb7PPOb2cmu3Haj3Vu221Dav14ymi3P4GqUIuuaUIszpvs/XTfX2SADG7EpzXIwHiHEMrLdghQKpdVE1ycrKlRIkSUV0xIboV5KPrqu6qqGHmzp+oV5UuIRPDJifCib8nRsAOAYJW77rrTrnn3uicEk4ToqeaAIHn64iRI2JynKiMaBIhC6OkMmXOjQqDbiYMltvnT4zz9ta3CwjZwoULRw3byJA6EQGiDxMWmSA+cm9S6RZJgCRaOfzdawRIgCgQV11cI190K0LSJwbCs2aTlrnp9aAKJeOE1LGCgRt1/SITN+aCNlSHZL8qqtyac7x23P74q2LLh949XEQmTJjoxbQ86YMEiCcwm+7EL8p20wNWVCQB4gS9v5/Vk1LprmC2gprfCBBVfHUk+czPGyCw4LNagkjepvv6JAFidRXbr08CxD52dp60Q4CgnwcefEBat749SmEHhebcuXNl1Ejr0QbsjD2dnjHKNeQ01F6FChUkf0CelCpVKgoufaiZdMKSc0keAnYJEKP8QXbCLodml2oCBAbCvfv0kuLFi4cBh6FkwbgCAVlgpai8LsyEwUqGDkRF6sTTZSYiQICDytNj8eKPovam77//Xnr36iM7d+4MQ0cCxMoqYl0vECABokAZG/zYcc9KxYoVw7+qXLrMCEgVV9DspVqfVAj92U0ArHLvM5OHxMwcvajjF5m4NVckE7vyqiujmlu2bJn0ze3nVheBakcVN9euZZMR+XH06FF56623ZdzYcYHCJtFg05kAUe2BfvdcIwGSaMV6/7tfZJLuCmYrkvUbAXLllVdIly5dpGixolGXYLv5hlRGJ/QAiV0hXhp+5A/IF3xTIotdr2oraz0T65IA8VbqdgkQeEoPGz5UzjvvvKgBMyG6PfkZJVM2YwUer8ebbmos7bPay0knnRSuZkaxam8WfCrdEbBLgACXRo0aSadOT0SdlfB3uwnRU02APNTmIbn99tuiwtY5OZeowtcnCoPlNgHSuDH2i0ejwuRCRps3b5Hu3borw/mbIUBUuT4WL1oUdXZWkb0kQNJ9Rwne/EiAGMhMFX7KjoJaFQ/UbD4RVZgkuxdoVSIku/lEUrXM/SATN+aucju3a23gxnj80IadA4PRuLM6ZEmTJrdEWbSB/MB6B/mBf6dTSWcCROUF5/QimWzZ+0XZ7mSe9ABxgt7fz9IDxBhHvxEgKstdWEIjZ8j48c9bXhBt27aR226/LVDx9dOZoEMeIFhEli9fLkqWQTsHW16IKXqABIi3wNslQDDKZs2aStt2baOU6/j7mjVrpNuT3dPuzJxsyTz+xONasujjjjsuiqxA3sEZr86w1b3KaM6uQaStAfChtELACQECIPr2y5X69etHrXHcrV99dYZMnTLVElapJECMwl/Z0feFJm3n3uomAWJEaieSjxkCRG+UCEPV5cs/lTvuaB0mkFTh/kiAWHolWNkDBEiAGICsClG0d+9eyc3tK5s2bjIlGqONdcH8BTJkyFBTbaiU/qtWrdLcy8wWI/c+u5aNZvt1u55fZOJ0XqrEg/FYeaf9+f15lcuoXcWTEfmx5OMl2juXbuSHm7JVKSSdWMG4MTYkE69du3ZUU9h/O3Z8PCNkqToUOzmYm5VJuhEgZudtpl6qZBI5NtXlNeiJ6s1gb1RHpfyzmhPHyHJ37dp10rVLV8v7jYrUt2vA4gSbVDzrx/V5xRVXSJeunaVYsWJhSDJFHn5ZA1bfSbfGjfVYskRJLTnrli1b5Mcff3SraUvtVK5cWU499VQ5cvSIbFi/QQ4ePGjp+XiVnRAg2PsGDhwgtS6tFdUF3o8pk6do+cXcLsnEwuxYixYtKpWrVJbCxxeWX375RRAVwY2i2mvQLtrH3f3nn3+21I1RrharuoBEnfpBJlDeItxXoUKFZO++vbJt67ZEw07K737YM5K1PgGYUwLEaE0itHq/fv1N68kwllQSICr9mNNzgcqYJpG3llsEiFEEDOC8detW6d6th+H3zwwBog/rD4NEGHXXqlVTew8PHz6sGQy9NeetqPeSBEhStik26gABEiAG4Km8LxKxp/qmVG6CVhNdq5T+OLwPHDhIvvj3F6ZE37lLJ7nxxhujmPpdu3ZJzx49BQrOoBS/yMQJXi1btdSSUundmKe/OF1eeullJ00H9lmV+ynCHI0cMUo++ugj0/NSYQsiZdmy5ZKfl29ZgWW64zSp6DcCRHUwhTzfeeddGfP0mDRBPf40UqVsJwFiLJdUySRyRH5UMKfyhXSDAMH4VaFC7XyLVHsX2nd6sU4lxlb69uP6VFlQWzVqsoJBptf1gwcIFPoIr1q2bNnw/Qfv4JIlS2TY0OGenQmvvfYaadO2TVSycZAfUBJNnDjJlaXihADBAGDZ+2S3J6Pi4OPvSAQMwz+3FNFeYJEIUCgJYSx1/fXXhe9iOFvu2bNHnhnzjCAsnpNiZPwIJaidu57KaM7NqAF+kAmID4RVqlO3TjhpM2QCwvKpp0ZYUqg7kZ0f9oxkr0/g45QACZ2XmrdoHpM/aOnSpdK/X55pMaSSAHE7/FVo0qqoK/HCYLlBgIAw69Gzh9Srd3mUvg9jwn4xccJEefPNOYZyMUOA4OFI4x58T0F6nHzyyVq7Rl5pJEBMvw6s6BECJEDiAK1yY0Vyn7y8/IQfY7jbDxiYLxdeeGFUD1Yt/dHOsOHDpGLFCuF2rCh1VYfaICsR/SATu+8mCLEOj2UJZBpZ7MbNtDsOt57DgRUfVSdWbA0a/FM6de4Ug4lVq1sj8uPTTz+VwYOGOBqjW3j5vR23CBAcwkDwObGyxNpCvPYqVSpHwYbD1aCBg20lJfY7/qrxpUrZTgLEeLWkSiaRI/KjgjmV75dbBIgRcfH5Z59Lnz7ZphWmKoUV8CEBMlA+++wzS0vlzDPP1C7VTrw3VecDDGLxosWaMRGL+wikmgAxCgOCmWItIUyHndB2VpEyspQ2q5Qy259TAgT9qIzl3EyI7hUWiTC766475Z577wkr2iPru0X43N76ds3YrXDhwlHDgffH6FGjBcnLzRSjvcuuN4m+T7/IRLX2QmP16o7slz3Di/XpBgFihJfVhOipIkCMiEo3PKtU4e/jhW92SoBcfvnl8vDD7aRM2TIx2wr2cDOklFkCRJWzNdSpUe5WEiBmdnvW8RIBEiBx0DaK5b5+/QbJyc4xVPBhU0XoqgYNG0Qx47D+sBMDVPVxMJPQGaGFenTvrjH9kSXIVm9+kYmVlxTr4d777pVbb20Rk5DK6mHYSr/JrouP5dVXXy3vvPOOvP7a65ZJhoYNG2hWWCVKlIga6qFDh6Rg3HPy3nvvmZqCikTBB3/9+vWSm9PXkSLe1ADSpJJbBAja6da9m3y1Zo1Mm/aCbN++3RJC//jHP7Tnq1e/KMqKBTJduHCRDBk8xFJ7Qa6cKmU7CRDjVZMqmUSOiARItHzcIkDQqqotKzmkWre+XVOuRXp5hkZLAsQ6AdKvX1+pULGCvDbjNXnvvbmWiZBbW94q9957T9hCMSQLq57UQf6OpGLsqSZAVN7zkTiYzcXoFDuVIiyyzUTJcc327wYBYnS/+vXXX2XUyFHy8cdLzA5HWc8rLBINUmWdHXomUaiaRG2HfjcygsTv2Htwx1m4cGHc5nBvvO22VjH3Rqt3pHid+EEmqugOkWOGQn3kyJGyeLH5iABm5RRZzy97hhfr0w0CBNip9FP4O0IV9+7dx9T9O1UESPWLq0vfvrlRXm929XT69aYypom3t9ghQGBs2OjqRlrO04oVK8Z4fWBMuDd/+eWXMiB/YEJZmCVAmjRtonlLn3jiiTGvGYjdvP6x3j8kQOzsSHwmmQiQAEmA7gMPPiC40EKJHVl27tipkRn6ED2wpsDGAM+PyARoeNZuQjn0PfypYVK9evWoMeBSvnLlSpk4YVKUkhH1Gze+Ue65914588wzYp6xk6QqmYvQatt+kIkZK3dYR9zY+EZNFlDq6tcDvCewhmYmIb6uVUzt1I/8WMILBDGNFyxYKMhRYGT9j7VZv349ad6ihVStemGMdZQV7yaM2chtHwcNKN7//POInalFPYN2hg8b7rgdvzfgJgGSndNHUzhhj9qxY4eWJG3+/PlxwyiAsG3WrJmA0Aq500ZiZtb7zu84WxlfqpTtJECMpZQqmUSOiARItHzcJEBqXFJDEC4J3+/Igm/TF198Ic8VjBdYuelLuXLlpG27NlrOIr3Vb6guCRDrBEikbBGn/8sv12iKwxWfrjA0ukikGDBjQGRln2bdWARSTYCo9unIUcazxnVTnqq9KbJ9t4gYNwgQjMvI+tzu/TVyrl5hEU9+RiRP5DPvvvue5qXhtBh5uKNd3FHWrfta5syZE7WX4bsD47Cbbr5JqdR00yMH4/CDTFR3j0js3SKlEsnTD3uGV+vTLQLEKH+QlZDxKgIExqGffPKJHD78ZyKxxf39px9/lDlz3lLm3bHqpWFlIEbeJUaEt2rtqTBADrMyZc6Vs846SzujGp01MVYr5AfqmyVAVMQRnkeOrVdefkXTa+mLmwQIwv9v3eY8N9DKFStlxQpn4Q5D89Tvo5s2bZKs9h2sLBnW9RgBEiAJAI+XUAiPQomNSxk+0MWLF9csNfSKbtRzam0G5WBubo6mSNcXbHKHDh6Sffv3aYpD/KdiZvGcG4dYj9doTHd+kAkObH2ye2uJ2pD0648/DofHefzxheTss8/Wkm3qibNQJawbEB+qD0Wq8TXbf7zDIuaHdwLEyIEDB6RkyZKaRSz+M8LEjteGkfWJ2TmYqZcpH7JkECB6fLEmsDZwOMZ7c8opp2hJQU844QTDPSu0fyLvh9mwAWbkGoQ6qVK2kwAxXh2pkknkiEiARMvHTQIELccLQYHvFEIyIV78sWP/ldD3HntZ5NkPoVR+2P2DgFAJFRIgzgiQSKlr595Dh7RLN87gsFIvVaqUnFD4BClSVH0Ox/OhcBCwiHQSVisI349UjtHvBMhvv/2mWcVaDclmFdNECmbkYczOznacY8MtAgSeC4MGDxQkxI4sdvNXRLbhFRbxZGRGwQwjrr65/ayKWlnfKISVncaxd2G9In+NkxCzfpNJIgIE43399Zny/Pjn7cBm+plEBIgXe4ZX69MtAgTg1qtXT57s1lW7y0UWkMz5+QNk7Vdr48ogmff4ePur1TwdphfS/yqqcsoZRWBJtPas9o39ev6H82X06KdNn3PMEiD4RowYOULKly8XNax4nlpuEiBWsTCq7+aeQgLELal41w4JEBNYG8WjN/GoVgUs7thnxyV0d03UXjxrkkTP4nfEDMWBH5bUQS+plomZA5sRxlCeIBnV++9/EGgxuPnBxsEe3kxPDR9h6WCfzINTSDgkQKxdzp28G6oXAvsVDnGIw59pJVXKdhIgxistVTKJHBEJkGj5uE2AhJKQ3nRTY0PCPt5ehIs/LIixFyJJaKiQALGucE6kNLXyTbCjFLDSPuv+jUCqCZBEoX1ggJGTnaslWU5mQTjkq6+52rALo5jpVsfkFgGCfpGvEAmpixYrGjUMp2SNV1jEwy5RuCU8i/ww48YVWBWBYX3kA7nnnrtjQllZ6SAZ5Af694NMjCzKI7+bkyZNllkzZ1mBzHJdP+wZXq1PNwkQAG2Uw8UMmZjMe7zRnmUU/urFF6bLyy+/bHntqB6oU6eO9OzVQzP0CxWjEFtu6VOwTyDqAiLDLF++3NI8zBIgaDS3b64WrSGy4K7eu1cf2blzZ0y/JEAsiYKVPUCABIhJkKFwB8N92WWXKT08jJpxW3lX69Ja2sFU5QliNAa7ymWT0KSsWiplYkfJiw/fihUr5bmC59KChEK81AcfeigmzJrVBQFCCC6qL/3rJdOWCqE+knlwCvVBAsQaAYKDddeuXaRKlSqW9kr9uoGyEC6qzz03Pi3eF6vvBeqnStlOAsRYWqmSSeSISIBEy8dtAiTUulEM9njvMkLajBwxUtatWxcTH5sEiHUCJJQ/TRUW0eyeijPwvr37ZNoLL8j7c983+xjrOUAg1QTIFVdcIV26dtY8sVVl7dp10rVLV8tnTquQGCXDDrWzeNFiGThwkNVmY+q7SYCgcVV7TvOweYVFIjDh4YJQhaoCD+WCcQWCMFhuFiQpRojEsmXLWj4XY0y4I02eNNn19eoHmcCifNjwYVKxYgUl5LgjDho4WBA+KJnFL3uGF+vTbQLEyHPFTL6aZN7jjQiQZIa/Cq1Ro3WtSrLulADB2fLrr7+W11+bqYUht1OsECAq/L766ivp3KmLsmsSIHYkwmeSiQAJEIvoXnfdtdL6jtZxDzE4JO7fv18WzF8g06f/y3Jy6ERDQnzj+++/T6659pqo5E365+DeD+um2bNmy7x5HyZqNrC/p0ImZgmQ0FpAnMGZr8+ynBDa70KBpWzTpk0FMihXvlzcMEaRc8HaBDkIZcSbb86x/Y4k8+AUGi8JEGsESAg3zfq5eTO5qPpFWlg+VWhA/frG+4JwJsuWLdeS3lpNoO7398Xq+FKlbCcBYiypVMkkckQkQKLlkywCBL0guWT79o8K8rshVJ9RgZIGIQemTXsh/D3TnxNIgFgnQIA3zrzIxXfFlVdoxj/x4l5HygdGJ1u3bJU358yRD+d96Lry0Op+nkn1U02AAOu+/XKlfv36MWcPhOoYN26cJ17Y8ZJh799/QAYPHiyIae60uE2AGOVCAnbwyE2UwFs1H6+wSISlUe5AnD8RJrp7tx5J2StwX2rRorncfMvN2j5mFA5YP36nnjfx8PCLTJo1aypt27XVwiRHFshkwYIFMnTIsERideV3P+wZXqxPtwkQgG+Un3Xr1q3aO2UUti2Z93ijd0cV/iqeAt/u4nr8icfl5ptvivoGqcJgWSFADh8+LPgP7Wz+ZrMsW748bk40s2O3QoBceeUV0qVLlygvwXi5k0iAmJUC63mFAAkQm0jDTbFBw4ba5RgJiQoVOl6++/ZbTWH38ZIljuO5mh0WEqNfVqe2lC9/npQoUUKOHPlTYIG4/uv1cZNRm20/SPW8lAkOrnChrFWrphQvfroWC7Fw4RPk2LGjsnPnLk2Ju2H9evn889WWQjoFCW/VWBE3+OL/u1g73Bc/7TQpfc45WrXQuvzppx/lP198KWvXrrVNegQdo0wcP97N6tUvlgsqX6CFAQi9L8AC++b+Awdk44aNsmbNl4IDKwsRIAJEwE8IQAlfp24dwZnrvPPO0/YxhLratm2rrFyxSlOcsSQfAZy9qlatKpdcUkOKn366lgwUZ18UWJsi/MP+ffvk3//+QvPCYZ6P5MtE1YMfCBCsFRisXX/9dZqxGJSp27fv0BK1Wg0P4gRF7B0PPvSgFjIE/8aa3Lhxo0x4fqIgBFYmFb9ggbt7u4fbygUXXKAREchXiBxzUyZP8eRugggGuD9WrlJFuy+F7u97ftgjdS+vq62TUHE78bl+vflFJvCSuePOO6Rcub+8ZGBU8MEH8+TVV171bB/3y56R6vWZSXsS50oE7e2XHgAAIABJREFUnCLAHCBOEfT+eRIg3mPOHokAESACRIAIEAEiQASIABEgAmmHgB8IkLQDlRNKewSggB/+1DCNaI8sv/76q4waOUo+/nhJ2mPACRIBIkAEgoQACZAgSeuvsZIACZ7MOGIiQASIABEgAkSACBABIkAEiIDvECAB4juRcEABQaBx48bSPuvRmKTpCBucl5cvmzZuCshMOEwiQASIQPojQAIkeDImARI8mXHERIAIEAEiQASIABEgAkSACBAB3yFAAsR3IuGAAoIAvECQiwIhofRl/foNkpOdk1GhlQMiNg6TCBCBDEWABEjwBE8CJHgy44iJABEgAkSACBABIkAEiAARIAK+Q4AEiO9EwgEFCIFKF1SSfv36SqlSpaJGjXwgn332mQwbOpwkSIDkyaESASKQvgiQAAmebEmABE9mHDERIAJEgAgQASJABIgAESACRMB3CJAA8Z1IOKCAIdCyVUt54IH75aSTToohQdavXy+DBg4WhMViIQJEgAgQgdQhQAIkddjb7ZkEiF3k+BwRIAJEgAgQASJABIgAESACRIAIhBEgAcLFQAScI5DVIUuaNLlFEBZLX0B+jBtbIMuXL3feEVsgAkSACBABWwiQALEFW0ofIgGSUvjZOREgAkSACBABIkAEiAARIAJEID0QIAGSHnLkLFKLAIiPnNwcqVfvcjnuuONiBvPLL7/IsKHD5NNPV6R2oOydCBABIpChCJAACZ7gSYAET2YcMREgAkSACBABIkAEiAARIAJEwHcIkADxnUg4oIAiABIkO6eP1K9fP4oEOXr0qLz11tsybuy4gM6MwyYCRIAIBB8BEiDBkyEJkODJjCMmAkSACBABIkAEiAARIAJEgAj4DgESIL4TCQcUYARAgnTq3EmuvfYaLRwWkqEvW7Zc8vPyBUQICxEgAkSACKQGARIgqcHdSa8kQJygx2eJABEgAkSACBABIkAEiAARIAJEQEOABAgXAhFwH4F777tXWrVqKRs3bpQB+QPlxx9/dL8TtkgEiAARIAKmESABYhoq31QkAeIbUXAgRIAIEAEiQASIABEgAkSACBCB4CJAAiS4suPI/Y3A6aefLn/88YccPHjQ3wPl6IgAESACGYAACZDgCZkESPBkxhETASJABIgAESACRIAIEAEiQAR8hwAJEN+JhAMiAkSACBABIkAEXEaABIjLgHrQHAkQD0BmF0SACBABIkAEiAARIAJEgAgQgXRH4LTTTpOmTZtI8dNPD0915YqVsmLFinSfOudHBIgAESACRIAIZAgCN9xwvVS64ILwbHd//728/vrMDJl9MKdJAiSYcuOoiQARIAJEgAgQASJABIgAESACRIAIEAEiQASIABEgAkSACBCBOAiQAOHyIAJEgAgQASJABIgAESACRIAIEAEiQASIABEgAkSACBABIkAE0g4BEiBpJ1JOiAgQASJABIgAESACRIAIEAEiQASIABEgAkSACBABIkAEiAARIAHCNUAEiAARIAJEgAgQASJABIgAESACRIAIEAEiQASIABEgAkSACKQdAiRA0k6knBARIAJEgAgQASJABIgAESACRIAIEAEiQASIABEgAkSACBABIkAChGuACBABIkAEiAARIAJEgAgQASJABIgAESACRIAIEAEiQASIABFIOwRIgKSdSDkhIkAEiAARIAJEgAgQASJABIgAESACRIAIEAEiQASIABEgAkSABAjXABEgAkSACBABIkAEiAARIAJEgAgQASJABIgAESACRIAIEAEikHYIkABJO5FyQkSACBABIkAEiAARIAJEgAgQASJABIgAESACRIAIEAEiQASIAAkQrgEiQASIABEgAkSACBABIkAEiAARIAJEgAgQASJABIgAESACRCDtECABknYi5YSIABEgAkSACBABIkAEiAARIAJEgAgQASJABIgAESACRIAIEAESIFwDRIAIEAEiQASIABEgAkSACBABIkAEiAARIAJEgAgQASJABIhA2iFAAiTtRMoJEQEiQASIABEgAkSACBABIkAEiAARIAJEgAgQASJABIgAESACJEC4BogAESACRIAIEAEiQASIABEgAkSACBABIkAEiAARIAJEgAgQgbRDgARI2omUEyICRIAIEAEiQASIABEgAkSACBABIkAEiAARIAJEgAgQASJABEiAcA0QASJABIgAESACRIAIEAEiQASIABEgAkSACBABIkAEiAARIAJphwAJkLQTKSdEBIgAESACRIAIEAEiQASIABEgAkSACBABIkAEiAARIAJEgAiQAOEaIAJEgAgQASJABIgAESACRIAIEAEiQASIABEgAkSACBABIkAE0g4BEiBpJ1JOiAgQASJABIgAESACRIAIEAEiQASIABEgAkSACBABIkAEiAARIAHCNUAEiAARIAIxCJx9dilp3769lChZMvzbkSN/yqyZs+Tjj5cQMRMINGzYQG5teasULnxCuPa+vXuloKBAdu/+wUQLrEIEiAARIAJEIFgIqM4P8z6YJ3PmzAnWRDJwtE2bNpXrrr8uaubbt2+X4cOGZyAanDIRIAJEgAgQAWME2rZtIzUuuSRcgd9L/68WEiD+lxFHSASIABHwHIHy55WXAQMGCBQZofLnn3/KxAmTZPbs2Z6PJ4gdtmjRQtq2ayMnnPA3AQLiIzs7W7Zt3RbEKXHMRIAIEAEiQATiIqA6P7z++kx5fvzzRM7nCDz8yMPSqlXLqFFu2rRJstp38PnIOTwiQASIABEgAt4i0D+vn9SrVy/cKb+X3uJvpzcSIHZQ4zNEwAABKIsbNGwoVSpXltLnnBOu9euvv8iGDRtk5YpVsmbNmozAD1hceumlUumCC6Rs2bJSpEgR2bdvn3z77bey+vPP5fPPV8vRo0czAosgTtJLAgR9XVStmlSoWFHOOussKVGihAYZ3pudO3fJ999/L6tWrQocaUACJIgrP/6YK1euLKeeempUpb379rq+NosWLSp16taRGjVqSIUK54W9iLCHbtq4UebNm5cxXkTHH3+81KpVU2pfVlsqVjxf+5agHDt2VNsf1ny5RpYtWyY//vhj+i04zogIBBABEiABFNr/hkwCJLiyszvyyHPNzp07MuZsYRcvPkcEiAARCCFAAiR4a4EESPBkphzxtddeI23btZMzzzwj/DsZSG+EC+VMixbN5ZYmt0jp0qXluOOOi9vxL7/8Iks/WSr/+tdLmmI3nQqwaNz4Rml1W6uEWBw8eFBWrVwl06a9IHAXtFPGFYyVSpUq2XnU9DOZ6vWQbAIE5Fjz5s3k4v+7WIoVK5ZQHkHcz/xIgLj5zmSaRW/LVi3lgQful5NOOilqvUL53je3X8I1bKbCP/7xD2nTto3UqXOZgAQxKv/9739lx44d8uorr8q8eR+aaTpwdSpWrCj33X+f1Kx5SVwsMDGQ6Vu2bJHZs2anLR5eCVC1byWj7yDu6cnAIR3bJAESXKmSAAmu7OyMvNpF1SQnJztseARjvd69+sjPP/9spzk+QwSIQBIQwHt6ww3XS7VqF0mps86SIkWLhPVNhw8flt9++022bt0qC+YvkI8++ligY2HxBgESIN7g7GYvJEDcRDMFbUHhjNhzTZs1jQqzgqHwcpl8gdS6tJZkZbXXPBwSER/60YAIAQmCnArpUKCserJbVzn//PMtYXHo0CGZNWu2vPjCi5Y9QtxU5hrJgASIuyGwLr/8crnvvnvl/ErW1kkQ9zO/ESD4Xowd96zgXXWjZBIBUumCSpKbmyMgKPTFLQIE+WLuvvuuGA+TeLKC4v/TT1fI6FGj08YDAus0q0OWXH/9dTFkU6J1C2LoP//5UkY8NSLtDAwSzd2t30mAuIVk5rZDAiS4sicBElzZ2Rn54088LjfffFP43papdx472PEZIpBsBG648Qa56647tbuHWT0T9EvIuQUDUxIhyZaQCAmQ5GPsdg8kQNxG1MP2Tj/9dE3hfNlllyk3xSAqDD2Ez3FXjRo1kg6PZclpp51mu60jR47I22+9LePGFdhuww8P1q1bRzp17hS2ILI6Jijxlny8RIYMGWqJBCEBYhVp8/Xd9gCBUvOhNg9J06ZNLCs1Meog7md+I0BUMjW/ImJrZgoBgrWbk5sj9epdrvzWukGAwLMEHiZ67xIz8oHSf/369ZKb0zfwJAi8Xnr17il169Y1fdlTYYRQiwMGDJRNGzeZgZB1IhAgAcLl4BQBEiBOEUzd8yRAUoe91z1DqTpk6GA5JyJkM8awefMW6d6tO71AvBYI+yMC/0MAhmpPdHpcLrzwQttn4Z07dsqzY8fK5599TlyTiAAJkCSCm6SmSYAkCdhkNwvPg8c6dJAyZcsYdhVEhWGycXOr/RqX1JA+fXoLSCh9gTLqp59+kj179sixY//Vfi5R4kw544wzBIo0ffnjjz9k6tRpMvP1mW4Nz9N24llGYyCY34EDBwQWCSVLltSsmwsXLhwzRpAgb4EMGjvO9PhJgJiGynJFNwkQrPvsnD5Sv359w4McyECskb1794bfGwy6ePHTtHcH4X6CloTTbwRIhQoVJH9AnpQq9bdXj+WFEfFAphAgRqGvQlA4JUAaN24s7bMeDee2iJQJ9kW8F/ieIPcFZKciSfDdWbZsueTn5VsikZ3IPxnP9uzVUxo1ukq5T8DNf/fu3fL773+59p900oly9tlnG4bHWr9+g+Rk5wSeFEoGzvHaJAHiNeLp1x8JkODKlARIcGVndeQwSrr99tukUKFCUY/iPD79xeny0ksvW22S9YkAEXCIAAxscSdQ6ZjQNN5P6FZCBe8v7gcqDxHkxisY95wsXLjQ4aj4uBECJECCtzZIgARPZoIwGffee4+cfPLJcUdPAiQ5woUyd+DAAQISKrJAAfX111/L+PHPy9qv1sZ0Dkubhx56UBo0bBBDAOze/YNkZ2e7nkg3OQj83SqwGP7UMKlevXoMFlBYvzDtRfnoo4+ifoOFb+s7WkuTJrfEhHqxSgZ1695NypUr59o0TzzxBC2cWSRBA4V8bm7fjLMkdosAwRrp2bOHtu71BCDemc2bN2vE18IFC+O66p59dqnAJWb0GwGCvCsgoiK/Hb/++qvs2vWtrXcILtZz5syx9WxQHkpE8GIeTggQfBcGDRoYY8yAC86qVatk4oRJUTmSQnmW7r7n7hiPO4SumDJ5ioCYCmLBpa9TpyekaLHo3CeIbfzmm3O0fCcqd/7rrrtW7rv/fsEeEVmOHTsmc96cE3gPS69l2bBhA+2cWbjwCa51XarUWRqRHSrY+995510Z8/QY1/pgQ/5BgASIf2RhdSQkQKwiFsz6UK4OGz5UzjvvPOUEkE+ge7ceNCAIpng56oAiYBRdBGff1av/LW++8aasXr06ZnY4/7Zs2VIaXd1IihcvHvU78vkgTO6SJZ8EFBV/D5sEiL/loxodCZAAyQyKDygHrrn2mhgF+v79+zULjki2mARIcoR7xRVXSJeunaMSN1uxvm3d+na55957oqx4oaiZMeM1mTxpcnIGnaRWVQpeYLF06VIZkD8wriVy1apVpUfPHnLOOaWjRgeXzd69+6Qkfrs+Fi4GtnjRYhk4cFCSEPRvs24RIEbW8/v3H5ApU6bI+3Pf9y8IDkcWBAKE3wljIeOb27dfriBvTahs3LhRCxcRSSI5IUCQQwo5vCItMEEEwyMQnoFGBcQJyKzKlSv7Zv90+LrIoMEDpXbt2rYubkZ4IBRWzx69UvI9cYpHujwPEjEvr7/mARoq8JIdNHCw8iKfLvPO5HmQAAmu9EmABFd2VkZ+e+vbBaE3QwZfCBcJ44Nzzz1Xawbep6++OkOmTplqpVnWJQJEwCYCCCf+ZLcnowgMvIcrV66UcWMLTJ1jYWT65JNdpf4/60cZHX7//feSl5efccacNkVh6TESIJbg8kVlEiC+EEPiQcDKvUvXLlK1amwswG1bt8nEiRPlsY4doywgqdhKjKudGo888rBmHRnpamhFyWLkQfLVV19J505d7AwpJc9gHiNGjpBq1apG9W8l7Ei1i6pJTk52lCVzqqx2VbFwf//9dxk5YlSMF0tKAPe4UzcIECi++vXrGxNyKVPi8/uNAFGNx4ny3uMl6Xl3rVq1lAcfelBOOOEvS3gQE7NnzZYmTZu4QoCo9pwQgdy/X17C+apCMQaVTFftN1bnovIggcyefeZZef/9DxLiyQrJQUAVZgXeTb179UlOh2w15QiQAEm5CGwPgASIbegC86D+/gaPUxhcFCtWTGCkF/LWTqVBWmDA5ECJgAsIwIA5f0C+VKnyt1GTGWMoo66zOmRpkTZC77KVu4UL08moJkiABE/cJEACIDOEI8BGVqJEiajRYjP7ZtM3WuLos846Kya0CQmQ5AhXv9GhlwXzF2hyMFtAoLRp81BYsYbnwM5DIbBz506zzaS0Xp06daRnrx5yyimnhMdx8PeDMnr005ZiTd51152aR0xk2CkrhJJbIKjGsXbtOunapWugY+rbxccNAkQVz3/fvn2Snz9AGSbO7lj9+lwQCBC4ROf1T6xs9yvGyRqXirxDYtD58+drVpMhUgT92yWR9BaYaMvq+6HyWgtiAlNVeDZ4CfTvnydrvlxjSsy46I0d96wgeWSo4Jz02ozXZOLESabaYCV3EVCFWcGlvmBcgbz77nvudsbWfIMACRDfiMLyQEiAWIYscA/cdBPyjrUPRyII3bkwkciQnFaNEAIHBAdMBHyCQMfHO8rNN98U9ga3kxdVPxX9HdyOjsYn8Ph6GCRAfC0e5eBIgPhcZnBlGzxkcIyVPS71cIl7avgILT6nSnlAAiQ5wlUl3raaDFglr6DlAYES8I4774gK3QIX6o4dH7dEGJx22mkybPgwqVixQlhgXitIVGMIWUTNeHVGchaSz1t1SoCorNMzLbGi3wgQlWLD6t7l82XryvBUoa+QXwP5OFDatmvjCgEydNgQqVmzZtSYrZIpeL53n15RLvNB9Fxz611RGShwjbvyWthqREXyBZGgszX5DH6IBEhwhU8CJLiyMzNyfRQCfT6mBx58IMoLJGh3UzMYsA4R8BMC+vuylbDq8eahMkD5/LPPpU+fbEt6Gj9h5cexkADxo1Tij4kEiE2ZIdlQg4YNtYTJ5cuXCyeL/O7bb7WEpR8vWeJaQmt9ElYoYpDYExaNYIhRMpkAwWEO+SQuuaSGlD7nHClT5lwpVOh4DZdDhw4JknHv2rVLSyiLcGFOy7Njn4mJu25VwZIOBIhK0QSLTiTaslpUITKsetVY7TOyvt4aCr+lwgvFyRwSPYuDUL169aT6xdXD7wjej82bv5FVK1fJ55+vjjoQOSVA0sUyPRGu8X43q9QF0V2nbh2pUaOGVKhwnvY9OXbsqOzcuUuzfodSHES306JXbMC675WXX4mba8Jpn0F8XuUNtnz5ckFYqqZNm7pCgDh9vyJxHTV6pFx00UXhP+HyNGvmLBk//vnAwI+wYggveeKJJ4bHbEfxkkwCBGeNWrVqSs1atbQ8MCGvXOyjSBi7Zs0aWfHpCmWi9sAIwsWBqsJkum1RTJm4KDAXm8pkAgRrslGjq7R8jaeccqrgXrhixQpZuHCRUumE7/+NN94odepeptWHF+CypUvlo48+dmUvqV69ulxWp7Z2b0H7KBjT+g0bZMnHHwv22chCAsTFF8GHTenzWOJsiTyHX/z7C220CM2p9wKBzmHcuAIfzoZDIgLBR6BPn95y5VVXOjr7GqGg128E0UDK7xImAeJ3CcWOjwSIBZnhUNuiRXO5pcktUrp06agcEPpmoIBAYnIocadP/5fjQ2yDBv+UTp07abH8XnxxuqbciCyZRoBAmdvi1uZaclqQUJHhk+KJ9JdffhGw38AQRJWdolKwvDH7DUuHwxtuuF4e6/hYVCL0oIXA0nvCgJibNGlyzNo0g7EqnNa2bdu18FM///yzmSYc1dEn39VbRDlqPMUPIxxM+/aPCvKtRIbt0Q8L78aihYs0YvXgwYPiREELjxrkhwE5HCrw/njxheny8ssvpxgR77pXESCbN2+WDlmPaYoQXDTbtG0jdepcJlCCGBW8W2u/WisFBc8JnrdbcvvmCr4loRLyapg9e7bdJtPuOVVeoh9++EH69euvJQ90K4+K6hsAxRf6Wf/1eku4qvJSBS2nlOoMA9xzsnNly5YtpvFQkUFOQ2BhD73v/vukZs1L4r6nGCTeqa+//lpe+tfL8tlnn5kedzpW1CvaMMe9e/dKbm5fx4k4KRN/r5h0J0Aiz7+R+zYM1rp1e1LOO++8qDsizpTbtm2TUSNHy7p168LCQ9LbJ554QkqeVTJGoFBMT5o4yVb+ItwVW9/RWosBf+aZZxreV3EOwZkCZzOQ/CgkQPz9bjkdnV7ZunjRYo0AiSx6LxC39m2nY+fzRCDdEMA3Iy+vv5Qs+dc3AHvyq6/OkKlTpsadasj49/jCx8uG9RsM9Yx6Q5R00m/4ZS2QAPGLJMyPgwSISaygaEfYCyjbI5Nfm3kch2McYj/8cL6Z6oZ1cFD+7ffflfGwM4UAwTzvuvtOufDCC+MqcxMBDYvN1157XV584cVEVWN+b9u2jdx2+21R68CqsglkFlj5yGK1DcsDd/EBVax1xJYcOXKkLF78keWe4FE1ZOgQOffcc8PPWo3/brnT/z2gCiGDvgcNHCyrV6+226wvnsNabda8WRTRlmhge/fslYKCAlm6dFlMPH2zCvMrr7xCunTpIkWL/a3Ut6vcTTReP/+uUpaHQhNCAd62Xduo0EWJ5uJk30Lb+kMaLIEGDxosn366IlHXGfG7PjQEJo01P2XyFIGXH4pq/7catsqonUhyzArg6UColylTRkBEgxQMFasJzKtcWEX69esblS/NahuRuIOUfPjhdnLtddda2kPRBghfeIMgJ5Yb3ltW1oNf6uoVbRiXStlmZbyUiRW0Ulc3kwiQ0B7z9fr1miILBnJGBYZOeXn5GgEYMmyDwYhRgQEQvKqRq8tsMSJh4j2P/Wrp0qUy4qmR0vimxjE5ChlS2Sz6/q6nv+8YWYPrvUCgNJ07d65G4LEQASLgHgL6CBjxok/gvbz77rukXv16cuqpp8aQ7Hifv/vuO1m16jN55+23w959+pDldsKVuzfj9GuJBEjwZEoCxITMEMP4nnvuliJFipiora6CA/LM12cmLdRIJhAgqnAKtgXyP5b9rbfelnFjx1lqRmXVaCWxlCq5btBC0agut7/99psMyB9o2+pV71HihFCxItDOXTpp4QciiU2ES0NC+qAWvCtZHbI0kg3/tlp+/fVXGf/ceI08qVSpUvhxswSIyiIdZFKP7j2tDiXQ9Y0IkA/nfSiwsLPzTXGSGE8fvs/pOxto4SgGrw99pYrDq7KOtUOA6L1xMBwQUTnZOZZhhVIjJzdbTjnllPCzQZSt3hMPk7ESr1ifRBLPI/xlzx49Y8K8JAIZF03kVqlSpYplo5fItkFqgUy363GaaJx+/V3lSeU09AJl4ldpx44rkwiQ0Pn9H6VLa6Gv4hnJ4ZuCUFjPFTynhRnCfSBRsZIzB+GAe/XuGUUkJ2o/9DvGBq+1f//7C7n//vuijMxIgJhF0d/19PedtWvXaZ72oXDakaPXe4HAiCk/f4DmjcxCBIiAcwSseGfcfc/d0qpVSzn55JNNdYx7fH7eAM2QE6Gv+/bNDRvceWVgamqgaVCJBEjwhEgCJIHMWrZqKWBOTzrppJiasJiBW+hPP/0VoqdQoePkrLPO0lhZldIRJMjUqdM0IsTtkgkECDBTKRRDWEIeCOMDmRw79l/tz8WLn6a5f0fGFY/EHh+IUSNHyccfLzEtEsh2+FPDBHF1I8v69Rs05VU8a09YL/bJ7i0I+RRZ7MQ6Nz3gJFRMBgGSPyBf4OUUKmaV7U6mp3c9RVteJ2B3Mn6jZ1U5DEJ1cdE5cOCA7Nu3X/vT8ccX0i7LOFRFXtxxQPr++91SpUplyzJRJXe2GiYuGbh43aZqv4J1T7FixQRh/EIFigfgvWfPnvDeVbJkCcPQFXa/JXqSMWj7TjLlp09CiL4irXVDfbtFgOhDNaF9uzmUnISrSyamVttu3LixtM96NIoYNLvWr766kRZWMpIEgmLSTuxyvJv4HkXufZHvKsglrI2jR49pfy5WrKiUKlXK0EvEzNnAKlZ+r6/KARVP2ZZoPpRJIoT89XsmESBA/j//+Y+UL19eUzAhhCiIVxREDdDfH3FHWbZ0mdx0803aXRFnsu++/U7z8Mcd8owzTo86i5n1YlMlvI1cFRjX7t275Y8/Dmt/xv0IYVciQwjjLLJmzVdS6fzzozx4SYD46/2yMxr9fQd3ZugkZrw6Q9mcygsE5N2QwUPsdM9niAAR0CGgJyaMDD+zstpr4ffNhntHN5EhZPGdeeaZMWHC3UnIcgoxFgESIMFbFSRA4sjMyD0ZSnZ4Drz6yqvKmHvlypWTO++6Q+ApoI+5b8ed2cyyyhQCBK7iw4YPk4oVKwgO6vv27pOVq1bKooWLDcMVhXK3tLrtNjnzzDNi4LRj7d+wYQPp3KVzlLIFDcPac9jQ4co4/bicdO/RTUtYH6loNqvgMbMOvKyjV6YePnxYS7r71py3bA3DjeTyVjtWJV+3Ym1ntT8v6qsUueg3ZN33XMF4pTUyLHYfbtdOqlaramjBaIaUUoUzc7o2vMAtGX3EI2zRHy6g2H8mTpiklAni3D/+eEelTKxa46lCDAUt71AyZIQ2VaS20b7sBgGiCiGIcSDM1vM2E5fr92O8705zXyQLb6N2gUvffrlabq/IAlnMnjVbpk17QWmpihBgjzz6SMz32A7xgDHk5OZIvXqXx4QXWLd2nTw/YYLSAhbPIVTWHXe0jgrlGNp7ly1bLvl5+crxe41zsvuD4mzI0MFaovhQSaRsizcmyiTZEnO//UwjQEIIIpTt0CHDNIIURXV8sL83AAAgAElEQVSPBOGB9wHECJRUI0eO0jzdUIyMpMyQ4z179VR6oMC4Ajk+3nnnnZj9B/2FcoXAeM+okABx/x3xukUroXZCY9N7gegTpns9B/ZHBNIJAf0dUZX7tFmzplq45EgiHd+Pb77ZLBs3btT+XrlyZTn33HOiCBK9gVvPnj3k6muuDsOXiUaJyVo7JECShWzy2iUBYoAtFO0DBuZruSYiy7fffidDhwyNSmJnJJ6mTZvKgw89EOOutmbNGun2ZHdXL8KZQoAAa7gBXlilirz8yiuWXHFh/ZKbmxPjGm43NwFCDCHBoN7bBwTZG2+8KS/966WwjKHQQSzxMmXLRC0XJ+FskrctmGtZb8HsJIyXSmmOUThRCCaaRSSZFqqLOcyY8ZpMnjQ50eO+/V3/IcZAsc5wgUa4N5Wre2gyiUJnmSFA9BYtaFsfjgdkIEIL1q9fT4vXH3mwg7IT7ySIgTlvvhXo0DHxCBDMc/qL07Vkd/EKZIKcQddee03MXmMlnr5KIQWlxuhRT0ulSudLhYoVNcIeiesLFz5BkwE8UrZs3qyFxcBhOl2L/pKvCn0VmrsbBIiRx8akSZNl1sxZtmDWEyDJ3j9tDdLEQ0bfacgEBMSYMc+EDQygvEO4veuuvy7G2ETlvWOiezG6bL777rtSMO65hOc27G3ZOX3k4osvjiJQkL8Hz7/33ntmhhHoOtjb4Tkdaa0YL651oslSJokQ8t/vmUiAGBklqAxtIDGjPUEVZjdRjsB69erJk926ahEIIgv2wcGDhiS8syYKnUUCxH/vmJUR6Ulps3cdvRcI+rRy7rQyRtYlApmGgD4frD6crur9C4Wofv/9D6Lg0t/99QSIPn+hndC9mSYfs/MlAWIWKf/UIwFiIAvVBQ5WNE8Nf8pSwlhVTOpkXIQziQBx8vqo5GrXOh2KSTDqDRo2iFFMhrxTPvjgA4FFPog0PVECBn/+h/O1JKnxlNJO5pvMZ/XWBOjLjjcNnjNSFCeTAEF+jPZZ7aOU7whNkJvbV0tQGcSiSuiOeViJo69KBB3CwgwBokqAHjqI7dyxU+66+y5p3rxZzEVdhbeWSHjFSi1edsiiMkhyMVrXVhNKGoXdsxLHVUVMmcUytJ8tWrxYC5eQTkmdEXbvyW5PRiWjRxJB7APbtm6LgSiZBAg8gWbPnm1WLHEvP/gxqBccyAQXQ5Cj+oI9CDGNd2zfoXlcIOSMvmCvwHc1ZFVtFlAVKY61j+TA/fvlmW1GCzOAZOwIixVZkmH8YnpQHlVU5WoDhu+8866MeXqM5VFQJpYh88UDmUiAGO23CHnbs1ePGA81o0S0KoOgRLmM+vTpLVdedWWU7K3kJsSDjRo1kk6dnogKfRVqkASIL14r24PQh8W1ctfRG4jAyO+p4SO08wULESAC9hGINCRVeW3ryXPoimA0N3XK1JhO9Up4RCTpkPVYWL+kv49u2LBBHuvQ0f7gPXwShkW1atWUylWqaLq0n378UctVtW7dOtv6M5D+eN6NQgLEDRS9bYMEiAJvNy9wqlAA6NJtCwoSIOZeHJU8nIQKwVpBzPKbbrrJUmxGKC6nTZ0mb7/9jrmB+7CWSrlrxz06XtziZBEgKoWyVaW0D0WiWUPf2vLWKMtjO4lnVRaImK8ZAkS1LnB579Wzt7Rp85CSMEyEJSwrR48abYl8TtSmF78bESBWLp+hcaqUE2at+NCG6hthBwOVh5uddvzwjMrTE545EydMlDffnKMcohsEiEoWZt6teJipPL+CSoBgnric9OjZQ845p7TppYI9fNWqz+SZMc/YIkzdJMVVVt/47iMhOgicdC2qPC5Ww/VFYkOZBHOlZBoBEs8D2sjDOV5YK72Hdbx8XSqssWrsGCQNGjxQateuHbPoSIAE8z3EqFUkshUdhMoKPchni+BKkiNPJwT03wW9Ma7qvY3nSav/Zuj3bL1xYhD2dERPufe+ewThoFW5lWEkuXXLVlmwYIFmZIM8V4kK2oE3DO4YnTp1TlTd1O8kQEzB5KtKJEAU4lAp/6xY2uqbVCkmElnzWF0lJEDMI6ZKPutU0X7DjTfIgw8+qMwxEjkyKLkWLVosL77woi0FjflZJr+m6tIVL3SMakQIYdKrd0+pW7euMu+EU7kYoWD0jgddOaXKo2In8aw+YVoIRzNKWr2bLZ7FQQuJNVUh47BmoHRG+CXVASfUd7LyJyXzTTEiQKAA7dG9p6WujWSSKDRGqBOE0EJi4iJFiljqV1U59J4jHKSZA6fjDpPUAAjD5i2ah9edGWt/EiBJEoaiWShesjq0l8suuyzu3oBHcaZC2Ml58z60PUCV8m/B/AUyZMhQy22qrL6dhIm0PIAUPaDC0IqyTT9syiRFgnTYbaYRIIkSletDFCZKQqu/N8a7gzZp2kQzfjnxxBPDUsN4CsYVaKFPrRSjM0sQlGVW5plJdfUytWMUpfcCsdNGJmHOuRKBRAhUqFBB8gfkhT2F9aGiVdEU4pHm+m+Mfs/W6wn1HiKJxuvl71ro505PyDXXXmPauBh30dWr/y0zZswwDI+POwUi89Sufal88803ktW+gyvTIgHiCoyeNkICRAG3yoraiasYYiHfcecdUqhQoXBv+o3OqdRJgJhHUEVIOVG0h5Kst2zVUhmyI3JkoVAy0154Qd6f+775Qfu0JhSqN998UxR5ARfNDxHaa9TouK6J+BB1695Nqle/yDDpthO5xINMFS7AjrWcn8RS5cIqWtgVfdgYu4nO9LFJMVczBIhKQXzgwAGN4DjllFM0yLD/LVnyifYOICxMqMAi5pprrhFc6FXhbxAyonfvPoEJwaRSJjhRgqpkEs8yVL8+VUQtrI4gV7y3SMgKjywQk5BXpEJF35ZVstNP7wrGYjX0VWj8ySJAnJ4J0s0DBHjD6qtN2zZSs+YlCS9BWMMrES7vufG2jAtUClu74TExdiOr73S2nFWFYHSiKKNM/LZrmh9PphEgifbv/AH52jcnVPBeDB402NCrVb+fx2tfdS7AtzwnO1e2bNliXmgiYnSOJAFiCUbfVFZFtLBjFKXyArESWtc3gHAgRMAnCOj1dvq7nF53aJVk1xvaJerPJ7Bow0A+q+uuu85QNxRvrLib7t+/X7749xeycuUqTV+Ae+1VV10pl9S8JBz23M1vGgkQP60ec2MhAaLAaeiwIYKLXGSxawWINlRKMDOKRHMi/KsWCRDzaLlJgEBB80Snx7UcH8cdd5zpQUDZuHLlShk3tsCWssZ0R0muiEtuXl5/KV06OkwJPkCIw/7ee3Nl7ntzoxTWeLcaN75R6l5eV1O0oiCpF96JM844I2rEySBAEJ8dYy5ZsmS4L7vWckmG11LzKmsRJwo8hNJCyCoowkPFzL6lUhCHnse6gCfI8GHD4657rAuEv6lX7/IYcs0o/qklsDyqrNr7Ex1i4w1N1V4iRYq+PVxkG17RUMtvAWI/Xj4PvCvNmjWTBg3+KSeffHLM0LCPgWAbP/55jxB1pxschqGQqlKlcrhBs7m5kkWAWJWjHol0IkCgtEGuoFtvbaFcd/FWwf79B2TKlCmWDQxU+6cTz1+MUZWY3s1Llztvg3utqAwi7CjbQiOiTNyTjdctZRoBkohwsEJoQFZW6qvurHaN9rD3jh33rEY+R5Z03re8fje87E8fOtXJXUfvBWI1x4yX82ZfRMDvCIAQ79W7lxQrVkwbqp4Aye2bq929QiXeebRMmTICb1nc70JFb2wTJAJE//2D7gAeHnv27JXTTjtVyyFauHBhRyJ285tGAsSRKFLyMAkQHexGVnuwVEboIjulRo3/E3gHRCoSnVgBq8ZAAsS8ZPSWWHjSjqL9hhuul7bt2sYkYcVGvWvnLnnllVflxBNPkNtuv037KKkIErvJWs3PNvk18YGGBRriVRoVKOKPHjkqRYoWicEBStSZr8+UupdfLuXLlws3YUbZbmd2qtjsmzdvke7dugvCLAW1qAiLRFaJ8eaqP5yhrhmZqBSxeNaqx4BRMna3wwcmU94qwsKJTJKRO8LM/CPdhvX7mJP4/mb6TkadrA5ZUeHYsDYXLlwkQwYPSdhdsggQM+9WvMGlCwECcgrWXwh7pV9rUN58tPgjeW/uXGnRvLnUqVsnbM0ViQ3iAs+HF+Lop00nSFR56u7ds1cmTJho+7vw6KOPCBTBkSVI+1fClyGigiq/GuQwdeo0mfHqDCtNhetSJrZg88VDmUaAJPLE1O/PbhEmRoSFE08z1R3JTWWRLxZohgxCH0LQyV1H5QUCD+5uT3Y3/Z3NENg5TSKQEAH9/VAfkkpPbFvNA5WIAPFzCKzQ9xJ3s3Vr18nzEyZEhbXCd69+/Xpy8y23SNWqF4aNaROC/r8KMHibPv1fts+m+n5IgJhF3j/1SIDoZKGPyZdMUdlRuhuNJ5MJEJBWDRo2lCqVK0uZsmW0eIrYHBFyDPHuzXhmWJUFrGo6PJYVo/SHgmbOnLdk8qTJ4QNhyJq1efNmGmutL7DAHvP0GC0kUFALyKBHHn0kHOLI7DxC4bJmz5ot/fP6a2FDQsWJ94JR/yoljZVE0mbnlYp6KsVsokt5vHHaVbYbESDr12+QnOwcS+Gr6tWrpylDI98bJx4UXstFRYA4kYkqPIXbZLoRRtjHcnJzYrxycEBF8jnsYUEoKsJ2546dWmg1ENKJihsECLzgcnKzo/ZLEiCiXWJUOaGwxrZt2yajRo6Wdf/f3p1Ay1XV+eL/ZVAkKtAkTDIIPAgQoraKAX0YbETE91fQVgIqCAa0DU4MEoaEKRBCggkY7ESGRG3tVoKgoAyKgihPEYK0S2Z4YRIwIdAkiEgLyX/tsm95b+Xce2s8darup9ZyLcytOnvvz951qmp/z9n7nnvKXZSuUv7CFz4fu4zbZZ3P+Z79XM46c2ZVkzNHHTWltB9Mqx+NvP9bXbdGjp91YcFAG3ZWU5Y+qUapmM8RgPTtl8rvRYOdB6q9A6S/DdBr/U3Tu7ZZ3+EEIMV8nw1Uq8rvz834rVN5F0i1d852np4aE2itQOXvw8pzbOUdxI888mgcd+xxmRfkZH0OVO4XUvmbvsjn9PQZ9MY3vjG+9a1vxxWXXzFgR6TfDQccsH/s9779SquRDDbnly5sWrhwYfzylzc3rYMFIE2jzO1AApAK6qxJv1b1RiNfUCvrNNQCkHSV6KSDJsW79torRo8ZPegJb7A+rKUv0rIwaa+FFLT0fqQgY+GCr8WNN96YWdxAG7qmibcZM86MtMdBpz4GmozKatNzzz0XV1zx/fj3b/975rrDjVwp359hGjPpqtLet06uXLkyTj31tI62T+1tdgCS9YWqmknarB/Pjdx2f97582LXXXft06X17muS93ur2QFIKyY7ajHpr/xGriqspfxGn5u19FWtyzg0IwCp9701UPu74Q6QtDlh2lOq935pPXeOzT5ndukW+KxH1t426XkpYP/hD38UC/51waBDp7/gdtAX1viEwSY+azxcIZ6e7v6cc+6c2H777cr1aUYwqk8K0b11VUIA0petkwKQrM+4Ik+W1TVAh8CLKvc6bMZvnay7QBpZ5nAIdIMmEsgUqDUAGegcnDUHWDmvVbmkaL3LJObRnZ+Z8pm48/e/r/nC4DQ/t99+743x48eX5ujSRdAp+E1B7WOPPRbXXffj+On1P63qoqha2ikAqUWrGM8VgFT0gwCkGAOzv1oMdjdFvbWvNgDpb1metHRS2vS7mrs40gR8WhJtvfXW61Pde++9N6ZPO6Xu5TbqbXuzXzdu13Hx4X/+59JVuWnCsXfYkO7qSF/Cf/WrX5duPezZfyBruaXBlgiotd5ZmwGmY9z085ti5syzaz1c4Z5flAAka0POga5cGQwy6yrg3/zm1tLdJEV/dFsAkryz+rfRvRLy6sespa+uu+660p0F1T5aGYAsWrR40Kud+qtn1n4TnRIUpjZVrlWe/q2WZfO22WabOHnaSeusXZ/C10suviSuvPKqAbvYZHu174B1n/d//s/7YspRU/p8p0nnhLNnzoq0EWe9D31Sr1z7XycA6dsHApD2j8mhVIP0O+yUU6bH6NGjy81u1m+dyrtAqrkwaijZayuBagRqDUAGWrIqa7+0ynmtyvIaWSaxmvYNpecIQDqvtwUgFX0mACnuIE4T2NNPmRbveMc7+r3jI02YpKQ3/fhetWp1vPTSXyNNvqYvaD2PN7xh/DqTJNUGIBMnToxjjzumvGlVOma6yrTWjZlTAJKCkN4hSKPrZRe35wavWdb+Fc1enzKr79LGw/Pmnhe/+MUvBq9kwZ9RlAAkqx6NBBZZIUKnXI3YjQHIB/b/QPzLv3w6XvnKV5bfEZ2wLNk737lnHHPsMX2WnXr44Ydj6vEn1LQsWzMCkASXFVhU+zmUdSqqPF76LLxsyWVxySWLCn7m+lv1KtcqT/9Wy9Jk6flZd/ikf6/mDiWT7fUPk6y+W7p0aZx80rT6D5qxEXRDBxvgxd14V06rrKo9rgCkr5QApNqR43kECBDofoHK34dpJZD0nekPf/hDqfGVezEN9D3lox/9aBz6iUP6XHBa+Xuick+1TrpAquijQQBS9B5at34CkAqTete9b3fXD4UlsI459ujYb7/9Mtf6TpPlN9xwY1z/k+sHnczKmuioduLpxBNPiL3fvXef7q5mcqVyfKQw57TTT4099tijz5+G6q3EWVeVp7tpZpwxo2lvrcrbwdOBu8m7KAFI1sa1jVxpIgD5+1ug3UtgpZp04mdkWqInTdKOHTu2jJkCgsf/8Hg8/+c/13SO2WCD15bWme39eOaZZ+Kpp1auc5z0eXTVVdl3HlRucJheXLlmb7UVa8WSWtWW3YznjX/D+DjttFNjww03LB+u3gsCsoKuapbgs+59fT2Z9rNJd9707rtqvKspTZ9Uo1TM5whA+vaLAKSY41StCBAg0A6Byt9SlQFH5XzTQHfaZ81NVc5r9Z5nSRcFN3LHeTu8ilymAKTIvZNdNwFIhUvWJrPph/i3/u3b8Z3vfKewPdztAUjW1fupM9IHQlre4sc//knVfVNvAJJCi39d8NU+d4+kSbS0QdOFF15Udfk9T8y6ZbFTlpKpubGDvKByn4dmb+ycNUlT7wRbs9verOM1OwDJOhdWc6t7VmCRlkE5YeqJdTW12wKQRpZ2y5oobvZ7ZbBO6sQApL/gaLC2Nvr3gYL1rB8s9d4plbWperq7bdbZsyIds+iPrDsAG7kqPytcuuFnN8Q558zul6LZS/cV3bxZ9cu6sKCei0Ky6qNPmtVL+R9HANLXvJMCkKz3XafcdZv/SFciAQIEaheo/C1VOf9TeVdHf7+/0wVec+fNjde/fps+lai8oKr3PMtQnWuqvZeqe4UApDqnIj1LAFLRG1tttVXpStG00VfvR9FvFev2ACTrR3atm9f29Ge9AUjWD7pGln7JGmtpj4wUpvzwqh8W6TzR0rpkTer+6U9/inNmzY5bb23O5N0XvviF0ua6w4YNK7fliSeeiBNPOCnSbafd8MiaREyOZ844q6512Oud6M6ajG1kObNuC0Cef/75OOvMmXH77bfXPOyy9sqpJpSquaABXlDvuGhmHWo9VhEDkKxb1uvdKydrWbJGgrZafRt9flZ4e9ddd8UxRx9b16GPPPKIOHDSgX3O94Nt+Jj1mk4yrAuqwRelDSdnzDgjxowZUz5SCmSXLLksFi9a3ODRI/RJw4RtO4AApC99qwKQrAuzUsmN3EHtzqu2vW0UTIDAEBGo/IxMc1rz5s2Lm27625LcWRduZq2mkLUHW3p97wsPK7+rPfjAg/H5z3+h6ZuBD5GuW6eZApDO63kBSEafVV6NXnkiKWI3d3MAstlmm8Y5s8+JLbfcsg99vVeVf/VfL+izFEo6aDVLYGX9oGtkMjOVW7lue96TmUUYy5OPmByTJh0Yw4cPL1enmR/OKcw8Z/aseN3rXlc+frpz5+qrr4n5X5lfBIKm1CHrjqJGArqsSdVqxmfW+7WRq02yJoobmRxtCnaVB8kKbxoJObNCrkbPQVU2pfy0rBCm6HcbFDEAyXKs932S9mRJY6N3wDvYhH+t/d7K5zdrX5WeOtYTmr73vfvG5z7/uT77clX+IG2lQSceO+uze+XKlXHqqadF+gxv9KFPGhVs3+sFIH3tWxWApFKy7nhr5DtS1m8kd4C0772kZAIEuk+gMryuvJs//T3d2TFu3C7lxqff9N/4xjfj8u9dXvq3FGyceuop5Yu2H3roodh8s81j/VHrl1ZIOXvmrFIQ8vkvfL50EWiaZ2nmRSrd1yv1tUgAUp9bO18lAMnQz7r9t5HlGPLo4G4OQLLuEKh3g9f+7vBpRwCSddtiNRPMeYynvMpIm9bOOXd2bLvttuUim/3hPOmgSaUN50eOHFkuo/cXg7za2upyspasamSJtqyrb6sdn5Wb4jayjGDWUkGNXN3Y6n7offysidhG+iTrs6ly47xWty8rkHr66afj9NPPiPvuva/Vxdd1/CIGIFlBYbXvr0qErIs26t1PpC7gBl/U7AAka4wONoHX7PNngySFf3n6/jLn3Dmx/fbb9anrTT+/KWbOPLsp9dcnTWFsy0EEIH3ZWxmANPM3a3+/kQY7f7ZlkCmUAAECHSxQudF55W/b973vfTHlqM/Eq171qnIrX3755XjyiSfjLy/+pXRh8Prrr1/623PPPRcXXXRxHHLIIZF+X6THs88+G6ueXRVbbrVleQ6k6POZndidApDO6zUBSEafZV1JXfT9Aro5AGnmkitZVxSmIVBNAJL1w6CRK+yzftwX/UrqZp/iDv/k4XHQQZMiXenQ82jmFaRZmx+ncpYuXRonnzSt2c1p6/GS4QUXzC9dEdL7Ue9G71lXFVY7QZsVOtVTj6yQsJEwJe8OygpAUh3quTqzvwnHeu+Eq9eiMtxKx2nmHVv11iuv1zVzsj4r3Kv13NTfJtRfveCrNe2NlZdfVjlZYWs975GeY2dNCFazv0rWOa9Z+1m007cVZWed29L3l3lzz4tf/OJvSzg046FPmqGY/zGKFICkuowZPaZ05Wu6QjZNCjX6qLx7e7BJpVYGIFnvxfTbZOGChZGC8FoeWb9/S5/xDz4YR035bC2HGvC5Y8eOjde+9rXx0ssvxf333R8vvPBC045d7YHSxOHYncbGyBEjS5OH6a7JdjxaMT7b0Y5mlJkuittuu+1KV6qvfHplPPLwI804bM3HKEKfGJ99u60I54xmj890cebBHz24vAJG1jK4p51+arzjHe/oc4d35YBOocgPf/ijWPCvC+LEk06Mf/qnd2U+Pz3v0kuXxDe+/o2a3xOVLyjK+Gy4IU04gACkCYg5H0IAkgHe30TTww8/HFOPP6EpX56b3c/dHIBk7SlQzyRomiCeOfOseMtb37IOfzUBSHpR5a3hjSyllDVJPNiPqGaPm3Yeb889/3ekiar0fut5JM/rrrsuzpt3flOqlrU2Zr0/DJtSoRYfJGspnHompbImVVPVqw1AstaGT6/9+uKvl8LGah9Z/ddJd+/0F4DU04Ysi7w3QM8aF42cA6sdB0V6XjMDkKxAPk3OpSvof/efv6uq2ccce3Tst99+fX7sPP7443HiCSdG+jzphEfWcnv1BuFZ39+qvesq6zM5fdf49re+Hf/xH9/pBMpc6pi1NEMquJ6Qe7AK65PBhIr59yIEIOm7/lFHTYmtt966fH5M30NuvvnmmDP73IbWPy9SANLfHY61hulpJGXtt5j+vVkByD77vDuOOPKIGD16dHngpvAj7Xt4ySWLchnM6fx11GePin33fU95ycP0GfHUU0/FBfMviBSW5/Fo5fjMo/7NLCNNLB999Bdjwu4Tyleqpz5JgeWXvzy3KUsqVlPfIvSJ8dm3p4pwzmjV+JwwYUKceNIJ8ZrXvKbU6KxlV1PQcMKJJ8Tb375HZqiRvqPe/MubY/bsOaXPtMplsXrPr/zqV78q7UGZnlfvoyjjs976t+J1ApBWqLb2mAKQfnz7W7rk17++Jc6ccWZDJ49WdGk3ByD9fbm/4Wc3xDnnzK6a88Mf+XBpKaT11ltvnddUG4BkbaZdT2iRtfRTqlQ9P1iqBijQE3fZZZc46eQTy+tW9lTtySefLK0f3qyrfrKuVu/mK3r7Cy5+e/tvY9q06VWft/q7gqTaACT1Z9bEbFquacaMM6v6MZPeI2efPbNpd7S0Y/j3F4Ckutxyyy1xxukzquqTNKl71swzY+edd+7TjGonidMX6HTea+TK19Qf6XbtnXYa26cO9YQ57eiLZpXZzACkv8n6ar9npH1EvnT8l2LDDTcsN68TA6n+NtO+6sqrYsGChTV13cc+9tE45NBD+ix5WG0I3N8dg6tXr47zzzu/tLGwR8TEiRPj2OOOiVGjRpU5WnWXtD7pzBHX7gCkv+/YSTNN/vzg+z+ICy+8qG7cIgUgqRFZwUWaTDv//K/EjTfeWFU73/SPbyodJ9lVPpoRgIzbdVyccsr0PuFHTznpwqRLLr4krrzyqqrq2siTsj4jWvUbpL96tnp8NuLTjtdm/V7oqce9994b06edEulzuJWPovSJ8fn3Xi7KOaNV4zPrN0B/y4i+d7/3xj//84dK+5mm33PpnPnYo4/F97///bj++p/2eWtsv/328bnPf7a0320KLJ555pnSvqeXfvfSqn5zDvQ+K8L4bOV5oJ5jC0DqUWvvawQg/finE8a5X54T48eP7/OMNLmwdOntpatE0mReLY9tttkm9j/gA6VbsdN66c18dHMAkpyy1jhP686feeZZcfdddw9Kma4iPOSQj/dZR7H3i6oNQPq7Avr2228vXVFWzQRj+pI1/ZRp8YY3vKFPmv+Xv/wlFi74Wlx7bW23rA/a+II94f3v///isMMP6zNpl6pYublXo9XO6qtm7y/SaB1b8frKD+JURvrBn5ZCSLfHDnblR/pmdZ4AACAASURBVFqSLE0gZgWFtQQg/X1xTeHW7DlzBgxB0ntk6gnHRzqv9d7YudPu3hkoAKm2T9JnUbpTKl0F1XupuPRZdOONP49zZp0z6DBKjsdPPT7uuvPO+OY3/y0effTRQV/T+wmbb7556fXjx+/apz9qqUNNBRb4yc0MQFIzs8ZI79vZ+6NIocEJU6dGmmjs/ag2FCsacdYE3p/+9Ke48GsXVr2U1/777x+fnHx4vPrVr+7TvDvvvDOO/9LUQc996UVZay6nf09B3ze/8c340Y+urokuvWfTcgT77LNP3Pjzn8ePr/txTa8v4pOz+uqJJ56IE084qebvxdW0T59Uo1Ss57Q7AOlvudsepaylRmoRLFoA8va3vz2+dPxxpWWlej/S79RZZ58T99xzz4DNS5/x6XdJmjDLejQjAKlc7qWynLyW88z6PdlTl3pWF6hl3PQ8t9Xjs546tes1Wfuh9a5L1lXxrahrUfrE+Px77xbhnNHq8Vl5YW2td4G34r0w0DGLMD7zbvNg5QlABhMq3t8FIAP0SX+3kaWXPP/88/GbW35T+mGevrRlPdIPgF3HjYsJu+9eump24403Lk0eNeOLZGV53R6ATD5ickyadGB5ncTeP2K++tWv9rtcSJqE/fSnPhW7jNulPHGXJpfS+qK9J1arDUBSuf2tx5h+aCy5dElce+11mRMt6SrsAw7YPw744AHrXAGVJhKrveq3aKeRNMGTrkBOVxj090ht/6e9/yk+8IH3R7oyobd9ek01E361trtZd+vUWm67n9/fVXxpjP3ud7+Lry28MJYtW7ZONVNAe+Snjojddtutz9XTvZ9YSwCSXtfflSJpveW0Xmm6GqVy7ed0dfEnDju0z7IVPXWo9U6WdvfFQAFIqlvqk3vuvicuuvjizCA3vVe+8IXP9zl/9bRpxYoVpSA97b8x2KP350N6rz322GNxyy2/iZ/97GcD3m2VPgMPOOCASMvVVU4qpzJruaNnsDp2yt+bHYD0d7FF6qfbbrstLrl4UZ/AKj3/fe/bLw459NDYeON/6MPWzPV98+6PrLtZUh3SOSeN1RQ+9Bfcpc/5j3/84/HmN//jOueueu7eSMujpM+q3oFjz/s1nTtvuOHGuP4n12de8JA+68aNGxdv3e2t8Y//+KbSeSyFybWeO/P2r7a8Zt6tU22Z6Xn6pBat9j+33QFI1nm6t0q6gCp9ft537311YRUtAEmN6O/O3RTeXv69y+Oyy763zm+Tns+Tjx/y8cw7M3pwmvG7NevinN74jYZS1XRkfysK9H5tulgo3fHXykerx2cr697sY2fNX/QuI69Qqgh9Ynz2HV1FOGe0enxm/WavZYWAZr8fBzpeUcZnnm2upiwBSDVKxXqOAGSQ/kgTP2kiNeuW4J6XpkmHdGVymsxKj+HDhser1n9VvxsWNeOLZGW1uz0ASSfdGTPOiC222GKdHkv+ae3WtBRVmth7zatfHVtutWVsttlmpauhek+2p8mQdIv1Rz784Vh/1PrlY9USgAwUjKUD/vd//3fpVt2nn/57IDB69MalMTRy5MjMEZeunjzrrJlVTWYW6xQSpSuQzzrrrNhoow0jTcr++c9/38xw+PBhMWbMmFI/9Nf21H8//enPSj84Brs7odq2Z03SdOLSMNW2t/J5A92imhzSD+L0nlmzZm2MGDG89F5Ja5D2fq+k5chWLF8R6ctZz6PWSbz04/qUU0/pd+3S9F5JwdmqVatj1Kj1Y9NNN8288ySV34mT7VkBSApx0vis3PsmBUHp/fPii/8d6X2zySablILFyrAwWdR6t9RAX+DTj8t0vPTeS+WncZDer694xSvila98Zb9DMF2lNP8r84fcskDNDkAS8ECfKen9+pcX/hJPP/N0KYRK/+uvX2q506Hec0srX9ffJHcqMzmkpazSeSu9R9JjvfVeWTpnpNAh632SxvaP0saQNS6jlc5b6WrowTaeTO+bVEbPY6D3TK3nzlY6N3LsrAsL8rjrSJ800mv5v7boAUi6iC2thZ7u3q7nUcQAZKAlfHp+myxfvrz8HX3DDTcoXZjX+/MkfQ9IS/297W279Vnirhm/WwebzKxnOeFa+66aCbxf//rXcdqpp9d66JqeP9hke6Pjs6bKtPnJg00wp+rV8hu93uYUoU+Mz769V4RzRh7jszK8rvU3Xr1jvtbXFWV81lrvVj9fANJq4eYfXwBShWnaFCttzpVuEW7GoxlfJCvr0e0BSGrvQHt4VNMv6Qvl1xd/I377299G2huid3/W+uUqTVhNnz6ttBZjo49qlgRqtIxWvr6aD8T+yk/LfqWr0r71b99qahWz7hgaSnsV9GxSljbOrryKuRrodHVkCqTSeeWDH/pg+SX1TOJVO3E1UL3SxPy8eedFCg866VEZgKQvtV+94Kux3nqvylyqp5q21TOpW80X+GrK7nlOCqPS2uKd1h+1tLG/57YiAEllpYst0lJnvYOxWup7//33lyb0al2as5Yy8nhu2rT4/R94f7+BebV1SOeqtM7/xRdfUu1L+jyvtPTc0V+Md+/z7obrkg5cz7mzroq38EXpO9M5s2et872nvzWrm10VfdJs0dYdr90ByGBLp6TvFKdMP7W0yXI9jyIGIKkd/e2vV00bS+HHL2+OS5csidNPP60ULvc8mvG79cQTT4i93713v1VJd9d99qjPNe1CqKyCBlvOJr0mfW7UGppX49v7Oa0en7XWp53PH/+G8XHaaaeusyxyT53SZ+eiRYvjisuvaGk1i9AnxmffLi7COSOP8ZnmlCrPufXcvdzSN0hEFGV8trqdtR5fAFKrWPufLwCpsg/SlTVfPPoLMWHChNKVsfU+epZzSBupN/MxFAKQ5JXW+D7s8E+ss87tYJYrn1oZCxcujF/+8ubSU2fPOSfSHhE9j1oDkPS6NBnwmSmfiQkT3lbXBEmayLz1N7eWJhKr2TtksDa26+/1BCA9S//Mn39B5nJMjbQla1OxdLyhssF8b7tDP3FoHHjgR/rd+ybLOS1DMG/uvNKa0ZUT+PVO4qWJqxRK7b//B/q9wyOrLmmc3H333XHevPNr3reikTHUrNdW+vW+wvGd79wzpkyZEmM2GVN1cSnE/da3vl3zD8H0Hj3uuGNjp5126vfOxGoqkfr/tltvi6997cKOn2ivpr1Zz2lVAJLKqudii/QeSUtlffncuR39OdLbOm32mCYjRo8eXVc3pQB30SWLSncWNvpIe+9Mnjw5Ro8ZXfd7J/VRukviawu/Vv4O0mi92vH6tJda6pfed3NWu8F8M+urT5qp2ZpjtTsASUtpHnvcMX3uYujd0rvvvieOO/a4uifbixqApDam5UzTxOH/2uF/VX3OSp/tV115VVxyyaKSSWX7mhGAZJ0/evdJXkFqugAuLfWa9chrn7lWj8/WvKtbc9T+frP1lJbXxWtF6RPj8+/jrAjnjLzGZ9ZFvrXug9ead2jfoxZhfObRzlrKEIDUolWM5wpAauyH9MXywEkHlpZ0qVxeqb9DpWVeHn/88Uhr+n3/ih+0ZJJiqAQgyTitiz/5iE+WAozBwqi018DPb/x56Ut9770GjjzyiFI/9iybUU8A0tPfaf3xQw89pLTud1qKY7BHmjD4z//8XSxZsqSqDdwHO167/15tAJImgVJ//P73vy/d9VHN5vX1tC3d9TDlqCl9Jtrz+lFTT31b/Zr0fpky5TORxulA75f0I+NnP/1ZaZPsnvdK5Xml3gCkp4097903velNAwYh6Qd4upL9u9+9tKM3Da4MQO6666445uhjy12egvVPHPaJ2GuviQOGusk97TW1eNHXGwoMS3f0fPCA2HX8rqWllLKWDaocjz3v27RH0WVLLuvIIKqZ77FWBiCpnukz5LDDPlG68yAtgdbfI71H0tXL37/i+3H99T9tZhMLcazk8JEDPxJpsjtdbDDYWO05Z6RNxtMyl5V7CzXSqBTg7vOefeKA/fePbbfbtqoLHnqWGkwTralOaVmVTn4kg7nz5sa4cbv0aUajE8n1muiTeuXyeV27A5DUyv7260ubKi9YsKC0h2O9jyIHIKlN6f1x0MEHlfYy6tl/Mqut6bx53333l+7C7r0cWCsmdNJE4lkzz4ydd955nao888x/xaxZs/rdz7Hefsp6XX/7TaVzdlpGcurxJ9QdjNVSz1aOz1rqUYTnpv0xj/zUkev8Lkh9csMNN8Tsc+bkUs0i9Inx+feuLso5I6/xecKJU2Pvvffu8323dLFsuvBs4ddqvvAs/cZMIVK6+O28eefFH/7wh4bfR0UZnw03pIkHaMXnZROr51AZAgKQBoZF+oKfriJJP8632mrLeM1rXls62pNPPBGrVq+Oh5Ytiwcf/H+RlqbwaL5AmiCZsPuE0i3fr3/9NiX/l176a6Qr2Fc+9VTpAyNv+7Fjx5buCNl49OjS5qevetWr2l6n5suve8Ssdle+F9KPq3QFvEd7BHreL+PHj49tt922NDbTldKPPPJw3Hbr0tIPv7we6cf5W97y5njzW94S2223bem9m5ZDS3v4PHD/A6XJwk6+K6pWx94eaVm9dOV78nj44YdL/ZLuFGvmhG6qX7qVefz4N8SOY3csjYV0Dh058m93N6bPsGf+679KfXHnnb/3vq21Q5v0/PRefduE3eL1r9+2NCZ6Pt/Sxr1D6T2SfsSl88XYnXaKjf/hH2KL/1l6Mp2/UlB6/333xW9/e0cu54x0Hk0B7hvf9MZSQJW++w0fPqJ8/nruudVx1513l757DKVzWJOGfF2H0Sd1sbX0RUUIQHpCgH33fU/pvZomUx999LH47ne+W7ogbag8Ul+8c889S3eGpHNnOz9H0nv1k5M/WVryMf13CmAeeOCBuPiiSxq6uKPWvkwX43zq00fGjjvuWAqL0vertPfJ1xd/venftfqrm/HZV2aPPfaIgz96cGyzzdalCeB0UdZPfnJ9XPrdS3MJpFJtitInxuffx0ZRzhl5jM+B9s1MF3Leddfdce211/b7mzC9Pi3Ztfvuu8db3/qW0jxUumO32fsrFWF81nrOb+XzBSCt1G3NsQUgrXF1VAIECBAgQIAAAQIECAwpgSIEIEMKXGMJECBAoOMFUoiRljDc85179ruHZwrz00Vya9asKbd3+PDhpYvZsu6WbnYA0vHITW6AAKTJoDkcTgCSA7IiCBAgQIAAAQIECBAg0O0CApBu72HtI0CAAIFWCTS6F17vej3xxBMxfdopTVkCq1Xt7eTjCkA6r/cEIJ3XZ2pMgAABAgQIECBAgACBwgkIQArXJSpEgAABAh0kUO2egFlNSneJPL3y6bjxxhvj29/+99yW9usg3qZVVQDSNMrcDiQAyY1aQQQIECBAgAABAgQIEOheAQFI9/atlhEgQIBAvgJvfvObY5/37BM777xTbLzxxrHeeuuV9vdIj9KSWC/8JZ7/8/Px+ONPxF133lnaK8S+q/n0kQAkH+dmliIAaaamYxEgQIAAAQIECBAgQGCICghAhmjHazYBAgQIEBhCAgKQzutsAUjn9ZkaEyBAgAABAgQIECBAoHACApDCdYkKESBAgAABAk0WEIA0GTSHwwlAckBWBAECBAgQIECAAAECBLpdQADS7T2sfQQIECBAgIAApPPGgACk8/pMjQkQIECAAAECBAgQIFA4AQFI4bpEhQgQIECAAIEmCwhAmgyaw+EEIDkgK4IAAQIECBAgQIAAAQLdLiAA6fYe1j4CBAgQIEBAANJ5Y0AA0nl9psYECBAgQIAAAQIECBAonIAApHBdokIECBAgQIBAkwUEIE0GzeFwApAckBVBgAABAgQIECBAgACBbhcQgHR7D2sfAQIECBAgIADpvDEgAOm8PlNjAgQIECBAgAABAgQIFE5AAFK4LlEhAgQIECBAoMkCApAmg+ZwOAFIDsiKIECAAAECBAgQIECAQLcLbLDBBrH//h+IDTfaqNzU2269LW699dZub7r2ESBAgAABAkNE4L3v3Td22HHHcmuX//GP8b3vXT5EWt+ZzRSAdGa/qTUBAgQIECBAgAABAgQIECBAgAABAgQIECAwgIAAxPAgQIAAAQIECBAgQIAAAQIECBAgQIAAAQIEuk5AANJ1XapBBAgQIECAAAECBAgQIECAAAECBAgQIECAgADEGCBAgAABAgQIECBAgAABAgQIECBAgAABAgS6TkAA0nVdqkEECBAgQIAAAQIECBAgQIAAAQIECBAgQICAAMQYIECAAAECBAgQIECAAAECBAgQIECAAAECBLpOQADSdV2qQQQIECBAgAABAgQIECBAgAABAgQIECBAgIAAxBggQIAAAQIECBAgQIAAAQIECBAgQIAAAQIEuk5AANJ1XapBBAgQIECAAAECBAgQIECAAAECBAgQIECAgADEGCBAgAABAgQIECBAgAABAgQIECBAgAABAgS6TkAA0nVdqkEECBAgQIAAAQIECBAgQIAAAQIECBAgQICAAMQYIECAAAECBAgQIECAAAECBAgQIECAAAECBLpOQADSdV2qQQQIECBAgAABAgQIECBAgAABAgQIECBAgIAAxBggQIAAAQIECBAgQIAAAQIECBAgQIAAAQIEuk5AANJ1XapBBAgQIECAAAECBAgQIECAAAECBAgQIECAgADEGCBAgAABAgQIECBAgAABAgQIECBAgAABAgS6TkAA0nVdqkEECBAgQIAAAQIECBAgQIAAAQIECBAgQICAAMQYIECAAAECBAgQIECAAAECBAgQIECAAAECBLpOQADSdV2qQQQIECBAgAABAgQIECBAgAABAgQIECBAgIAAxBggQIAAAQIECBAgQIAAgYYFNtts05gyZUqMHjOmfKzrf3J9XHXVVQ0f2wEIECDQKoH9998/3rPve8qHf3rlyli4cGEsX76iVUU6LgECBAjkKCAAyRFbUQQIECBAgAABAgQIEOhWgddv+/o466yzIgUhPY/vfe/yuOjCi7q1ydpFgEAXCHz6Xz4dH/nIh8stScHH9OnT45GHH+mC1mkCAQIECAhAjAECBAgQIECAAAECBAgQaFhAANIwoQMQINAGAQFIG9AVSYAAgRwFBCA5YiuKAAECBAgQIECAAAEC3SogAOnWntWuoSgwbdrJsde79io3fe3atXH11dfE/K/M7zoOAUjXdakGESBAoI+AAMSAIECAAAECBAgQIECAAIGGBQQgDRM6AIFCCOyw4w4xY8YZMabXfj6rVq2Ks2fOijvuuKMQdWxmJQQgzdR0LAIECBRPQABSvD5RIwIECBAgQIAAAQIECHScgACk47pMhQlkCkw+YnJMmnRgDB8+vPz3pUuXxsknTetKMQFIV3arRhEgQKAsIAAxGAgQIECAAAECBAgQIECgYQEBSMOEDkCg7QIbbLBBzDl3Tmy//Xblurz44ouxcMHCuOaaa9tev1ZUQADSClXHJECAQHEEBCDF6Qs1IUCAAAECBAgQIECAQMcKCEA6tutUnEBZ4EMf+lAc+akj4hWveEX535YteyimHj81Vq9e3ZVSApCu7FaNIkCAQFlAAGIwECBAgAABAgQIECBAgEDDAgKQhgkdgEBbBUaMGBFz582NceN2KddjzZo1sWTJZbF40eK21q2VhQtAWqnr2AQIEGi/gACk/X2gBgQIECBAgAABAgQIEOh4AQFIx3ehBgxxgYkTJ8axxx0To0aNKkssX74ipk+fHo88/EjX6ghAurZrNYwAAQIlAQGIgUCAAAECBAgQIECAAAECDQsIQBomdAACbRWYNu3k2Otde5XrsHbt2rj66mti/lfmt7VerS5cANJqYccnQIBAewUEIO31VzoBAgQIECBAgAABAgS6QkAA0hXdqBFDVGCHHXeIGTPOiDFjxpQFVq1aFWfPnBV33HFHV6sIQLq6ezWOAAEC7gAxBggQIECAAAECBAgQIECgcQEBSOOGjkCgXQKTj5gckyYdGMOHDy9XYenSpXHySdPaVaXcyhWA5EatIAIECLRFwB0gbWFXKAECBAgQIECAAAECBLpLQADSXf2pNUNHYIMNNog5586J7bffrtzoF198MRYuWBjXXHNt10MIQLq+izWQAIEhLiAAGeIDQPMJECBAgAABAgQIECDQDAEBSDMUHYNA/gKTDpoUhx9+WIwcObJc+LJlD8XU46fG6tWr869QziUKQHIGVxwBAgRyFhCA5AyuOAIECBAgQIAAAQIECHSjgACkG3tVm7pdYMSIETF33twYN26XclPXrFkTS5ZcFosXLe725pfaJwAZEt2skQQIDGEBAcgQ7nxNJ0CAAAECBAgQIECAQLMEBCDNknQcAvkJTJw4MY497pgYNWpUudDly1fE9OnT45GHH8mvIm0sSQDSRnxFEyBAIAcBAUgOyIogQIAAAQIECBAgQIBAtwsIQLq9h7WvGwWmTTs59nrXXuWmrV27Nq6++pqY/5X53djczDYJQIZMV2soAQJDVEAAMkQ7XrMJECBAgAABAgQIECDQTAEBSDM1HYtA6wV22HGHmDHjjBgzZky5sFWrVsXZM2fFHXfc0foKFKQEAUhBOkI1CBAg0CIBAUiLYB2WAAECBAgQIECAAAECQ0lAADKUeltbu0Fg8hGTY9KkA2P48OHl5ixdujROPmlaNzSv6jYIQKqm8kQCBAh0pIAApCO7TaUJECBAgAABAgQIECBQLAEBSLH6Q20IDCSw0UYbxZxzZ8e2225bftqLL74YCxcsjGuuuXZI4QlAhlR3aywBAkNQQAAyBDtdkwkQIECAAAECBAgQINBsAQFIs0Udj0DrBCYdNCkOP/ywGDlyZLmQZcseiqnHT43Vq1e3ruACHlkAUsBOUSUCBAg0UUAA0kRMhyJAgAABAgQIECBAgMBQFRCADNWe1+5OExgxYkTMnTc3xo3bpVz1NWvWxJIll8XiRYs7rTkN11cA0jChAxAgQKDQAgKQQnePyhEgQIAAAQIECBAgQKAzBAQgndFPaklg4sSJcexxx8SoUaPKGMuXr4jp06fHIw8/MuSABCBDrss1mACBISYgABliHa65BAgQIECAAAECBAgQaIWAAKQVqo5JoPkC06adHHu9a6/ygdeuXRtXX31NzP/K/OYX1gFHFIB0QCepIgECBBoQEIA0gOelBAgQIECAAAECBAgQIPA3AQGIkUCg+AI77LhDzJhxRowZM6Zc2VWrVsXZM2fFHXfcUfwGtKCGApAWoDokAQIECiQgAClQZ6gKAQIECBAgQIAAAQIEOlVAANKpPafeQ0lg8hGTY9KkA2P48OHlZi9dujROPmnaUGLo01YByJDteg0nQGCICAhAhkhHayYBAgQIECBAgAABAgRaKSAAaaWuYxNoXGDzzTePs8+eGVttvVX5YC+++GIsXLAwrrnm2sYL6NAjCEA6tONUmwABAlUKCECqhPI0AgQIECBAgAABAgQIEOhfQABidBAotsCkgybF4YcfFiNHjixXdNmyh2Lq8VNj9erVxa58C2snAGkhrkMTIECgAAICkAJ0gioQIECAAAECBAgQIECg0wUEIJ3eg+rfzQIjRoyIufPmxrhxu5SbuWbNmliy5LJYvGhxNzd90LYJQAYl8gQCBAh0tIAApKO7T+UJECBAgAABAgQIECBQDAEBSDH6QS0IZAlMnDgxjj3umBg1alT5z8uXr4jp06fHIw8/MqTRBCBDuvs1ngCBISAgABkCnayJBAgQIECAAAECBAgQaLWAAKTVwo5PoH6BadNOjr3etVf5AGvXro2rr74m5n9lfv0H7ZJXCkC6pCM1gwABAv0ICEAMDQIECBAgQIAAAQIECBBoWEAA0jChAxBoicAOO+4QM2acEWPGjCkff9WqVXH2zFlxxx13tKTMTjqoAKSTektdCRAgULuAAKR2M68gQIAAAQIECBAgQIAAgQoBAYghQaCYApOPmByTJh0Yw4cPL1dw6dKlcfJJ04pZ4ZxrJQDJGVxxBAgQyFlAAJIzuOIIECBAgAABAgQIECDQjQJFCkBSXcaMHhNpk+eHHnoonn322baQjx07Nl772tfGSy+/FPffd3+88MILuddjo402iu222640+b3y6ZVt2++hCBbrr79+jN1pbIwcMTKee+65uP/++3Pvj1RgnuNz8803j7PPnhlbbb1Vua0vvvhiLFywMK655tq2tL93oUUYnwKQtg8DFSBAgEBLBQQgLeV1cAIECBAgQIAAAQIECAwNgSIEIG9561viqKOmxNZbbx3Dhg0rwf/1r3+Nm2++OebMPjdefvnlXDpjn33eHUcceUSMHj26XF4KP3541Q/jkksW5VKHNLF89NFfjAm7T4iRI0eWykz7PqRA6MtfnhsPPvBgLvUogsWIESPiqM8eFfvu+55Yb731yhZPPfVUXDD/gvjNb27NxaId43PSQZPi8MMPK4+B1NBlyx6KqcdPjdWrV+fS7qxCijI+U90EIG0bBgomQIBALgICkFyYFUKAAAECBAgQIECAAIHuFmh3AJImVOecOzu23XbbdaBT8PGD7/8gLrzwopZ3wrhdx8Upp0zvE370FJquvL/k4kviyiuvank9jjn26Nhvv/3KQVDvAu+9996YPu2Ulk+AF8XiYx/7aBxy6CF9QoAejyeffDJOPfW0lt8Z047xmYKfufPmxrhxu5S7P90VtWTJZbF40eKWj8GBCijC+OypnwCkrUNB4QQIEGi5gACk5cQKIECAAAECBAgQIECAQPcLtDsAee97943Pff5z5Sv8K8UfeeTROO7Y41o+6Z+utj/4owf32W+hd13SptMnTD2xpQNis802jXNmnxNbbrllZjkv/PmFmDdvXtx00y9aWo8iWKQGnnf+vNh1110z2/rSSy/Ft/7t2/Gd73ynpRbtGJ8TJ06MY487JkaNGlVu2/LlK2L69OktD3wGwizK+BSAtHTIOzgBAgQKIyAAKTjJGAAAEw9JREFUKUxXqAgBAgQIECBAgAABAgQ6V6DdAUjlVdyVkk8//XScfvoZcd+997UU+YwZp8fb3/72fsvII4h561vfGtNPmRavfvWr2zrpXwSLrHFZiZL2wjj/vPNbOi7aMT6nTTs59nrXXuV2pSXQrr76mpj/lfktbetgBy/K+BSADNZT/k6AAIHuEBCAdEc/agUBAgQIECBAgAABAgTaKlD0AOT555+Ps86cGbfffntLnQab9M/jCvzBJpgTwPe+d3lc1OIlwYpgUU0A8utf/zpOO/X0lo6LwQKQZo/PHXbcIWbMOCPGjBlTbteqVavi7JmzIt2F1M5HUcanAKSdo0DZBAgQyE9AAJKftZIIECBAgAABAgQIECDQtQLtDkAGW25pxYoVccr0U0ubgLfyceKJJ8Te79673yKWLVsWnz3qcy3dkH38G8bHaaedGhtuuGFmPdLG8IsWLY4rLr+ilRRRBIvBlltKAGl/mAULFrbUIu/xOfmIyTFp0oF9lmJbunRpnHzStJa2s5qDF2V8CkCq6S3PIUCAQOcLCEA6vw+1gAABAgQIECBAgAABAm0XaHcAkrXfQW+Uu+++p7QHSNoQvZWPSQdNijTZPXLkyMxibvr5TTFz5tmtrEJssMEGMefcObH99ttllpPXnQBFsEgAZ8+aGbvttlumRdqYfuGChZGWwWrlI8/xufnmm8c5s2fF6173unKT8mpnNYZFGZ89dbUJejW95jkECBDoXAEBSOf2nZoTIECAAAECBAgQIECgMALtDkASxGmnnxrveMc7YtiwYX1c0qbfCxYsiB//+Cct90qTu2fNPDN23nnndcp65pn/ilmzZsXv/vN3La/HAQfsH0d+6sh1NoVP+0DccMMNMfucOS2vQ1Esdt99Qnzp+C+tc0dMsrjzzjtj6vEntDwYy3N8ZgVPy5Y9FFOPnxqrV69ueb9XU0ARxqcApJqe8hwCBAh0voAApPP7UAsIECBAgAABAgQIECDQdoEiBCAjRoyIgw4+KPbd9z2lye40wf3oo4/Fd7/z3bjllltyM1p//fXjk5M/GXvu+b8j/Xe66+SBBx6Iiy+6JNISWHk99thjjzj4owfHNttsXQqF0p0fP/nJ9XHpdy/NZcI/tbMoFttvv3186tNHxo477hhpnLzwwgtx883/N76++Oul/87jUZTxmUdbqymjCOMz1dMdINX0lucQIECgcwUEIJ3bd2pOgAABAgQIECBAgACBwggUIQApDIaKECDQMQICkI7pKhUlQIBAXQICkLrYvIgAAQIECBAgQIAAAQIEegsIQIwHAgQ6UUAA0om9ps4ECBCoXkAAUr2VZxIgQIAAAQIECBAgQIBAPwICEEODAIFOFBCAdGKvqTMBAgSqFxCAVG/lmQQIECBAgAABAgQIECAgADEGCBDoIgEBSBd1pqYQIEAgQ0AAYlgQIECAAAECBAgQIECAQMMC7gBpmNABCBBog4AApA3oiiRAgECOAgKQHLEVRYAAAQIECBAgQIAAgW4VEIB0a89qF4HuFhCAdHf/ah0BAgQEIMYAAQIECBAgQIAAAQIECDQsIABpmNABCBBog4AApA3oiiRAgECOAgKQHLEVRYAAAQIECBAgQIAAgW4VEIB0a89qF4HuFhCAdHf/ah0BAgQEIMYAAQIECBAgQIAAAQIECDQsIABpmNABCBBog4AApA3oiiRAgECOAgKQHLEVRYAAAQIECBAgQIAAgW4VEIB0a89qF4HuFhCAdHf/ah0BAgQEIMYAAQIECBAgQIAAAQIECDQsIABpmNABCBBog4AApA3oiiRAgECOAgKQHLEVRYAAAQIECBAgQIAAgW4VEIB0a89qF4HuFhCAdHf/ah0BAgQEIMYAAQIECBAgQIAAAQIECDQssMEGG8T++38gNtxoo/Kxbrv1trj11lsbPrYDECBAoFUCEyZMiLdNeFv58KuefTauuuqHsXr16lYV6bgECBAgkKOAACRHbEURIECAAAECBAgQIECAAAECBAgQIECAAAEC+QgIQPJxVgoBAgQIECBAgAABAgQIECBAgAABAgQIECCQo4AAJEdsRREgQIAAAQIECBAgQIAAAQIECBAgQIAAAQL5CAhA8nFWCgECBAgQIECAAAECBAgQIECAAAECBAgQIJCjgAAkR2xFESBAgAABAgQIECBAgAABAgQIECBAgAABAvkICEDycVYKAQIECBAgQIAAAQIECBAgQIAAAQIECBAgkKOAACRHbEURIECAAAECBAgQIECAAAECBAgQIECAAAEC+QgIQPJxVgoBAgQIECBAgAABAgQIECBAgAABAgQIECCQo4AAJEdsRREgQIAAAQIECBAgQIAAAQIECBAgQIAAAQL5CAhA8nFWCgECBAgQIECAAAECBAgQIECAAAECBAgQIJCjgAAkR2xFESBAgAABAgQIECBAgAABAgQIECBAgAABAvkICEDycVYKAQIECBAgQIAAAQIECBAgQIAAAQIECBAgkKOAACRHbEURIECAAAECBAgQIECAAAECBAgQIECAAAEC+QgIQPJxVgoBAgQIECBAgAABAgQIECBAgAABAgQIECCQo4AAJEdsRREgQIAAAQIECBAgQIAAAQIECBAgQIAAAQL5CAhA8nFWCgECBAgQIECAAAECBAgQIECAAAECBAgQIJCjgAAkR2xFESBAgAABAgQIECBAgAABAgQIECBAgAABAvkICEDycVYKAQIECBAgQIAAAQIECBAgQIAAAQIECBAgkKOAACRHbEURIECAAAECBAgQIECAAAECBAgQIECAAAEC+QgIQPJxVgoBAgQIECBAgAABAgQIECBAgAABAgQIECCQo4AAJEdsRREgQIAAAQIECBAgQIAAAQIECBAgQIAAAQL5CAhA8nFWCgECBAgQIECAAAECBAgQIECAAAECBAgQIJCjgAAkR2xFESBAgAABAgQIECBAgAABAgQIECBAgAABAvkICEDycVYKAQIECBAgQIAAAQIECBAgQIAAAQIECBAgkKOAACRHbEURIECAAAECBAgQIECAAAECBAgQIECAAAEC+QgIQPJxVgoBAgQIECBAgAABAgQIECBAgAABAgQIECCQo4AAJEdsRREgQIAAAQIECBAgQIAAAQIECBAgQIAAAQL5CAhA8nFWCgECBAgQIECAAAECBAgQIECAAAECBAgQIJCjgAAkR2xFESBAgAABAgQIECBAgAABAgQIECBAgAABAvkICEDycVYKAQIECBAgQIAAAQIECBAgQIAAAQIECBAgkKOAACRHbEURIECAAAECBAgQIECAAAECBAgQIECAAAEC+QgIQPJxVgoBAgQIECBAgAABAgQIECBAgAABAgQIECCQo4AAJEdsRREgQIAAAQIECBAgQIAAAQIECBAgQIAAAQL5CAhA8nFWCgECBAgQIECAAAECBAgQIECAAAECBAgQIJCjgAAkR2xFESBAgAABAgQIECBAgAABAgQIECBAgAABAvkICEDycVYKAQIECBAgQIAAAQIECBAgQIAAAQIECBAgkKOAACRHbEURIECAAAECBAgQIECAAAECBAgQIECAAAEC+QgIQPJxVgoBAgQIECBAgAABAgQIECBAgAABAgQIECCQo4AAJEdsRREgQIAAAQIECBAgQIAAAQIECBAgQIAAAQL5CAhA8nFWCgECBAgQIECAAAECBAgQIECAAAECBAgQIJCjgAAkR2xFESBAgAABAgQIECBAgAABAgQIECBAgAABAvkICEDycVYKAQIECBAgQIAAAQIECBAgQIAAAQIECBAgkKOAACRHbEURIECAAAECBAgQIECAAAECBAgQIECAAAEC+QgIQPJxVgoBAgQIECBAgAABAgQIECBAgAABAgQIECCQo4AAJEdsRREgQIAAAQIECBAgQIAAAQIECBAgQIAAAQL5CAhA8nFWCgECBAgQIECAAAECBAgQIECAAAECBAgQIJCjgAAkR2xFESBAgAABAgQIECBAgAABAgQIECBAgAABAvkICEDycVYKAQIECBAgQIAAAQIECBAgQIAAAQIECBAgkKOAACRHbEURIECAAAECBAgQIECAAAECBAgQIECAAAEC+QgIQPJxVgoBAgQIECBAgAABAgQIECBAgAABAgQIECCQo4AAJEdsRREgQIAAAQIECBAgQIAAAQIECBAgQIAAAQL5CAhA8nFWCgECBAgQIECAAAECBAgQIECAAAECBAgQIJCjgAAkR2xFESBAgAABAgQIECBAgAABAgQIECBAgAABAvkICEDycVYKAQIECBAgQIAAAQIECBAgQIAAAQIECBAgkKOAACRHbEURIECAAAECBAgQIECAAAECBAgQIECAAAEC+QgIQPJxVgoBAgQIECBAgAABAgQIECBAgAABAgQIECCQo4AAJEdsRREgQIAAAQIECBAgQIAAAQIECBAgQIAAAQL5CAhA8nFWCgECBAgQIECAAAECBAgQIECAAAECBAgQIJCjgAAkR2xFESBAgAABAgQIECBAgAABAgQIECBAgAABAvkICEDycVYKAQIECBAgQIAAAQIECBAgQIAAAQIECBAgkKOAACRHbEURIECAAAECBAgQIECAAAECBAgQIECAAAEC+QgIQPJxVgoBAgQIECBAgAABAgQIECBAgAABAgQIECCQo4AAJEdsRREgQIAAAQIECBAgQIAAAQIECBAgQIAAAQL5CAhA8nFWCgECBAgQIECAAAECBAgQIECAAAECBAgQIJCjgAAkR2xFESBAgAABAgQIECBAgAABAgQIECBAgAABAvkICEDycVYKAQIECBAgQIAAAQIECBAgQIAAAQIECBAgkKOAACRHbEURIECAAAECBAgQIECAAAECBAgQIECAAAEC+QgIQPJxVgoBAgQIECBAgAABAgQIECBAgAABAgQIECCQo4AAJEdsRREgQIAAAQIECBAgQIAAAQIECBAgQIAAAQL5CAhA8nFWCgECBAgQIECAAAECBAgQIECAAAECBAgQIJCjQApAXo6I4TmWqSgCBAgQIECAAAECBAgQIECAAAECBAgQIECAQCsF1qQA5NmI2LCVpTg2AQIECBAgQIAAAQIECBAgQIAAAQIECBAgQCBHgVUpALk7InbJsVBFESBAgAABAgQIECBAgAABAgQIECBAgAABAgRaKXDPsDGbbfGDYbH2gFaW4tgECBAgQIAAAQIECBAgQIAAAQIECBAgQIAAgbwE1sawK4dtstkW0yPWnplXocohQIAAAQIECBAgQIAAAQIECBAgQIAAAQIECLRWYNgpwzbZYot3xpq1v2htQY5OgAABAgQIECBAgAABAgQIECBAgAABAgQIEMhJYPiwicNSUZtsuvljMSy2yqlYxRAgQIAAAQIECBAgQIAAAQIECBAgQIAAAQIEWiOwNv7w1Io/bl0KQMZsuvnsYcNiamtKclQCBAgQIECAAAECBAgQIECAAAECBAgQIECAQD4Ca9fGnJUr/njC3+4A2WSTHWL4iAfyKVopBAgQIECAAAECBAgQIECAAAECBAgQIECAAIEWCax5ecennnrqwVIAkh5jNt98wbC1MaVFxTksAQIECBAgQIAAAQIECBAgQIAAAQIECBAgQKClAmuHxcKVf/zjUamQcgCy6aabbrZ22PD7ImLDlpbu4AQIECBAgAABAgQIECBAgAABAgQIECBAgACB5gusGrZ2zU4rVqxY3icASf9nk802OyJi2CXNL9MRCRAgQIAAAQIECBAgQIAAAQIECBAgQIAAAQKtFFh75FPLly/qKaF8B0jPP1gKq5X4jk2AAAECBAgQIECAAAECBAgQIECAAAECBAg0W6D30lf9BiDpD2M22+IHw2LtAc2ugOMRIECAAAECBAgQIECAAAECBAgQIECAAAECBJopsDaGXbly+ZMfrDzmOneA9DxBCNJMfsciQIAAAQIECBAgQIAAAQIECBAgQIAAAQIEmi3QX/iRyuk3AEl/tBxWs7vC8QgQIECAAAECBAgQIECAAAECBAgQIECAAIFmCGQte9X7uAMGIOmJ/7Mx+tyI2LAZFXIMAgQIECBAgAABAgQIECBAgAABAgQIECBAgEADAqsi1h7Xe8PzrGMNGoCkF2266aabrRk+/LRha2NKAxXyUgIECBAgQIAAAQIECBAgQIAAAQIECBAgQIBA3QLpro/ha9acsWLFiuWDHaSqAKTnIJtssskOa4eN+NSwiI/FsNhqsIP7OwECBAgQIECAAAECBAgQIECAAAECBAgQIECgIYG18Ye1Ef8xbO3LFz/11FMPVnusmgKQ3gfdZIst3hlrYq+1EbsNi7VjI+J1EfHaiBhebeGeR4AAAQIECBAgQIAAAQIECBAgQIAAAQIECBD4H4E1EfFcRDyxNobdPyxiaQyPm5568slf1iNUdwBST2FeQ4AAAQIECBAgQIAAAQIECBAgQIAAAQIECBDIQ0AAkoeyMggQIECAAAECBAgQIECAAAECBAgQIECAAIFcBf5/ghqHnxH+igEAAAAASUVORK5CYII=;" vertex="1" parent="1">
                    <mxGeometry x="200" y="200" width="297.14" height="130" as="geometry"/>
                </mxCell>
                <mxCell id="11" value="&lt;pre id=&quot;tree-panel&quot; style=&quot;font-size: 13px&quot;&gt;&lt;font color=&quot;#000000&quot;&gt;&lt;span class=&quot;t-icon&quot;&gt;ðŸ“¦&lt;/span&gt;hello_git&lt;br&gt; â”— &lt;span class=&quot;t-icon&quot;&gt;ðŸ“œ&lt;/span&gt;README.md&lt;/font&gt;&lt;/pre&gt;" style="text;html=1;align=center;verticalAlign=middle;resizable=0;points=[];autosize=1;strokeColor=none;" vertex="1" parent="1">
                    <mxGeometry x="12.5" y="200" width="130" height="60" as="geometry"/>
                </mxCell>
                <mxCell id="13" value="" style="shape=curlyBracket;whiteSpace=wrap;html=1;rounded=1;strokeColor=#005700;strokeWidth=2;fillColor=#008a00;align=left;rotation=-90;fontColor=#ffffff;" vertex="1" parent="1">
                    <mxGeometry x="85.5" y="217.5" width="20" height="95" as="geometry"/>
                </mxCell>
                <mxCell id="14" value="" style="shape=curlyBracket;whiteSpace=wrap;html=1;rounded=1;strokeColor=#005700;strokeWidth=2;fillColor=#008a00;align=left;rotation=-90;fontColor=#ffffff;" vertex="1" parent="1">
                    <mxGeometry x="417.25" y="240.25" width="20" height="122.5" as="geometry"/>
                </mxCell>
                <mxCell id="16" value="" style="endArrow=none;html=1;exitX=0.1;exitY=0.5;exitDx=0;exitDy=0;exitPerimeter=0;entryX=0.1;entryY=0.5;entryDx=0;entryDy=0;entryPerimeter=0;fillColor=#008a00;strokeColor=#005700;edgeStyle=orthogonalEdgeStyle;strokeWidth=2;" edge="1" parent="1" source="13" target="14">
                    <mxGeometry width="50" height="50" relative="1" as="geometry">
                        <mxPoint x="150" y="440" as="sourcePoint"/>
                        <mxPoint x="200" y="390" as="targetPoint"/>
                        <Array as="points">
                            <mxPoint x="96" y="350"/>
                            <mxPoint x="427" y="350"/>
                        </Array>
                    </mxGeometry>
                </mxCell>
                <mxCell id="17" value="" style="shape=curlyBracket;whiteSpace=wrap;html=1;rounded=1;strokeColor=#6F0000;strokeWidth=2;fillColor=#a20025;align=left;rotation=-90;fontColor=#ffffff;" vertex="1" parent="1">
                    <mxGeometry x="273.63" y="225.38" width="20" height="152.25" as="geometry"/>
                </mxCell>
                <mxCell id="18" value="" style="endArrow=classic;html=1;strokeWidth=2;exitX=0.1;exitY=0.5;exitDx=0;exitDy=0;exitPerimeter=0;fillColor=#a20025;strokeColor=#6F0000;edgeStyle=orthogonalEdgeStyle;" edge="1" parent="1">
                    <mxGeometry width="50" height="50" relative="1" as="geometry">
                        <mxPoint x="283.63" y="309.505" as="sourcePoint"/>
                        <mxPoint x="610" y="300" as="targetPoint"/>
                        <Array as="points">
                            <mxPoint x="284" y="370"/>
                            <mxPoint x="520" y="370"/>
                            <mxPoint x="520" y="300"/>
                            <mxPoint x="610" y="300"/>
                        </Array>
                    </mxGeometry>
                </mxCell>
            </root>
        </mxGraphModel>
    </diagram>
</mxfile>